{
	"patcher" : 	{
		"fileversion" : 1,
		"appversion" : 		{
			"major" : 6,
			"minor" : 1,
			"revision" : 6,
			"architecture" : "x86"
		}
,
		"rect" : [ 0.0, 44.0, 1075.0, 806.0 ],
		"bgcolor" : [ 0.9, 0.9, 0.9, 1.0 ],
		"bglocked" : 0,
		"openinpresentation" : 0,
		"default_fontsize" : 10.0,
		"default_fontface" : 0,
		"default_fontname" : "Arial",
		"gridonopen" : 0,
		"gridsize" : [ 15.0, 15.0 ],
		"gridsnaponopen" : 0,
		"statusbarvisible" : 2,
		"toolbarvisible" : 1,
		"boxanimatetime" : 200,
		"imprint" : 0,
		"enablehscroll" : 1,
		"enablevscroll" : 1,
		"devicewidth" : 0.0,
		"description" : "",
		"digest" : "",
		"tags" : "",
		"title" : "yk.panner2chGen.gendsp",
		"boxes" : [ 			{
				"box" : 				{
					"color" : [ 0.082353, 0.431373, 0.411765, 1.0 ],
					"fontname" : "Arial",
					"fontsize" : 10.0,
					"id" : "obj-2",
					"maxclass" : "newobj",
					"numinlets" : 0,
					"numoutlets" : 1,
					"outlettype" : [ "" ],
					"patching_rect" : [ 296.847534, 23.46344, 134.0, 18.0 ],
					"text" : "in 2 @comment \"pan index\""
				}

			}
, 			{
				"box" : 				{
					"fontname" : "Arial",
					"fontsize" : 10.0,
					"id" : "obj-10",
					"maxclass" : "newobj",
					"numinlets" : 1,
					"numoutlets" : 1,
					"outlettype" : [ "" ],
					"patching_rect" : [ 435.850342, 74.0, 100.0, 18.0 ],
					"text" : "setparam rampTime"
				}

			}
, 			{
				"box" : 				{
					"color" : [ 0.831373, 0.682353, 0.34902, 1.0 ],
					"fontname" : "Arial",
					"fontsize" : 10.0,
					"id" : "obj-7",
					"maxclass" : "newobj",
					"numinlets" : 1,
					"numoutlets" : 1,
					"outlettype" : [ "" ],
					"patcher" : 					{
						"fileversion" : 1,
						"appversion" : 						{
							"major" : 6,
							"minor" : 1,
							"revision" : 6,
							"architecture" : "x86"
						}
,
						"rect" : [ 0.0, 44.0, 1095.0, 806.0 ],
						"bgcolor" : [ 0.9, 0.9, 0.9, 1.0 ],
						"bglocked" : 0,
						"openinpresentation" : 0,
						"default_fontsize" : 10.0,
						"default_fontface" : 0,
						"default_fontname" : "Arial",
						"gridonopen" : 0,
						"gridsize" : [ 15.0, 15.0 ],
						"gridsnaponopen" : 0,
						"statusbarvisible" : 2,
						"toolbarvisible" : 1,
						"boxanimatetime" : 200,
						"imprint" : 0,
						"enablehscroll" : 1,
						"enablevscroll" : 1,
						"devicewidth" : 0.0,
						"description" : "",
						"digest" : "",
						"tags" : "",
						"title" : "yk.rampGen.gendsp",
						"boxes" : [ 							{
								"box" : 								{
									"fontname" : "Arial",
									"fontsize" : 10.0,
									"frgb" : 0.0,
									"id" : "obj-10",
									"linecount" : 2,
									"maxclass" : "comment",
									"numinlets" : 1,
									"numoutlets" : 0,
									"patching_rect" : [ 234.680817, 70.681435, 150.0, 29.0 ],
									"text" : "default ramp time is 1000 samps (ca. 20ms @ 48kHz)"
								}

							}
, 							{
								"box" : 								{
									"color" : [ 0.082353, 0.431373, 0.411765, 1.0 ],
									"fontname" : "Arial",
									"fontsize" : 10.0,
									"id" : "obj-1",
									"maxclass" : "newobj",
									"numinlets" : 0,
									"numoutlets" : 1,
									"outlettype" : [ "" ],
									"patching_rect" : [ 44.625481, 52.681435, 141.0, 18.0 ],
									"text" : "in 1 @comment \"input signal\""
								}

							}
, 							{
								"box" : 								{
									"fontname" : "Arial Bold",
									"fontsize" : 12.0,
									"frgb" : 0.0,
									"id" : "obj-5",
									"maxclass" : "comment",
									"numinlets" : 1,
									"numoutlets" : 0,
									"patching_rect" : [ 44.625481, 20.0, 153.0, 20.0 ],
									"text" : "ramp generator like line~"
								}

							}
, 							{
								"box" : 								{
									"fontname" : "Arial",
									"fontsize" : 10.0,
									"id" : "obj-24",
									"maxclass" : "newobj",
									"numinlets" : 1,
									"numoutlets" : 1,
									"outlettype" : [ "" ],
									"patching_rect" : [ 44.625481, 114.686752, 29.0, 18.0 ],
									"text" : "bool"
								}

							}
, 							{
								"box" : 								{
									"fontname" : "Arial",
									"fontsize" : 10.0,
									"id" : "obj-23",
									"maxclass" : "newobj",
									"numinlets" : 3,
									"numoutlets" : 1,
									"outlettype" : [ "" ],
									"patching_rect" : [ 156.180817, 241.303497, 46.0, 18.0 ],
									"text" : "sah"
								}

							}
, 							{
								"box" : 								{
									"fontname" : "Arial",
									"fontsize" : 10.0,
									"frgb" : 0.0,
									"id" : "obj-22",
									"linecount" : 2,
									"maxclass" : "comment",
									"numinlets" : 1,
									"numoutlets" : 0,
									"patching_rect" : [ 202.180817, 230.303497, 132.0, 29.0 ],
									"text" : "the value to start the ramp is set when input changes"
								}

							}
, 							{
								"box" : 								{
									"fontname" : "Arial",
									"fontsize" : 10.0,
									"id" : "obj-20",
									"maxclass" : "newobj",
									"numinlets" : 1,
									"numoutlets" : 1,
									"outlettype" : [ "" ],
									"patching_rect" : [ 89.375481, 214.256165, 40.0, 18.0 ],
									"text" : "history"
								}

							}
, 							{
								"box" : 								{
									"fontname" : "Arial",
									"fontsize" : 10.0,
									"id" : "obj-19",
									"maxclass" : "newobj",
									"numinlets" : 3,
									"numoutlets" : 1,
									"outlettype" : [ "" ],
									"patching_rect" : [ 110.925484, 241.303497, 46.0, 18.0 ],
									"text" : "sah"
								}

							}
, 							{
								"box" : 								{
									"fontname" : "Arial",
									"fontsize" : 10.0,
									"id" : "obj-16",
									"maxclass" : "newobj",
									"numinlets" : 1,
									"numoutlets" : 1,
									"outlettype" : [ "" ],
									"patching_rect" : [ 44.625481, 176.185959, 61.0, 18.0 ],
									"text" : "/ rampTime"
								}

							}
, 							{
								"box" : 								{
									"color" : [ 0.082353, 0.25098, 0.431373, 1.0 ],
									"fontname" : "Arial",
									"fontsize" : 10.0,
									"id" : "obj-11",
									"maxclass" : "newobj",
									"numinlets" : 0,
									"numoutlets" : 1,
									"outlettype" : [ "" ],
									"patching_rect" : [ 234.680817, 52.681435, 149.0, 18.0 ],
									"text" : "param rampTime 1000 @min 1"
								}

							}
, 							{
								"box" : 								{
									"fontname" : "Arial",
									"fontsize" : 10.0,
									"frgb" : 0.0,
									"id" : "obj-8",
									"linecount" : 3,
									"maxclass" : "comment",
									"numinlets" : 1,
									"numoutlets" : 0,
									"patching_rect" : [ 202.180817, 267.257996, 177.0, 40.0 ],
									"text" : "scaling:\ninput: [0, 1]\noutput: [departure val, destination val]"
								}

							}
, 							{
								"box" : 								{
									"fontname" : "Arial",
									"fontsize" : 10.0,
									"id" : "obj-13",
									"maxclass" : "newobj",
									"numinlets" : 1,
									"numoutlets" : 1,
									"outlettype" : [ "" ],
									"patching_rect" : [ 44.625481, 241.303497, 42.0, 18.0 ],
									"text" : "clip 0 1"
								}

							}
, 							{
								"box" : 								{
									"fontname" : "Arial",
									"fontsize" : 10.0,
									"id" : "obj-12",
									"maxclass" : "newobj",
									"numinlets" : 6,
									"numoutlets" : 1,
									"outlettype" : [ "" ],
									"patching_rect" : [ 44.625481, 267.257996, 129.5, 18.0 ],
									"text" : "scale"
								}

							}
, 							{
								"box" : 								{
									"fontname" : "Arial",
									"fontsize" : 10.0,
									"id" : "obj-6",
									"maxclass" : "newobj",
									"numinlets" : 1,
									"numoutlets" : 1,
									"outlettype" : [ "" ],
									"patching_rect" : [ 44.625481, 89.686768, 32.0, 18.0 ],
									"text" : "delta"
								}

							}
, 							{
								"box" : 								{
									"fontname" : "Arial",
									"fontsize" : 10.0,
									"id" : "obj-2",
									"maxclass" : "newobj",
									"numinlets" : 1,
									"numoutlets" : 1,
									"outlettype" : [ "" ],
									"patching_rect" : [ 44.625481, 151.185959, 31.0, 18.0 ],
									"text" : "+= 1"
								}

							}
, 							{
								"box" : 								{
									"color" : [ 0.082353, 0.431373, 0.411765, 1.0 ],
									"fontname" : "Arial",
									"fontsize" : 10.0,
									"id" : "obj-4",
									"maxclass" : "newobj",
									"numinlets" : 1,
									"numoutlets" : 0,
									"patching_rect" : [ 44.625481, 303.024841, 153.0, 18.0 ],
									"text" : "out 1 @comment \"output signal\""
								}

							}
 ],
						"lines" : [ 							{
								"patchline" : 								{
									"color" : [ 0.463055, 0.463126, 0.463021, 1.0 ],
									"destination" : [ "obj-23", 0 ],
									"disabled" : 0,
									"hidden" : 0,
									"midpoints" : [ 54.125481, 81.992462, 165.680817, 81.992462 ],
									"source" : [ "obj-1", 0 ]
								}

							}
, 							{
								"patchline" : 								{
									"color" : [ 0.463055, 0.463126, 0.463021, 1.0 ],
									"destination" : [ "obj-6", 0 ],
									"disabled" : 0,
									"hidden" : 0,
									"source" : [ "obj-1", 0 ]
								}

							}
, 							{
								"patchline" : 								{
									"destination" : [ "obj-20", 0 ],
									"disabled" : 0,
									"hidden" : 0,
									"midpoints" : [ 54.125481, 293.217926, 32.701935, 293.217926, 32.701935, 204.256195, 98.875481, 204.256195 ],
									"source" : [ "obj-12", 0 ]
								}

							}
, 							{
								"patchline" : 								{
									"destination" : [ "obj-4", 0 ],
									"disabled" : 0,
									"hidden" : 0,
									"source" : [ "obj-12", 0 ]
								}

							}
, 							{
								"patchline" : 								{
									"destination" : [ "obj-12", 0 ],
									"disabled" : 0,
									"hidden" : 0,
									"source" : [ "obj-13", 0 ]
								}

							}
, 							{
								"patchline" : 								{
									"color" : [ 0.463055, 0.463126, 0.463021, 1.0 ],
									"destination" : [ "obj-13", 0 ],
									"disabled" : 0,
									"hidden" : 0,
									"midpoints" : [ 54.125481, 203.894653, 54.125481, 203.894653 ],
									"source" : [ "obj-16", 0 ]
								}

							}
, 							{
								"patchline" : 								{
									"destination" : [ "obj-12", 3 ],
									"disabled" : 0,
									"hidden" : 0,
									"source" : [ "obj-19", 0 ]
								}

							}
, 							{
								"patchline" : 								{
									"destination" : [ "obj-16", 0 ],
									"disabled" : 0,
									"hidden" : 0,
									"source" : [ "obj-2", 0 ]
								}

							}
, 							{
								"patchline" : 								{
									"destination" : [ "obj-19", 0 ],
									"disabled" : 0,
									"hidden" : 0,
									"midpoints" : [ 98.875481, 237.782471, 120.425484, 237.782471 ],
									"source" : [ "obj-20", 0 ]
								}

							}
, 							{
								"patchline" : 								{
									"destination" : [ "obj-12", 4 ],
									"disabled" : 0,
									"hidden" : 0,
									"source" : [ "obj-23", 0 ]
								}

							}
, 							{
								"patchline" : 								{
									"destination" : [ "obj-19", 1 ],
									"disabled" : 0,
									"hidden" : 0,
									"midpoints" : [ 54.125481, 142.157059, 133.925476, 142.157059 ],
									"source" : [ "obj-24", 0 ]
								}

							}
, 							{
								"patchline" : 								{
									"destination" : [ "obj-2", 0 ],
									"disabled" : 0,
									"hidden" : 0,
									"source" : [ "obj-24", 0 ]
								}

							}
, 							{
								"patchline" : 								{
									"destination" : [ "obj-23", 1 ],
									"disabled" : 0,
									"hidden" : 0,
									"midpoints" : [ 54.125481, 142.157059, 179.180817, 142.157059 ],
									"source" : [ "obj-24", 0 ]
								}

							}
, 							{
								"patchline" : 								{
									"destination" : [ "obj-24", 0 ],
									"disabled" : 0,
									"hidden" : 0,
									"source" : [ "obj-6", 0 ]
								}

							}
 ]
					}
,
					"patching_rect" : [ 296.847534, 101.0, 66.0, 18.0 ],
					"text" : "yk.gen.ramp"
				}

			}
, 			{
				"box" : 				{
					"fontname" : "Arial",
					"fontsize" : 10.0,
					"id" : "obj-26",
					"maxclass" : "newobj",
					"numinlets" : 1,
					"numoutlets" : 1,
					"outlettype" : [ "" ],
					"patching_rect" : [ 296.847534, 128.165863, 86.0, 18.0 ],
					"text" : "expr (in1 + 1) / 2."
				}

			}
, 			{
				"box" : 				{
					"fontname" : "Arial",
					"fontsize" : 10.0,
					"id" : "obj-25",
					"maxclass" : "newobj",
					"numinlets" : 1,
					"numoutlets" : 1,
					"outlettype" : [ "" ],
					"patching_rect" : [ 296.847534, 48.80162, 51.0, 18.0 ],
					"text" : "clip -1. 1."
				}

			}
, 			{
				"box" : 				{
					"fontname" : "Arial",
					"fontsize" : 10.0,
					"frgb" : 0.0,
					"id" : "obj-15",
					"maxclass" : "comment",
					"numinlets" : 1,
					"numoutlets" : 0,
					"patching_rect" : [ 497.850342, 48.80162, 311.0, 18.0 ],
					"text" : "ramp time in samples (i.e., # of steps to reach the destination value)"
				}

			}
, 			{
				"box" : 				{
					"color" : [ 0.082353, 0.25098, 0.431373, 1.0 ],
					"fontname" : "Arial",
					"fontsize" : 10.0,
					"id" : "obj-11",
					"maxclass" : "newobj",
					"numinlets" : 0,
					"numoutlets" : 1,
					"outlettype" : [ "" ],
					"patching_rect" : [ 435.850342, 23.46344, 138.0, 18.0 ],
					"text" : "param rampTime 20 @min 1"
				}

			}
, 			{
				"box" : 				{
					"fontname" : "Arial",
					"fontsize" : 10.0,
					"id" : "obj-6",
					"maxclass" : "newobj",
					"numinlets" : 1,
					"numoutlets" : 1,
					"outlettype" : [ "" ],
					"patching_rect" : [ 435.850342, 48.80162, 62.0, 18.0 ],
					"text" : "mstosamps"
				}

			}
, 			{
				"box" : 				{
					"fontname" : "Arial",
					"fontsize" : 10.0,
					"frgb" : 0.0,
					"id" : "obj-97",
					"linecount" : 4,
					"maxclass" : "comment",
					"numinlets" : 1,
					"numoutlets" : 0,
					"patching_rect" : [ 337.847534, 152.007294, 117.0, 51.0 ],
					"text" : "equal-distance panning\n0 <= x <= pi/2\n0 <= sin(x) <= 1.\n1 <= cos(x) <= 0.."
				}

			}
, 			{
				"box" : 				{
					"fontname" : "Arial",
					"fontsize" : 10.0,
					"id" : "obj-83",
					"maxclass" : "newobj",
					"numinlets" : 1,
					"numoutlets" : 1,
					"outlettype" : [ "" ],
					"patching_rect" : [ 296.847534, 152.007294, 41.0, 18.0 ],
					"text" : "* halfpi"
				}

			}
, 			{
				"box" : 				{
					"fontname" : "Arial",
					"fontsize" : 10.0,
					"id" : "obj-73",
					"maxclass" : "newobj",
					"numinlets" : 2,
					"numoutlets" : 1,
					"outlettype" : [ "" ],
					"patching_rect" : [ 65.090172, 229.446167, 32.5, 18.0 ],
					"text" : "*"
				}

			}
, 			{
				"box" : 				{
					"fontname" : "Arial",
					"fontsize" : 10.0,
					"id" : "obj-74",
					"maxclass" : "newobj",
					"numinlets" : 1,
					"numoutlets" : 1,
					"outlettype" : [ "" ],
					"patching_rect" : [ 78.590172, 205.604706, 23.0, 18.0 ],
					"text" : "sin"
				}

			}
, 			{
				"box" : 				{
					"fontname" : "Arial",
					"fontsize" : 10.0,
					"id" : "obj-72",
					"maxclass" : "newobj",
					"numinlets" : 2,
					"numoutlets" : 1,
					"outlettype" : [ "" ],
					"patching_rect" : [ 20.937813, 229.446167, 32.5, 18.0 ],
					"text" : "*"
				}

			}
, 			{
				"box" : 				{
					"fontname" : "Arial",
					"fontsize" : 10.0,
					"id" : "obj-71",
					"maxclass" : "newobj",
					"numinlets" : 1,
					"numoutlets" : 1,
					"outlettype" : [ "" ],
					"patching_rect" : [ 34.133339, 205.604706, 26.0, 18.0 ],
					"text" : "cos"
				}

			}
, 			{
				"box" : 				{
					"color" : [ 0.082353, 0.431373, 0.411765, 1.0 ],
					"fontname" : "Arial",
					"fontsize" : 10.0,
					"id" : "obj-3",
					"maxclass" : "newobj",
					"numinlets" : 1,
					"numoutlets" : 0,
					"patching_rect" : [ 65.090172, 271.214111, 200.0, 18.0 ],
					"text" : "out 2 @comment \"right channel signal out\""
				}

			}
, 			{
				"box" : 				{
					"color" : [ 0.082353, 0.431373, 0.411765, 1.0 ],
					"fontname" : "Arial",
					"fontsize" : 10.0,
					"id" : "obj-1",
					"maxclass" : "newobj",
					"numinlets" : 0,
					"numoutlets" : 1,
					"outlettype" : [ "" ],
					"patching_rect" : [ 20.937813, 152.007294, 228.0, 18.0 ],
					"text" : "in 1 @comment \"mono signal for stereo panning\""
				}

			}
, 			{
				"box" : 				{
					"color" : [ 0.082353, 0.431373, 0.411765, 1.0 ],
					"fontname" : "Arial",
					"fontsize" : 10.0,
					"id" : "obj-4",
					"maxclass" : "newobj",
					"numinlets" : 1,
					"numoutlets" : 0,
					"patching_rect" : [ 20.937813, 294.922058, 193.0, 18.0 ],
					"text" : "out 1 @comment \"left channel signal out\""
				}

			}
 ],
		"lines" : [ 			{
				"patchline" : 				{
					"destination" : [ "obj-72", 0 ],
					"disabled" : 0,
					"hidden" : 0,
					"source" : [ "obj-1", 0 ]
				}

			}
, 			{
				"patchline" : 				{
					"destination" : [ "obj-73", 0 ],
					"disabled" : 0,
					"hidden" : 0,
					"midpoints" : [ 30.437813, 184.114136, 74.590172, 184.114136 ],
					"source" : [ "obj-1", 0 ]
				}

			}
, 			{
				"patchline" : 				{
					"destination" : [ "obj-7", 0 ],
					"disabled" : 0,
					"hidden" : 0,
					"midpoints" : [ 445.350342, 96.0, 306.347534, 96.0 ],
					"source" : [ "obj-10", 0 ]
				}

			}
, 			{
				"patchline" : 				{
					"destination" : [ "obj-6", 0 ],
					"disabled" : 0,
					"hidden" : 0,
					"source" : [ "obj-11", 0 ]
				}

			}
, 			{
				"patchline" : 				{
					"destination" : [ "obj-25", 0 ],
					"disabled" : 0,
					"hidden" : 0,
					"source" : [ "obj-2", 0 ]
				}

			}
, 			{
				"patchline" : 				{
					"destination" : [ "obj-7", 0 ],
					"disabled" : 0,
					"hidden" : 0,
					"source" : [ "obj-25", 0 ]
				}

			}
, 			{
				"patchline" : 				{
					"destination" : [ "obj-83", 0 ],
					"disabled" : 0,
					"hidden" : 0,
					"source" : [ "obj-26", 0 ]
				}

			}
, 			{
				"patchline" : 				{
					"destination" : [ "obj-10", 0 ],
					"disabled" : 0,
					"hidden" : 0,
					"source" : [ "obj-6", 0 ]
				}

			}
, 			{
				"patchline" : 				{
					"destination" : [ "obj-26", 0 ],
					"disabled" : 0,
					"hidden" : 0,
					"source" : [ "obj-7", 0 ]
				}

			}
, 			{
				"patchline" : 				{
					"destination" : [ "obj-72", 1 ],
					"disabled" : 0,
					"hidden" : 0,
					"source" : [ "obj-71", 0 ]
				}

			}
, 			{
				"patchline" : 				{
					"destination" : [ "obj-4", 0 ],
					"disabled" : 0,
					"hidden" : 0,
					"source" : [ "obj-72", 0 ]
				}

			}
, 			{
				"patchline" : 				{
					"destination" : [ "obj-3", 0 ],
					"disabled" : 0,
					"hidden" : 0,
					"source" : [ "obj-73", 0 ]
				}

			}
, 			{
				"patchline" : 				{
					"destination" : [ "obj-73", 1 ],
					"disabled" : 0,
					"hidden" : 0,
					"source" : [ "obj-74", 0 ]
				}

			}
, 			{
				"patchline" : 				{
					"destination" : [ "obj-71", 0 ],
					"disabled" : 0,
					"hidden" : 0,
					"midpoints" : [ 306.347534, 195.631348, 43.633339, 195.631348 ],
					"source" : [ "obj-83", 0 ]
				}

			}
, 			{
				"patchline" : 				{
					"destination" : [ "obj-74", 0 ],
					"disabled" : 0,
					"hidden" : 0,
					"midpoints" : [ 306.347534, 195.631348, 88.090172, 195.631348 ],
					"source" : [ "obj-83", 0 ]
				}

			}
 ]
	}

}
