{
	"patcher" : 	{
		"fileversion" : 1,
		"appversion" : 		{
			"major" : 8,
			"minor" : 6,
			"revision" : 4,
			"architecture" : "x64",
			"modernui" : 1
		}
,
		"classnamespace" : "box",
		"rect" : [ -493.0, -1353.0, 2049.0, 1319.0 ],
		"bglocked" : 0,
		"openinpresentation" : 0,
		"default_fontsize" : 12.0,
		"default_fontface" : 0,
		"default_fontname" : "Nunito Sans 10pt",
		"gridonopen" : 1,
		"gridsize" : [ 15.0, 15.0 ],
		"gridsnaponopen" : 1,
		"objectsnaponopen" : 1,
		"statusbarvisible" : 2,
		"toolbarvisible" : 1,
		"lefttoolbarpinned" : 0,
		"toptoolbarpinned" : 0,
		"righttoolbarpinned" : 0,
		"bottomtoolbarpinned" : 0,
		"toolbars_unpinned_last_save" : 0,
		"tallnewobj" : 0,
		"boxanimatetime" : 200,
		"enablehscroll" : 1,
		"enablevscroll" : 1,
		"devicewidth" : 0.0,
		"description" : "",
		"digest" : "",
		"tags" : "",
		"style" : "YKStyle_Patcher_02_12pt",
		"subpatcher_template" : "",
		"assistshowspatchername" : 0,
		"boxes" : [ 			{
				"box" : 				{
					"id" : "obj-25",
					"maxclass" : "newobj",
					"numinlets" : 4,
					"numoutlets" : 1,
					"outlettype" : [ "clear" ],
					"patcher" : 					{
						"fileversion" : 1,
						"appversion" : 						{
							"major" : 8,
							"minor" : 6,
							"revision" : 4,
							"architecture" : "x64",
							"modernui" : 1
						}
,
						"classnamespace" : "box",
						"rect" : [ 0.0, 44.0, 1440.0, 806.0 ],
						"bglocked" : 0,
						"openinpresentation" : 0,
						"default_fontsize" : 10.0,
						"default_fontface" : 0,
						"default_fontname" : "Arial",
						"gridonopen" : 1,
						"gridsize" : [ 15.0, 15.0 ],
						"gridsnaponopen" : 1,
						"objectsnaponopen" : 1,
						"statusbarvisible" : 2,
						"toolbarvisible" : 1,
						"lefttoolbarpinned" : 0,
						"toptoolbarpinned" : 0,
						"righttoolbarpinned" : 0,
						"bottomtoolbarpinned" : 0,
						"toolbars_unpinned_last_save" : 0,
						"tallnewobj" : 0,
						"boxanimatetime" : 200,
						"enablehscroll" : 1,
						"enablevscroll" : 1,
						"devicewidth" : 0.0,
						"description" : "",
						"digest" : "",
						"tags" : "",
						"style" : "",
						"subpatcher_template" : "",
						"assistshowspatchername" : 0,
						"boxes" : [ 							{
								"box" : 								{
									"fontname" : "Arial",
									"fontsize" : 10.0,
									"id" : "obj-11",
									"maxclass" : "comment",
									"numinlets" : 1,
									"numoutlets" : 0,
									"patching_rect" : [ 502.203979000000004, 913.423584000000005, 86.0, 18.0 ],
									"text" : "to function object"
								}

							}
, 							{
								"box" : 								{
									"fontname" : "Arial",
									"fontsize" : 10.0,
									"id" : "obj-9",
									"maxclass" : "comment",
									"numinlets" : 1,
									"numoutlets" : 0,
									"patching_rect" : [ 967.776183999999944, 47.0, 66.0, 18.0 ],
									"text" : "interp period"
								}

							}
, 							{
								"box" : 								{
									"fontname" : "Arial",
									"fontsize" : 10.0,
									"id" : "obj-8",
									"maxclass" : "comment",
									"numinlets" : 1,
									"numoutlets" : 0,
									"patching_rect" : [ 753.824463000000037, 47.0, 66.0, 18.0 ],
									"text" : "interp switch"
								}

							}
, 							{
								"box" : 								{
									"fontname" : "Arial",
									"fontsize" : 10.0,
									"id" : "obj-6",
									"maxclass" : "comment",
									"numinlets" : 1,
									"numoutlets" : 0,
									"patching_rect" : [ 570.033569000000057, 47.0, 155.0, 18.0 ],
									"text" : "messages to yk.randomFunction"
								}

							}
, 							{
								"box" : 								{
									"fontname" : "Arial",
									"fontsize" : 10.0,
									"id" : "obj-4",
									"maxclass" : "comment",
									"numinlets" : 1,
									"numoutlets" : 0,
									"patching_rect" : [ 50.0, 47.0, 46.0, 18.0 ],
									"text" : "sync list"
								}

							}
, 							{
								"box" : 								{
									"fontname" : "Arial",
									"fontsize" : 10.0,
									"id" : "obj-16",
									"maxclass" : "newobj",
									"numinlets" : 1,
									"numoutlets" : 1,
									"outlettype" : [ "float" ],
									"patching_rect" : [ 190.170165999999995, 726.889770999999996, 28.0, 18.0 ],
									"text" : "t -1."
								}

							}
, 							{
								"box" : 								{
									"fontname" : "Arial",
									"fontsize" : 10.0,
									"id" : "obj-15",
									"maxclass" : "newobj",
									"numinlets" : 1,
									"numoutlets" : 1,
									"outlettype" : [ "float" ],
									"patching_rect" : [ 162.668396000000001, 726.889770999999996, 24.0, 18.0 ],
									"text" : "t 1."
								}

							}
, 							{
								"box" : 								{
									"fontname" : "Arial",
									"fontsize" : 10.0,
									"id" : "obj-14",
									"maxclass" : "newobj",
									"numinlets" : 1,
									"numoutlets" : 1,
									"outlettype" : [ "int" ],
									"patching_rect" : [ 190.170165999999995, 614.695679000000041, 22.0, 18.0 ],
									"text" : "t 0"
								}

							}
, 							{
								"box" : 								{
									"fontname" : "Arial",
									"fontsize" : 10.0,
									"id" : "obj-1",
									"maxclass" : "newobj",
									"numinlets" : 3,
									"numoutlets" : 3,
									"outlettype" : [ "", "", "" ],
									"patching_rect" : [ 570.033569000000057, 154.333037999999988, 177.0, 18.0 ],
									"text" : "route npts curve"
								}

							}
, 							{
								"box" : 								{
									"fontname" : "Arial",
									"fontsize" : 10.0,
									"id" : "obj-170",
									"maxclass" : "newobj",
									"numinlets" : 1,
									"numoutlets" : 1,
									"outlettype" : [ "sync" ],
									"patching_rect" : [ 869.289612000000034, 154.333037999999988, 37.0, 18.0 ],
									"text" : "t sync"
								}

							}
, 							{
								"box" : 								{
									"fontname" : "Arial",
									"fontsize" : 10.0,
									"id" : "obj-162",
									"maxclass" : "newobj",
									"numinlets" : 2,
									"numoutlets" : 2,
									"outlettype" : [ "", "" ],
									"patching_rect" : [ 63.5, 407.639373999999975, 46.0, 18.0 ],
									"text" : "zl group"
								}

							}
, 							{
								"box" : 								{
									"fontname" : "Arial",
									"fontsize" : 10.0,
									"id" : "obj-160",
									"maxclass" : "message",
									"numinlets" : 2,
									"numoutlets" : 1,
									"outlettype" : [ "" ],
									"patching_rect" : [ 63.5, 377.660248000000024, 36.0, 16.0 ],
									"text" : "$1 $2"
								}

							}
, 							{
								"box" : 								{
									"fontname" : "Arial",
									"fontsize" : 10.0,
									"id" : "obj-68",
									"maxclass" : "newobj",
									"numinlets" : 2,
									"numoutlets" : 2,
									"outlettype" : [ "", "" ],
									"patching_rect" : [ 63.5, 351.306488000000002, 43.0, 18.0 ],
									"text" : "zl iter 3"
								}

							}
, 							{
								"box" : 								{
									"fontname" : "Arial",
									"fontsize" : 10.0,
									"id" : "obj-60",
									"maxclass" : "newobj",
									"numinlets" : 1,
									"numoutlets" : 2,
									"outlettype" : [ "bang", "" ],
									"patching_rect" : [ 50.0, 322.740935999999977, 33.0, 18.0 ],
									"text" : "t b l"
								}

							}
, 							{
								"box" : 								{
									"fontname" : "Arial",
									"fontsize" : 10.0,
									"id" : "obj-66",
									"maxclass" : "message",
									"numinlets" : 2,
									"numoutlets" : 1,
									"outlettype" : [ "" ],
									"patching_rect" : [ 786.97961399999997, 180.808746000000014, 59.0, 16.0 ],
									"text" : "stop, set 0."
								}

							}
, 							{
								"box" : 								{
									"fontname" : "Arial",
									"fontsize" : 10.0,
									"id" : "obj-2",
									"maxclass" : "newobj",
									"numinlets" : 2,
									"numoutlets" : 1,
									"outlettype" : [ "bang" ],
									"patching_rect" : [ 950.776183999999944, 248.290313999999995, 36.0, 18.0 ],
									"text" : "metro"
								}

							}
, 							{
								"box" : 								{
									"fontname" : "Arial",
									"fontsize" : 10.0,
									"id" : "obj-352",
									"maxclass" : "newobj",
									"numinlets" : 1,
									"numoutlets" : 2,
									"outlettype" : [ "bang", "int" ],
									"patching_rect" : [ 786.97961399999997, 154.333037999999988, 76.0, 18.0 ],
									"text" : "t b 1"
								}

							}
, 							{
								"box" : 								{
									"fontname" : "Arial",
									"fontsize" : 10.0,
									"id" : "obj-296",
									"maxclass" : "message",
									"numinlets" : 2,
									"numoutlets" : 1,
									"outlettype" : [ "" ],
									"patching_rect" : [ 570.033569000000057, 206.58706699999999, 33.0, 16.0 ],
									"text" : "0, 1"
								}

							}
, 							{
								"box" : 								{
									"fontname" : "Arial",
									"fontsize" : 10.0,
									"id" : "obj-275",
									"maxclass" : "message",
									"numinlets" : 2,
									"numoutlets" : 1,
									"outlettype" : [ "" ],
									"patching_rect" : [ 603.476195999999959, 206.58706699999999, 43.0, 16.0 ],
									"text" : "npts $1"
								}

							}
, 							{
								"box" : 								{
									"fontname" : "Arial",
									"fontsize" : 10.0,
									"id" : "obj-268",
									"maxclass" : "newobj",
									"numinlets" : 1,
									"numoutlets" : 2,
									"outlettype" : [ "bang", "int" ],
									"patching_rect" : [ 570.033569000000057, 180.808746000000014, 53.0, 18.0 ],
									"text" : "t b i"
								}

							}
, 							{
								"box" : 								{
									"fontname" : "Arial",
									"fontsize" : 10.0,
									"id" : "obj-166",
									"maxclass" : "newobj",
									"numinlets" : 3,
									"numoutlets" : 3,
									"outlettype" : [ "bang", "bang", "" ],
									"patching_rect" : [ 786.97961399999997, 123.354979999999998, 46.0, 18.0 ],
									"text" : "sel 0 1"
								}

							}
, 							{
								"box" : 								{
									"color" : [ 0.831373, 0.682353, 0.34902, 1.0 ],
									"fontname" : "Arial",
									"fontsize" : 10.0,
									"id" : "obj-173",
									"maxclass" : "newobj",
									"numinlets" : 1,
									"numoutlets" : 1,
									"outlettype" : [ "clear" ],
									"patching_rect" : [ 327.679138000000023, 540.531615999999985, 41.0, 18.0 ],
									"text" : "yk.thru"
								}

							}
, 							{
								"box" : 								{
									"color" : [ 0.831373, 0.682353, 0.34902, 1.0 ],
									"fontname" : "Arial",
									"fontsize" : 10.0,
									"id" : "obj-176",
									"maxclass" : "newobj",
									"numinlets" : 1,
									"numoutlets" : 1,
									"outlettype" : [ "" ],
									"patching_rect" : [ 198.671966999999995, 849.423461999999972, 42.0, 18.0 ],
									"text" : "yk.thru"
								}

							}
, 							{
								"box" : 								{
									"fontname" : "Arial",
									"fontsize" : 10.0,
									"id" : "obj-179",
									"maxclass" : "newobj",
									"numinlets" : 1,
									"numoutlets" : 2,
									"outlettype" : [ "int", "int" ],
									"patching_rect" : [ 967.776183999999944, 225.452788999999996, 40.0, 18.0 ],
									"text" : "t i i"
								}

							}
, 							{
								"box" : 								{
									"fontname" : "Arial",
									"fontsize" : 10.0,
									"id" : "obj-180",
									"maxclass" : "newobj",
									"numinlets" : 2,
									"numoutlets" : 1,
									"outlettype" : [ "" ],
									"patching_rect" : [ 966.776183999999944, 411.169281000000012, 64.0, 18.0 ],
									"text" : "speedlim 50"
								}

							}
, 							{
								"box" : 								{
									"fontname" : "Arial",
									"fontsize" : 10.0,
									"id" : "obj-181",
									"maxclass" : "newobj",
									"numinlets" : 1,
									"numoutlets" : 2,
									"outlettype" : [ "int", "int" ],
									"patching_rect" : [ 217.671966999999995, 614.695679000000041, 32.5, 18.0 ],
									"text" : "t i i"
								}

							}
, 							{
								"box" : 								{
									"fontname" : "Arial",
									"fontsize" : 10.0,
									"id" : "obj-184",
									"maxclass" : "newobj",
									"numinlets" : 3,
									"numoutlets" : 3,
									"outlettype" : [ "bang", "bang", "" ],
									"patching_rect" : [ 162.668396000000001, 700.941527999999948, 74.003540000000001, 18.0 ],
									"text" : "sel 0 1"
								}

							}
, 							{
								"box" : 								{
									"fontname" : "Arial",
									"fontsize" : 10.0,
									"id" : "obj-186",
									"maxclass" : "newobj",
									"numinlets" : 5,
									"numoutlets" : 4,
									"outlettype" : [ "int", "", "", "int" ],
									"patching_rect" : [ 162.668396000000001, 672.512329000000022, 74.003540000000001, 18.0 ],
									"text" : "counter 0 0 1"
								}

							}
, 							{
								"box" : 								{
									"fontname" : "Arial",
									"fontsize" : 10.0,
									"id" : "obj-187",
									"maxclass" : "newobj",
									"numinlets" : 1,
									"numoutlets" : 3,
									"outlettype" : [ "", "int", "int" ],
									"patching_rect" : [ 345.671936000000017, 787.363402999999948, 53.0, 18.0 ],
									"text" : "change 0"
								}

							}
, 							{
								"box" : 								{
									"fontname" : "Arial",
									"fontsize" : 10.0,
									"id" : "obj-188",
									"maxclass" : "newobj",
									"numinlets" : 2,
									"numoutlets" : 1,
									"outlettype" : [ "int" ],
									"patching_rect" : [ 345.671936000000017, 763.307495000000017, 35.0, 18.0 ],
									"text" : "!= 0."
								}

							}
, 							{
								"box" : 								{
									"fontname" : "Arial",
									"fontsize" : 10.0,
									"id" : "obj-222",
									"maxclass" : "newobj",
									"numinlets" : 1,
									"numoutlets" : 3,
									"outlettype" : [ "bang", "float", "float" ],
									"patching_rect" : [ 271.671966999999995, 718.522583000000054, 93.0, 18.0 ],
									"text" : "t b f f"
								}

							}
, 							{
								"box" : 								{
									"fontname" : "Arial",
									"fontsize" : 10.0,
									"id" : "obj-220",
									"maxclass" : "message",
									"numinlets" : 2,
									"numoutlets" : 1,
									"outlettype" : [ "" ],
									"patching_rect" : [ 345.671936000000017, 820.024536000000012, 50.0, 16.0 ],
									"text" : "mode $1"
								}

							}
, 							{
								"box" : 								{
									"fontname" : "Arial",
									"fontsize" : 10.0,
									"id" : "obj-208",
									"maxclass" : "newobj",
									"numinlets" : 1,
									"numoutlets" : 2,
									"outlettype" : [ "bang", "float" ],
									"patching_rect" : [ 289.045104999999978, 787.363402999999948, 37.0, 18.0 ],
									"text" : "t b f"
								}

							}
, 							{
								"box" : 								{
									"fontname" : "Arial",
									"fontsize" : 10.0,
									"id" : "obj-189",
									"maxclass" : "comment",
									"numinlets" : 1,
									"numoutlets" : 0,
									"patching_rect" : [ 236.671966999999995, 591.523559999999975, 227.0, 18.0 ],
									"text" : "draw lines to the points already drawn in function"
								}

							}
, 							{
								"box" : 								{
									"fontname" : "Arial",
									"fontsize" : 10.0,
									"id" : "obj-190",
									"maxclass" : "newobj",
									"numinlets" : 3,
									"numoutlets" : 1,
									"outlettype" : [ "" ],
									"patching_rect" : [ 198.671966999999995, 820.024536000000012, 84.0, 18.0 ],
									"text" : "pack setcurve i f"
								}

							}
, 							{
								"box" : 								{
									"fontname" : "Arial",
									"fontsize" : 10.0,
									"id" : "obj-191",
									"maxclass" : "newobj",
									"numinlets" : 2,
									"numoutlets" : 3,
									"outlettype" : [ "bang", "bang", "int" ],
									"patching_rect" : [ 162.668396000000001, 591.523559999999975, 74.003570999999994, 18.0 ],
									"text" : "uzi"
								}

							}
, 							{
								"box" : 								{
									"fontname" : "Arial",
									"fontsize" : 10.0,
									"id" : "obj-192",
									"maxclass" : "comment",
									"numinlets" : 1,
									"numoutlets" : 0,
									"patching_rect" : [ 364.671936000000017, 718.522583000000054, 72.0, 18.0 ],
									"text" : "curve amount"
								}

							}
, 							{
								"box" : 								{
									"fontname" : "Arial",
									"fontsize" : 10.0,
									"id" : "obj-193",
									"maxclass" : "newobj",
									"numinlets" : 2,
									"numoutlets" : 1,
									"outlettype" : [ "float" ],
									"patching_rect" : [ 289.045104999999978, 763.307495000000017, 39.0, 18.0 ],
									"text" : "* 0."
								}

							}
, 							{
								"box" : 								{
									"fontname" : "Arial",
									"fontsize" : 10.0,
									"id" : "obj-194",
									"maxclass" : "newobj",
									"numinlets" : 2,
									"numoutlets" : 1,
									"outlettype" : [ "int" ],
									"patching_rect" : [ 217.671966999999995, 552.535766999999964, 32.5, 18.0 ],
									"text" : "- 1"
								}

							}
, 							{
								"box" : 								{
									"fontname" : "Arial",
									"fontsize" : 10.0,
									"id" : "obj-195",
									"maxclass" : "newobj",
									"numinlets" : 2,
									"numoutlets" : 1,
									"outlettype" : [ "int" ],
									"patching_rect" : [ 217.671966999999995, 526.588256999999999, 32.5, 18.0 ],
									"text" : "/ 2"
								}

							}
, 							{
								"box" : 								{
									"fontname" : "Arial",
									"fontsize" : 10.0,
									"id" : "obj-196",
									"maxclass" : "newobj",
									"numinlets" : 2,
									"numoutlets" : 2,
									"outlettype" : [ "", "" ],
									"patching_rect" : [ 217.671966999999995, 502.535797000000002, 34.0, 18.0 ],
									"text" : "zl len"
								}

							}
, 							{
								"box" : 								{
									"fontname" : "Arial",
									"fontsize" : 10.0,
									"id" : "obj-198",
									"maxclass" : "newobj",
									"numinlets" : 1,
									"numoutlets" : 4,
									"outlettype" : [ "bang", "", "", "clear" ],
									"patching_rect" : [ 162.668396000000001, 477.633636000000024, 184.010712000000012, 18.0 ],
									"text" : "t b l l clear"
								}

							}
, 							{
								"box" : 								{
									"fontname" : "Arial",
									"fontsize" : 10.0,
									"id" : "obj-199",
									"maxclass" : "newobj",
									"numinlets" : 1,
									"numoutlets" : 2,
									"outlettype" : [ "listdump", "bang" ],
									"patching_rect" : [ 502.203979000000004, 292.892578000000015, 62.0, 18.0 ],
									"text" : "t listdump b"
								}

							}
, 							{
								"box" : 								{
									"fontname" : "Arial",
									"fontsize" : 10.0,
									"id" : "obj-200",
									"maxclass" : "newobj",
									"numinlets" : 2,
									"numoutlets" : 2,
									"outlettype" : [ "", "" ],
									"patching_rect" : [ 272.67553700000002, 502.535797000000002, 43.0, 18.0 ],
									"text" : "zl iter 2"
								}

							}
, 							{
								"box" : 								{
									"fontname" : "Arial",
									"fontsize" : 10.0,
									"id" : "obj-201",
									"maxclass" : "newobj",
									"numinlets" : 1,
									"numoutlets" : 2,
									"outlettype" : [ "listdump", "bang" ],
									"patching_rect" : [ 350.203857000000028, 292.892578000000015, 62.0, 18.0 ],
									"text" : "t listdump b"
								}

							}
, 							{
								"box" : 								{
									"addpoints" : [ 0.0, 537.810973999999987, 0, 389.067993000000001, 988.84997599999997, 0, 510.481994999999984, 1654.245971999999938, 0, 566.31500200000005, 1865.128052000000025, 0, 625.778992000000017, 115.892998000000006, 0, 642.818970000000036, 280.915008999999998, 0, 837.09997599999997, 2080.468993999999839, 0, 1048.567017000000078, 547.34997599999997, 0, 1268.255004999999983, 2472.035889000000225, 0, 1629.76293899999996, 2525.229980000000069, 0, 1655.192017000000078, 433.36099200000001, 0, 1902.991942999999992, 1370.535033999999996, 0, 2048.0, 2027.522948999999926, 0 ],
									"bgcolor" : [ 1.0, 1.0, 1.0, 1.0 ],
									"classic_curve" : 1,
									"domain" : 2048.0,
									"gridcolor" : [ 0.5, 0.5, 0.5, 0.5 ],
									"id" : "obj-202",
									"linecolor" : [ 0.33, 0.33, 0.33, 1.0 ],
									"maxclass" : "function",
									"numinlets" : 1,
									"numoutlets" : 4,
									"outlettype" : [ "float", "", "", "bang" ],
									"parameter_enable" : 0,
									"patching_rect" : [ 249.410156000000001, 372.233123999999975, 100.0, 53.40625 ],
									"range" : [ 0.0, 5000.0 ]
								}

							}
, 							{
								"box" : 								{
									"addpoints" : [ 0.0, 2507.864990000000034, 0, 59.842998999999999, 41.293998999999999, 0, 364.252013999999974, 2074.479980000000069, 0, 846.836975000000052, 866.276977999999986, 0, 872.80999799999995, 1265.94103999999993, 0, 923.68499799999995, 306.878998000000024, 0, 1255.765014999999948, 1396.18994100000009, 0, 1352.062987999999905, 415.222991999999977, 0, 1555.488037000000077, 1160.703003000000081, 0, 1785.743042000000059, 2056.719970999999987, 0, 1838.552001999999902, 2451.684082000000217, 0, 1858.839966000000004, 299.766998000000001, 0, 2048.0, 951.468018000000029, 0 ],
									"bgcolor" : [ 1.0, 1.0, 1.0, 1.0 ],
									"classic_curve" : 1,
									"domain" : 2048.0,
									"gridcolor" : [ 0.5, 0.5, 0.5, 0.5 ],
									"id" : "obj-203",
									"linecolor" : [ 0.33, 0.33, 0.33, 1.0 ],
									"maxclass" : "function",
									"numinlets" : 1,
									"numoutlets" : 4,
									"outlettype" : [ "float", "", "", "bang" ],
									"parameter_enable" : 0,
									"patching_rect" : [ 130.168396000000001, 372.233123999999975, 100.0, 53.40625 ],
									"range" : [ 0.0, 5000.0 ]
								}

							}
, 							{
								"box" : 								{
									"fontname" : "Arial",
									"fontsize" : 10.0,
									"id" : "obj-204",
									"maxclass" : "newobj",
									"numinlets" : 1,
									"numoutlets" : 3,
									"outlettype" : [ "int", "float", "int" ],
									"patching_rect" : [ 950.776183999999944, 327.420135000000016, 51.0, 18.0 ],
									"text" : "t i f i"
								}

							}
, 							{
								"box" : 								{
									"fontname" : "Arial",
									"fontsize" : 10.0,
									"id" : "obj-205",
									"maxclass" : "newobj",
									"numinlets" : 1,
									"numoutlets" : 2,
									"outlettype" : [ "", "" ],
									"patching_rect" : [ 350.203857000000028, 270.353148999999974, 171.0, 18.0 ],
									"text" : "if $i1 == 0 then bang else out2 bang"
								}

							}
, 							{
								"box" : 								{
									"fontname" : "Arial",
									"fontsize" : 10.0,
									"id" : "obj-206",
									"maxclass" : "number",
									"numinlets" : 1,
									"numoutlets" : 2,
									"outlettype" : [ "", "bang" ],
									"parameter_enable" : 0,
									"patching_rect" : [ 950.776183999999944, 303.37802099999999, 50.0, 18.0 ]
								}

							}
, 							{
								"box" : 								{
									"fontname" : "Arial",
									"fontsize" : 10.0,
									"id" : "obj-209",
									"maxclass" : "newobj",
									"numinlets" : 1,
									"numoutlets" : 2,
									"outlettype" : [ "int", "int" ],
									"patching_rect" : [ 753.824463000000037, 100.0, 53.0, 18.0 ],
									"text" : "t i i"
								}

							}
, 							{
								"box" : 								{
									"fontname" : "Arial",
									"fontsize" : 10.0,
									"id" : "obj-211",
									"maxclass" : "newobj",
									"numinlets" : 5,
									"numoutlets" : 4,
									"outlettype" : [ "int", "", "", "int" ],
									"patching_rect" : [ 950.776183999999944, 280.999755999999991, 81.0, 18.0 ],
									"text" : "counter 0 0 1"
								}

							}
, 							{
								"box" : 								{
									"fontname" : "Arial",
									"fontsize" : 10.0,
									"id" : "obj-214",
									"maxclass" : "newobj",
									"numinlets" : 2,
									"numoutlets" : 1,
									"outlettype" : [ "" ],
									"patching_rect" : [ 966.776183999999944, 353.408905000000004, 83.0, 18.0 ],
									"text" : "pack 1. 2000"
								}

							}
, 							{
								"box" : 								{
									"fontname" : "Arial",
									"fontsize" : 10.0,
									"id" : "obj-215",
									"maxclass" : "newobj",
									"numinlets" : 3,
									"numoutlets" : 2,
									"outlettype" : [ "", "bang" ],
									"patching_rect" : [ 966.776183999999944, 385.57650799999999, 51.0, 18.0 ],
									"text" : "line 0. 20"
								}

							}
, 							{
								"box" : 								{
									"color" : [ 0.843137, 0.741176, 0.431373, 1.0 ],
									"fontname" : "Arial",
									"fontsize" : 10.0,
									"id" : "obj-216",
									"maxclass" : "newobj",
									"numinlets" : 1,
									"numoutlets" : 1,
									"outlettype" : [ "" ],
									"patching_rect" : [ 249.410156000000001, 334.69296300000002, 97.0, 18.0 ],
									"text" : "yk.randomFunction"
								}

							}
, 							{
								"box" : 								{
									"color" : [ 0.831373, 0.682353, 0.34902, 1.0 ],
									"fontname" : "Arial",
									"fontsize" : 10.0,
									"id" : "obj-217",
									"maxclass" : "newobj",
									"numinlets" : 3,
									"numoutlets" : 1,
									"outlettype" : [ "" ],
									"patching_rect" : [ 162.668396000000001, 450.996185000000025, 61.0, 18.0 ],
									"text" : "yk.listinterp"
								}

							}
, 							{
								"box" : 								{
									"color" : [ 0.831373, 0.682353, 0.34902, 1.0 ],
									"fontname" : "Arial",
									"fontsize" : 10.0,
									"id" : "obj-219",
									"maxclass" : "newobj",
									"numinlets" : 1,
									"numoutlets" : 1,
									"outlettype" : [ "" ],
									"patching_rect" : [ 130.168396000000001, 250.545806999999996, 42.0, 18.0 ],
									"text" : "yk.thru"
								}

							}
, 							{
								"box" : 								{
									"color" : [ 0.843137, 0.741176, 0.431373, 1.0 ],
									"fontname" : "Arial",
									"fontsize" : 10.0,
									"id" : "obj-245",
									"maxclass" : "newobj",
									"numinlets" : 1,
									"numoutlets" : 1,
									"outlettype" : [ "" ],
									"patching_rect" : [ 130.168396000000001, 334.69296300000002, 97.0, 18.0 ],
									"text" : "yk.randomFunction"
								}

							}
, 							{
								"box" : 								{
									"comment" : "",
									"id" : "obj-17",
									"index" : 1,
									"maxclass" : "inlet",
									"numinlets" : 0,
									"numoutlets" : 1,
									"outlettype" : [ "" ],
									"patching_rect" : [ 50.0, 65.0, 25.0, 25.0 ]
								}

							}
, 							{
								"box" : 								{
									"comment" : "",
									"id" : "obj-18",
									"index" : 2,
									"maxclass" : "inlet",
									"numinlets" : 0,
									"numoutlets" : 1,
									"outlettype" : [ "bang" ],
									"patching_rect" : [ 570.033569000000057, 65.0, 25.0, 25.0 ]
								}

							}
, 							{
								"box" : 								{
									"comment" : "",
									"id" : "obj-21",
									"index" : 3,
									"maxclass" : "inlet",
									"numinlets" : 0,
									"numoutlets" : 1,
									"outlettype" : [ "" ],
									"patching_rect" : [ 753.824463000000037, 65.0, 25.0, 25.0 ]
								}

							}
, 							{
								"box" : 								{
									"comment" : "",
									"id" : "obj-22",
									"index" : 4,
									"maxclass" : "inlet",
									"numinlets" : 0,
									"numoutlets" : 1,
									"outlettype" : [ "" ],
									"patching_rect" : [ 967.776183999999944, 65.0, 25.0, 25.0 ]
								}

							}
, 							{
								"box" : 								{
									"comment" : "",
									"id" : "obj-24",
									"index" : 1,
									"maxclass" : "outlet",
									"numinlets" : 1,
									"numoutlets" : 0,
									"patching_rect" : [ 502.203979000000004, 888.423584000000005, 25.0, 25.0 ]
								}

							}
 ],
						"lines" : [ 							{
								"patchline" : 								{
									"destination" : [ "obj-219", 0 ],
									"midpoints" : [ 737.533569000000057, 234.958281999999997, 139.668396000000001, 234.958281999999997 ],
									"source" : [ "obj-1", 2 ]
								}

							}
, 							{
								"patchline" : 								{
									"color" : [ 0.811765, 0.372549, 0.372549, 1.0 ],
									"destination" : [ "obj-222", 0 ],
									"midpoints" : [ 658.533569000000057, 702.085938000000056, 281.171966999999995, 702.085938000000056 ],
									"source" : [ "obj-1", 1 ]
								}

							}
, 							{
								"patchline" : 								{
									"destination" : [ "obj-268", 0 ],
									"source" : [ "obj-1", 0 ]
								}

							}
, 							{
								"patchline" : 								{
									"destination" : [ "obj-186", 2 ],
									"source" : [ "obj-14", 0 ]
								}

							}
, 							{
								"patchline" : 								{
									"destination" : [ "obj-193", 0 ],
									"midpoints" : [ 172.168396000000001, 754.62988299999995, 298.545104999999978, 754.62988299999995 ],
									"source" : [ "obj-15", 0 ]
								}

							}
, 							{
								"patchline" : 								{
									"destination" : [ "obj-193", 0 ],
									"midpoints" : [ 199.670165999999995, 754.62988299999995, 298.545104999999978, 754.62988299999995 ],
									"source" : [ "obj-16", 0 ]
								}

							}
, 							{
								"patchline" : 								{
									"destination" : [ "obj-162", 0 ],
									"source" : [ "obj-160", 0 ]
								}

							}
, 							{
								"patchline" : 								{
									"color" : [ 0.463055, 0.463126, 0.463021, 1.0 ],
									"destination" : [ "obj-217", 1 ],
									"midpoints" : [ 73.0, 437.817902000000004, 193.168396000000001, 437.817902000000004 ],
									"source" : [ "obj-162", 0 ]
								}

							}
, 							{
								"patchline" : 								{
									"destination" : [ "obj-170", 0 ],
									"midpoints" : [ 809.97961399999997, 147.344024999999988, 878.789612000000034, 147.344024999999988 ],
									"source" : [ "obj-166", 1 ]
								}

							}
, 							{
								"patchline" : 								{
									"destination" : [ "obj-352", 0 ],
									"source" : [ "obj-166", 0 ]
								}

							}
, 							{
								"patchline" : 								{
									"destination" : [ "obj-60", 0 ],
									"source" : [ "obj-17", 0 ]
								}

							}
, 							{
								"patchline" : 								{
									"color" : [ 0.372549, 0.458824, 0.811765, 1.0 ],
									"destination" : [ "obj-24", 0 ],
									"midpoints" : [ 878.789612000000034, 876.378295999999978, 511.703979000000004, 876.378295999999978 ],
									"source" : [ "obj-170", 0 ]
								}

							}
, 							{
								"patchline" : 								{
									"color" : [ 0.372549, 0.458824, 0.811765, 1.0 ],
									"destination" : [ "obj-24", 0 ],
									"midpoints" : [ 337.179138000000023, 570.477600000000052, 511.703979000000004, 570.477600000000052 ],
									"source" : [ "obj-173", 0 ]
								}

							}
, 							{
								"patchline" : 								{
									"color" : [ 0.372549, 0.458824, 0.811765, 1.0 ],
									"destination" : [ "obj-24", 0 ],
									"midpoints" : [ 208.171966999999995, 876.923523000000046, 511.703979000000004, 876.923523000000046 ],
									"source" : [ "obj-176", 0 ]
								}

							}
, 							{
								"patchline" : 								{
									"destination" : [ "obj-2", 1 ],
									"source" : [ "obj-179", 0 ]
								}

							}
, 							{
								"patchline" : 								{
									"destination" : [ "obj-214", 1 ],
									"midpoints" : [ 998.276183999999944, 251.947478999999987, 1040.27618399999983, 251.947478999999987 ],
									"source" : [ "obj-179", 1 ]
								}

							}
, 							{
								"patchline" : 								{
									"destination" : [ "obj-1", 0 ],
									"source" : [ "obj-18", 0 ]
								}

							}
, 							{
								"patchline" : 								{
									"destination" : [ "obj-217", 0 ],
									"midpoints" : [ 976.276183999999944, 445.039642000000015, 172.168396000000001, 445.039642000000015 ],
									"source" : [ "obj-180", 0 ]
								}

							}
, 							{
								"patchline" : 								{
									"destination" : [ "obj-186", 0 ],
									"midpoints" : [ 227.171966999999995, 638.90625, 172.168396000000001, 638.90625 ],
									"source" : [ "obj-181", 0 ]
								}

							}
, 							{
								"patchline" : 								{
									"color" : [ 0.463055, 0.463126, 0.463021, 1.0 ],
									"destination" : [ "obj-190", 1 ],
									"source" : [ "obj-181", 1 ]
								}

							}
, 							{
								"patchline" : 								{
									"destination" : [ "obj-15", 0 ],
									"source" : [ "obj-184", 0 ]
								}

							}
, 							{
								"patchline" : 								{
									"destination" : [ "obj-16", 0 ],
									"source" : [ "obj-184", 1 ]
								}

							}
, 							{
								"patchline" : 								{
									"destination" : [ "obj-184", 0 ],
									"source" : [ "obj-186", 0 ]
								}

							}
, 							{
								"patchline" : 								{
									"destination" : [ "obj-220", 0 ],
									"source" : [ "obj-187", 0 ]
								}

							}
, 							{
								"patchline" : 								{
									"destination" : [ "obj-187", 0 ],
									"source" : [ "obj-188", 0 ]
								}

							}
, 							{
								"patchline" : 								{
									"destination" : [ "obj-176", 0 ],
									"source" : [ "obj-190", 0 ]
								}

							}
, 							{
								"patchline" : 								{
									"destination" : [ "obj-14", 0 ],
									"source" : [ "obj-191", 1 ]
								}

							}
, 							{
								"patchline" : 								{
									"destination" : [ "obj-181", 0 ],
									"source" : [ "obj-191", 2 ]
								}

							}
, 							{
								"patchline" : 								{
									"destination" : [ "obj-208", 0 ],
									"source" : [ "obj-193", 0 ]
								}

							}
, 							{
								"patchline" : 								{
									"destination" : [ "obj-191", 1 ],
									"source" : [ "obj-194", 0 ]
								}

							}
, 							{
								"patchline" : 								{
									"destination" : [ "obj-194", 0 ],
									"source" : [ "obj-195", 0 ]
								}

							}
, 							{
								"patchline" : 								{
									"destination" : [ "obj-195", 0 ],
									"source" : [ "obj-196", 0 ]
								}

							}
, 							{
								"patchline" : 								{
									"destination" : [ "obj-173", 0 ],
									"source" : [ "obj-198", 3 ]
								}

							}
, 							{
								"patchline" : 								{
									"color" : [ 0.463055, 0.463126, 0.463021, 1.0 ],
									"destination" : [ "obj-191", 0 ],
									"source" : [ "obj-198", 0 ]
								}

							}
, 							{
								"patchline" : 								{
									"destination" : [ "obj-196", 0 ],
									"source" : [ "obj-198", 1 ]
								}

							}
, 							{
								"patchline" : 								{
									"destination" : [ "obj-200", 0 ],
									"source" : [ "obj-198", 2 ]
								}

							}
, 							{
								"patchline" : 								{
									"color" : [ 0.811765, 0.372549, 0.372549, 1.0 ],
									"destination" : [ "obj-202", 0 ],
									"midpoints" : [ 511.703979000000004, 366.848358000000019, 258.910156000000029, 366.848358000000019 ],
									"source" : [ "obj-199", 0 ]
								}

							}
, 							{
								"patchline" : 								{
									"color" : [ 0.811765, 0.372549, 0.372549, 1.0 ],
									"destination" : [ "obj-216", 0 ],
									"midpoints" : [ 554.703979000000004, 326.390899999999988, 258.910156000000029, 326.390899999999988 ],
									"source" : [ "obj-199", 1 ]
								}

							}
, 							{
								"patchline" : 								{
									"color" : [ 0.463055, 0.463126, 0.463021, 1.0 ],
									"destination" : [ "obj-211", 0 ],
									"source" : [ "obj-2", 0 ]
								}

							}
, 							{
								"patchline" : 								{
									"destination" : [ "obj-173", 0 ],
									"midpoints" : [ 282.17553700000002, 530.488158999999996, 337.179138000000023, 530.488158999999996 ],
									"source" : [ "obj-200", 0 ]
								}

							}
, 							{
								"patchline" : 								{
									"color" : [ 0.372549, 0.458824, 0.811765, 1.0 ],
									"destination" : [ "obj-203", 0 ],
									"midpoints" : [ 359.703857000000028, 360.053252999999984, 139.668396000000001, 360.053252999999984 ],
									"source" : [ "obj-201", 0 ]
								}

							}
, 							{
								"patchline" : 								{
									"color" : [ 0.372549, 0.458824, 0.811765, 1.0 ],
									"destination" : [ "obj-245", 0 ],
									"midpoints" : [ 402.703857000000028, 318.877716000000021, 139.668396000000001, 318.877716000000021 ],
									"source" : [ "obj-201", 1 ]
								}

							}
, 							{
								"patchline" : 								{
									"color" : [ 0.463055, 0.463126, 0.463021, 1.0 ],
									"destination" : [ "obj-217", 2 ],
									"midpoints" : [ 312.910156000000029, 437.817902000000004, 214.168396000000001, 437.817902000000004 ],
									"source" : [ "obj-202", 2 ]
								}

							}
, 							{
								"patchline" : 								{
									"color" : [ 0.463055, 0.463126, 0.463021, 1.0 ],
									"destination" : [ "obj-217", 1 ],
									"source" : [ "obj-203", 2 ]
								}

							}
, 							{
								"patchline" : 								{
									"color" : [ 0.463055, 0.463126, 0.463021, 1.0 ],
									"destination" : [ "obj-205", 0 ],
									"midpoints" : [ 960.276183999999944, 358.443329000000006, 580.281006000000048, 358.443329000000006, 580.281006000000048, 256.804230000000018, 359.703857000000028, 256.804230000000018 ],
									"source" : [ "obj-204", 0 ]
								}

							}
, 							{
								"patchline" : 								{
									"destination" : [ "obj-214", 0 ],
									"source" : [ "obj-204", 1 ]
								}

							}
, 							{
								"patchline" : 								{
									"destination" : [ "obj-199", 0 ],
									"source" : [ "obj-205", 1 ]
								}

							}
, 							{
								"patchline" : 								{
									"destination" : [ "obj-201", 0 ],
									"source" : [ "obj-205", 0 ]
								}

							}
, 							{
								"patchline" : 								{
									"destination" : [ "obj-204", 0 ],
									"source" : [ "obj-206", 0 ]
								}

							}
, 							{
								"patchline" : 								{
									"destination" : [ "obj-190", 2 ],
									"midpoints" : [ 316.545104999999978, 815.79199200000005, 273.171966999999995, 815.79199200000005 ],
									"source" : [ "obj-208", 1 ]
								}

							}
, 							{
								"patchline" : 								{
									"destination" : [ "obj-190", 0 ],
									"midpoints" : [ 298.545104999999978, 811.129638999999997, 208.171966999999995, 811.129638999999997 ],
									"source" : [ "obj-208", 0 ]
								}

							}
, 							{
								"patchline" : 								{
									"destination" : [ "obj-166", 0 ],
									"source" : [ "obj-209", 1 ]
								}

							}
, 							{
								"patchline" : 								{
									"color" : [ 0.463055, 0.463126, 0.463021, 1.0 ],
									"destination" : [ "obj-2", 0 ],
									"midpoints" : [ 763.324463000000037, 226.471465999999992, 960.276183999999944, 226.471465999999992 ],
									"source" : [ "obj-209", 0 ]
								}

							}
, 							{
								"patchline" : 								{
									"destination" : [ "obj-209", 0 ],
									"source" : [ "obj-21", 0 ]
								}

							}
, 							{
								"patchline" : 								{
									"destination" : [ "obj-206", 0 ],
									"source" : [ "obj-211", 0 ]
								}

							}
, 							{
								"patchline" : 								{
									"destination" : [ "obj-215", 0 ],
									"source" : [ "obj-214", 0 ]
								}

							}
, 							{
								"patchline" : 								{
									"destination" : [ "obj-180", 0 ],
									"source" : [ "obj-215", 0 ]
								}

							}
, 							{
								"patchline" : 								{
									"color" : [ 0.811765, 0.372549, 0.372549, 1.0 ],
									"destination" : [ "obj-202", 0 ],
									"source" : [ "obj-216", 0 ]
								}

							}
, 							{
								"patchline" : 								{
									"destination" : [ "obj-198", 0 ],
									"source" : [ "obj-217", 0 ]
								}

							}
, 							{
								"patchline" : 								{
									"color" : [ 0.811765, 0.372549, 0.372549, 1.0 ],
									"destination" : [ "obj-216", 0 ],
									"midpoints" : [ 139.668396000000001, 275.605743000000018, 258.910156000000029, 275.605743000000018 ],
									"order" : 0,
									"source" : [ "obj-219", 0 ]
								}

							}
, 							{
								"patchline" : 								{
									"color" : [ 0.372549, 0.458824, 0.811765, 1.0 ],
									"destination" : [ "obj-245", 0 ],
									"order" : 1,
									"source" : [ "obj-219", 0 ]
								}

							}
, 							{
								"patchline" : 								{
									"destination" : [ "obj-179", 0 ],
									"source" : [ "obj-22", 0 ]
								}

							}
, 							{
								"patchline" : 								{
									"destination" : [ "obj-176", 0 ],
									"midpoints" : [ 355.171936000000017, 842.83764599999995, 208.171966999999995, 842.83764599999995 ],
									"source" : [ "obj-220", 0 ]
								}

							}
, 							{
								"patchline" : 								{
									"destination" : [ "obj-188", 0 ],
									"source" : [ "obj-222", 2 ]
								}

							}
, 							{
								"patchline" : 								{
									"color" : [ 0.463055, 0.463126, 0.463021, 1.0 ],
									"destination" : [ "obj-191", 0 ],
									"midpoints" : [ 281.171966999999995, 744.921631000000048, 466.274230999999986, 744.921631000000048, 466.274230999999986, 581.162841999999955, 172.168396000000001, 581.162841999999955 ],
									"source" : [ "obj-222", 0 ]
								}

							}
, 							{
								"patchline" : 								{
									"destination" : [ "obj-193", 1 ],
									"source" : [ "obj-222", 1 ]
								}

							}
, 							{
								"patchline" : 								{
									"color" : [ 0.372549, 0.458824, 0.811765, 1.0 ],
									"destination" : [ "obj-203", 0 ],
									"source" : [ "obj-245", 0 ]
								}

							}
, 							{
								"patchline" : 								{
									"destination" : [ "obj-275", 0 ],
									"source" : [ "obj-268", 1 ]
								}

							}
, 							{
								"patchline" : 								{
									"destination" : [ "obj-296", 0 ],
									"source" : [ "obj-268", 0 ]
								}

							}
, 							{
								"patchline" : 								{
									"destination" : [ "obj-219", 0 ],
									"midpoints" : [ 612.976195999999959, 234.375763000000006, 139.668396000000001, 234.375763000000006 ],
									"source" : [ "obj-275", 0 ]
								}

							}
, 							{
								"patchline" : 								{
									"color" : [ 0.463055, 0.463126, 0.463021, 1.0 ],
									"destination" : [ "obj-205", 0 ],
									"midpoints" : [ 579.533569000000057, 257.006775000000005, 359.703857000000028, 257.006775000000005 ],
									"source" : [ "obj-296", 0 ]
								}

							}
, 							{
								"patchline" : 								{
									"destination" : [ "obj-211", 2 ],
									"midpoints" : [ 853.47961399999997, 273.798614999999984, 991.276183999999944, 273.798614999999984 ],
									"source" : [ "obj-352", 1 ]
								}

							}
, 							{
								"patchline" : 								{
									"destination" : [ "obj-66", 0 ],
									"source" : [ "obj-352", 0 ]
								}

							}
, 							{
								"patchline" : 								{
									"destination" : [ "obj-162", 0 ],
									"midpoints" : [ 59.5, 400.737457000000006, 73.0, 400.737457000000006 ],
									"source" : [ "obj-60", 0 ]
								}

							}
, 							{
								"patchline" : 								{
									"destination" : [ "obj-68", 0 ],
									"source" : [ "obj-60", 1 ]
								}

							}
, 							{
								"patchline" : 								{
									"destination" : [ "obj-215", 0 ],
									"midpoints" : [ 796.47961399999997, 379.037506000000008, 976.276183999999944, 379.037506000000008 ],
									"source" : [ "obj-66", 0 ]
								}

							}
, 							{
								"patchline" : 								{
									"destination" : [ "obj-160", 0 ],
									"source" : [ "obj-68", 0 ]
								}

							}
 ]
					}
,
					"patching_rect" : [ 284.795309245586395, 642.10523521900177, 365.278706312179565, 25.0 ],
					"saved_object_attributes" : 					{
						"description" : "",
						"digest" : "",
						"fontsize" : 10.0,
						"globalpatchername" : "",
						"tags" : ""
					}
,
					"style" : "YKStyle_Object_Yellow",
					"text" : "p interp"
				}

			}
, 			{
				"box" : 				{
					"id" : "obj-13",
					"maxclass" : "newobj",
					"numinlets" : 1,
					"numoutlets" : 2,
					"outlettype" : [ "bang", "bang" ],
					"patching_rect" : [ 284.795309245586395, 274.26899391412735, 134.426235437393188, 25.0 ],
					"style" : "YKStyle_Object_Yellow",
					"text" : "yk.thru2"
				}

			}
, 			{
				"box" : 				{
					"id" : "obj-11",
					"maxclass" : "newobj",
					"numinlets" : 1,
					"numoutlets" : 1,
					"outlettype" : [ "bang" ],
					"patching_rect" : [ 932.748497426509857, 181.286541819572449, 62.0, 25.0 ],
					"text" : "loadbang"
				}

			}
, 			{
				"box" : 				{
					"id" : "obj-8",
					"maxclass" : "message",
					"numinlets" : 2,
					"numoutlets" : 1,
					"outlettype" : [ "" ],
					"patching_rect" : [ 932.748497426509857, 212.865487813949585, 265.0, 25.0 ],
					"text" : "domain 2048., min 0., max 5000., edgeRand 1"
				}

			}
, 			{
				"box" : 				{
					"id" : "obj-164",
					"maxclass" : "newobj",
					"numinlets" : 1,
					"numoutlets" : 1,
					"outlettype" : [ "bang" ],
					"patching_rect" : [ 438.596472144126892, 274.26899391412735, 62.0, 25.0 ],
					"text" : "loadbang"
				}

			}
, 			{
				"box" : 				{
					"id" : "obj-163",
					"maxclass" : "message",
					"numinlets" : 2,
					"numoutlets" : 1,
					"outlettype" : [ "" ],
					"patching_rect" : [ 438.596472144126892, 313.450278759002686, 289.0, 25.0 ],
					"text" : "clear, mode 1, setdomain 2047., setrange 0. 5000."
				}

			}
, 			{
				"box" : 				{
					"id" : "obj-19",
					"maxclass" : "newobj",
					"numinlets" : 1,
					"numoutlets" : 2,
					"outlettype" : [ "trig", "bang" ],
					"patching_rect" : [ 94.15204268693924, 212.865487813949585, 46.0, 25.0 ],
					"text" : "t trig b"
				}

			}
, 			{
				"box" : 				{
					"id" : "obj-12",
					"maxclass" : "newobj",
					"numinlets" : 1,
					"numoutlets" : 0,
					"patching_rect" : [ 94.15204268693924, 274.26899391412735, 92.0, 25.0 ],
					"style" : "YKStyle_Object_Blue",
					"text" : "s #0_dumpOut"
				}

			}
, 			{
				"box" : 				{
					"id" : "obj-223",
					"maxclass" : "newobj",
					"numinlets" : 1,
					"numoutlets" : 2,
					"outlettype" : [ "bang", "int" ],
					"patching_rect" : [ 274.26899391412735, 121.052626311779022, 30.0, 25.0 ],
					"text" : "t b i"
				}

			}
, 			{
				"box" : 				{
					"color" : [ 0.811765, 0.372549, 0.372549, 1.0 ],
					"id" : "obj-172",
					"maxclass" : "newobj",
					"numinlets" : 0,
					"numoutlets" : 1,
					"outlettype" : [ "" ],
					"patching_rect" : [ 649.98242598772049, 564.912256121635437, 156.0, 25.0 ],
					"text" : "r #1_randBPFInterpPeriod"
				}

			}
, 			{
				"box" : 				{
					"id" : "obj-171",
					"maxclass" : "newobj",
					"numinlets" : 0,
					"numoutlets" : 1,
					"outlettype" : [ "" ],
					"patching_rect" : [ 515.789451241493225, 564.912256121635437, 120.0, 25.0 ],
					"style" : "YKStyle_Object_Red",
					"text" : "r #1_randBPFInterp"
				}

			}
, 			{
				"box" : 				{
					"id" : "obj-36",
					"maxclass" : "newobj",
					"numinlets" : 2,
					"numoutlets" : 1,
					"outlettype" : [ "" ],
					"patching_rect" : [ 284.795309245586395, 604.093540966510773, 34.0, 25.0 ],
					"text" : "gate"
				}

			}
, 			{
				"box" : 				{
					"id" : "obj-33",
					"maxclass" : "newobj",
					"numinlets" : 1,
					"numoutlets" : 3,
					"outlettype" : [ "int", "listdump", "int" ],
					"patching_rect" : [ 284.795309245586395, 408.771912038326263, 99.885245323181152, 25.0 ],
					"text" : "t 0 listdump 1"
				}

			}
, 			{
				"box" : 				{
					"id" : "obj-212",
					"maxclass" : "comment",
					"numinlets" : 1,
					"numoutlets" : 0,
					"patching_rect" : [ 649.98242598772049, 539.912256121635437, 148.0, 23.0 ],
					"text" : "interpolation period (ms)"
				}

			}
, 			{
				"box" : 				{
					"id" : "obj-213",
					"maxclass" : "number",
					"maximum" : 10000,
					"minimum" : 0,
					"numinlets" : 1,
					"numoutlets" : 2,
					"outlettype" : [ "", "bang" ],
					"parameter_enable" : 0,
					"patching_rect" : [ 649.98242598772049, 604.362326741218567, 55.0, 25.0 ],
					"presentation" : 1,
					"presentation_rect" : [ 310.226409999999987, 130.94551100000001, 49.0, 25.0 ],
					"varname" : "interpPeriod"
				}

			}
, 			{
				"box" : 				{
					"fontlink" : 1,
					"id" : "obj-70",
					"maxclass" : "textbutton",
					"mode" : 1,
					"numinlets" : 1,
					"numoutlets" : 3,
					"outlettype" : [ "", "", "int" ],
					"parameter_enable" : 0,
					"patching_rect" : [ 515.789451241493225, 604.678336262702942, 49.408004760742188, 24.36798095703125 ],
					"presentation" : 1,
					"presentation_rect" : [ 267.226440000000025, 130.94551100000001, 49.408004760742188, 24.36798095703125 ],
					"text" : "interp",
					"texton" : "interp",
					"varname" : "interp"
				}

			}
, 			{
				"box" : 				{
					"id" : "obj-37",
					"maxclass" : "newobj",
					"numinlets" : 2,
					"numoutlets" : 2,
					"outlettype" : [ "", "" ],
					"patching_rect" : [ 284.795309245586395, 370.175422489643097, 119.672136425971985, 25.0 ],
					"text" : "route sync"
				}

			}
, 			{
				"box" : 				{
					"fontname" : "Arial",
					"fontsize" : 10.0,
					"id" : "obj-63",
					"maxclass" : "comment",
					"numinlets" : 1,
					"numoutlets" : 0,
					"patching_rect" : [ 1185.964860677719116, 1444.444381594657898, 150.0, 18.0 ]
				}

			}
, 			{
				"box" : 				{
					"id" : "obj-87",
					"maxclass" : "newobj",
					"numinlets" : 0,
					"numoutlets" : 1,
					"outlettype" : [ "" ],
					"patching_rect" : [ 820.467800557613373, 146.783619344234467, 135.0, 25.0 ],
					"style" : "YKStyle_Object_Green",
					"text" : "yk.r #1_randBPFCurve",
					"varname" : "yk.r"
				}

			}
, 			{
				"box" : 				{
					"id" : "obj-86",
					"maxclass" : "newobj",
					"numinlets" : 0,
					"numoutlets" : 1,
					"outlettype" : [ "" ],
					"patching_rect" : [ 692.98242598772049, 146.783619344234467, 113.0, 25.0 ],
					"style" : "YKStyle_Object_Red",
					"text" : "r #1_randBPFHold"
				}

			}
, 			{
				"box" : 				{
					"id" : "obj-82",
					"maxclass" : "newobj",
					"numinlets" : 0,
					"numoutlets" : 1,
					"outlettype" : [ "" ],
					"patching_rect" : [ 543.859625458717346, 146.783619344234467, 139.0, 25.0 ],
					"style" : "YKStyle_Object_Red",
					"text" : "r #1_randBPFRandMax"
				}

			}
, 			{
				"box" : 				{
					"id" : "obj-81",
					"maxclass" : "newobj",
					"numinlets" : 0,
					"numoutlets" : 1,
					"outlettype" : [ "" ],
					"patching_rect" : [ 398.830392003059387, 146.783619344234467, 136.0, 25.0 ],
					"style" : "YKStyle_Object_Red",
					"text" : "r #1_randBPFRandMin"
				}

			}
, 			{
				"box" : 				{
					"id" : "obj-80",
					"maxclass" : "comment",
					"numinlets" : 1,
					"numoutlets" : 0,
					"patching_rect" : [ 94.15204268693924, 96.491223871707916, 112.0, 23.0 ],
					"text" : "randomization trig"
				}

			}
, 			{
				"box" : 				{
					"id" : "obj-75",
					"maxclass" : "newobj",
					"numinlets" : 0,
					"numoutlets" : 1,
					"outlettype" : [ "" ],
					"patching_rect" : [ 274.26899391412735, 53.216371953487396, 113.0, 25.0 ],
					"style" : "YKStyle_Object_Red",
					"text" : "r #1_randBPFNpts"
				}

			}
, 			{
				"box" : 				{
					"id" : "obj-71",
					"maxclass" : "newobj",
					"numinlets" : 0,
					"numoutlets" : 1,
					"outlettype" : [ "" ],
					"patching_rect" : [ 94.15204268693924, 121.052626311779022, 107.0, 25.0 ],
					"style" : "YKStyle_Object_Red",
					"text" : "r #1_randBPFTrig"
				}

			}
, 			{
				"box" : 				{
					"format" : 6,
					"id" : "obj-49",
					"maxclass" : "flonum",
					"maximum" : 1.0,
					"minimum" : -1.0,
					"numinlets" : 1,
					"numoutlets" : 2,
					"outlettype" : [ "", "bang" ],
					"parameter_enable" : 0,
					"patching_rect" : [ 820.467800557613373, 181.286541819572449, 55.0, 25.0 ],
					"presentation" : 1,
					"presentation_rect" : [ 310.226409999999987, 112.945510999999996, 49.0, 25.0 ],
					"varname" : "curve"
				}

			}
, 			{
				"box" : 				{
					"id" : "obj-44",
					"maxclass" : "comment",
					"numinlets" : 1,
					"numoutlets" : 0,
					"patching_rect" : [ 820.467800557613373, 122.222216904163361, 86.0, 23.0 ],
					"text" : "curve amount"
				}

			}
, 			{
				"box" : 				{
					"id" : "obj-47",
					"maxclass" : "message",
					"numinlets" : 2,
					"numoutlets" : 1,
					"outlettype" : [ "" ],
					"patching_rect" : [ 820.467800557613373, 212.865487813949585, 57.0, 25.0 ],
					"text" : "curve $1"
				}

			}
, 			{
				"box" : 				{
					"id" : "obj-45",
					"maxclass" : "comment",
					"numinlets" : 1,
					"numoutlets" : 0,
					"patching_rect" : [ 692.98242598772049, 122.222216904163361, 34.0, 23.0 ],
					"text" : "hold"
				}

			}
, 			{
				"box" : 				{
					"format" : 6,
					"hint" : "sample & hold probability",
					"id" : "obj-43",
					"maxclass" : "flonum",
					"maximum" : 1.0,
					"minimum" : 0.0,
					"numinlets" : 1,
					"numoutlets" : 2,
					"outlettype" : [ "", "bang" ],
					"parameter_enable" : 0,
					"patching_rect" : [ 692.98242598772049, 181.286541819572449, 55.0, 25.0 ],
					"presentation" : 1,
					"presentation_rect" : [ 215.54226700000001, 112.945510999999996, 48.0, 25.0 ],
					"varname" : "hold"
				}

			}
, 			{
				"box" : 				{
					"id" : "obj-41",
					"maxclass" : "message",
					"numinlets" : 2,
					"numoutlets" : 1,
					"outlettype" : [ "" ],
					"patching_rect" : [ 692.98242598772049, 212.865487813949585, 51.0, 25.0 ],
					"text" : "hold $1"
				}

			}
, 			{
				"box" : 				{
					"fontlink" : 1,
					"id" : "obj-23",
					"maxclass" : "textbutton",
					"numinlets" : 1,
					"numoutlets" : 3,
					"outlettype" : [ "", "", "int" ],
					"parameter_enable" : 0,
					"patching_rect" : [ 94.15204268693924, 171.345021784305573, 41.860000610351562, 24.36798095703125 ],
					"presentation" : 1,
					"presentation_rect" : [ 7.060657, 24.004725000000001, 41.860000610351562, 24.36798095703125 ],
					"text" : "rand",
					"texton" : "rand"
				}

			}
, 			{
				"box" : 				{
					"id" : "obj-108",
					"maxclass" : "comment",
					"numinlets" : 1,
					"numoutlets" : 0,
					"patching_rect" : [ 543.859625458717346, 122.222216904163361, 73.0, 23.0 ],
					"text" : "high thresh"
				}

			}
, 			{
				"box" : 				{
					"id" : "obj-110",
					"maxclass" : "comment",
					"numinlets" : 1,
					"numoutlets" : 0,
					"patching_rect" : [ 398.830392003059387, 122.222216904163361, 69.0, 23.0 ],
					"text" : "low thresh"
				}

			}
, 			{
				"box" : 				{
					"format" : 6,
					"hint" : "random BP high thresh",
					"id" : "obj-115",
					"maxclass" : "flonum",
					"numinlets" : 1,
					"numoutlets" : 2,
					"outlettype" : [ "", "bang" ],
					"parameter_enable" : 0,
					"patching_rect" : [ 543.859625458717346, 181.286541819572449, 55.0, 25.0 ],
					"presentation" : 1,
					"presentation_rect" : [ 310.226409999999987, 77.975112999999993, 49.0, 25.0 ],
					"varname" : "randMax"
				}

			}
, 			{
				"box" : 				{
					"format" : 6,
					"hint" : "random BP low thresh",
					"id" : "obj-116",
					"maxclass" : "flonum",
					"numinlets" : 1,
					"numoutlets" : 2,
					"outlettype" : [ "", "bang" ],
					"parameter_enable" : 0,
					"patching_rect" : [ 398.830392003059387, 181.286541819572449, 55.0, 25.0 ],
					"presentation" : 1,
					"presentation_rect" : [ 215.54226700000001, 77.975112999999993, 48.0, 25.0 ],
					"varname" : "randMin"
				}

			}
, 			{
				"box" : 				{
					"id" : "obj-123",
					"maxclass" : "message",
					"numinlets" : 2,
					"numoutlets" : 1,
					"outlettype" : [ "" ],
					"patching_rect" : [ 398.830392003059387, 212.865487813949585, 73.0, 25.0 ],
					"text" : "randMin $1"
				}

			}
, 			{
				"box" : 				{
					"id" : "obj-124",
					"maxclass" : "message",
					"numinlets" : 2,
					"numoutlets" : 1,
					"outlettype" : [ "" ],
					"patching_rect" : [ 543.859625458717346, 212.865487813949585, 76.0, 25.0 ],
					"text" : "randMax $1"
				}

			}
, 			{
				"box" : 				{
					"id" : "obj-128",
					"maxclass" : "message",
					"numinlets" : 2,
					"numoutlets" : 1,
					"outlettype" : [ "" ],
					"patching_rect" : [ 284.795309245586395, 212.865487813949585, 51.0, 25.0 ],
					"text" : "npts $1"
				}

			}
, 			{
				"box" : 				{
					"id" : "obj-129",
					"maxclass" : "comment",
					"numinlets" : 1,
					"numoutlets" : 0,
					"patching_rect" : [ 271.929812729358673, 28.070174217224121, 34.0, 23.0 ],
					"text" : "npts"
				}

			}
, 			{
				"box" : 				{
					"id" : "obj-130",
					"maxclass" : "number",
					"maximum" : 100,
					"minimum" : 0,
					"numinlets" : 1,
					"numoutlets" : 2,
					"outlettype" : [ "", "bang" ],
					"parameter_enable" : 0,
					"patching_rect" : [ 274.26899391412735, 86.54970383644104, 50.0, 25.0 ],
					"presentation" : 1,
					"presentation_rect" : [ 215.54226700000001, 43.004725999999998, 48.0, 25.0 ],
					"varname" : "npts"
				}

			}
, 			{
				"box" : 				{
					"id" : "obj-132",
					"maxclass" : "newobj",
					"numinlets" : 1,
					"numoutlets" : 1,
					"outlettype" : [ "" ],
					"patching_rect" : [ 284.795309245586395, 313.450278759002686, 116.0, 25.0 ],
					"style" : "YKStyle_Object_Yellow",
					"text" : "yk.randomFunction"
				}

			}
, 			{
				"box" : 				{
					"classic_curve" : 1,
					"domain" : 2047.0,
					"id" : "obj-133",
					"maxclass" : "function",
					"mode" : 1,
					"numinlets" : 1,
					"numoutlets" : 4,
					"outlettype" : [ "float", "", "", "bang" ],
					"parameter_enable" : 0,
					"patching_rect" : [ 43.859647214412689, 475.438575804233551, 200.0, 100.0 ],
					"presentation" : 1,
					"presentation_rect" : [ 7.060657, 43.004725999999998, 175.881576999999993, 105.940787999999998 ],
					"range" : [ 0.0, 5000.0 ],
					"varname" : "function"
				}

			}
 ],
		"lines" : [ 			{
				"patchline" : 				{
					"destination" : [ "obj-8", 0 ],
					"source" : [ "obj-11", 0 ]
				}

			}
, 			{
				"patchline" : 				{
					"destination" : [ "obj-124", 0 ],
					"source" : [ "obj-115", 0 ]
				}

			}
, 			{
				"patchline" : 				{
					"destination" : [ "obj-123", 0 ],
					"source" : [ "obj-116", 0 ]
				}

			}
, 			{
				"patchline" : 				{
					"destination" : [ "obj-13", 0 ],
					"midpoints" : [ 408.330392003059387, 252.774859516296374, 294.295309245586395, 252.774859516296374 ],
					"source" : [ "obj-123", 0 ]
				}

			}
, 			{
				"patchline" : 				{
					"destination" : [ "obj-13", 0 ],
					"midpoints" : [ 553.359625458717346, 252.774859516296374, 294.295309245586395, 252.774859516296374 ],
					"source" : [ "obj-124", 0 ]
				}

			}
, 			{
				"patchline" : 				{
					"destination" : [ "obj-13", 0 ],
					"midpoints" : [ 294.295309245586395, 237.261965516296385, 294.295309245586395, 237.261965516296385 ],
					"source" : [ "obj-128", 0 ]
				}

			}
, 			{
				"patchline" : 				{
					"destination" : [ "obj-132", 0 ],
					"source" : [ "obj-13", 0 ]
				}

			}
, 			{
				"patchline" : 				{
					"destination" : [ "obj-25", 1 ],
					"source" : [ "obj-13", 1 ]
				}

			}
, 			{
				"patchline" : 				{
					"destination" : [ "obj-223", 0 ],
					"source" : [ "obj-130", 0 ]
				}

			}
, 			{
				"patchline" : 				{
					"color" : [ 0.2784313725, 0.5411764706, 0.8980392157, 1.0 ],
					"destination" : [ "obj-37", 0 ],
					"source" : [ "obj-132", 0 ]
				}

			}
, 			{
				"patchline" : 				{
					"destination" : [ "obj-36", 1 ],
					"midpoints" : [ 174.026313881079375, 591.581386042381268, 309.295309245586395, 591.581386042381268 ],
					"source" : [ "obj-133", 2 ]
				}

			}
, 			{
				"patchline" : 				{
					"color" : [ 0.2784313725, 0.5411764706, 0.8980392157, 1.0 ],
					"destination" : [ "obj-37", 0 ],
					"midpoints" : [ 448.096472144126892, 354.54094622357178, 294.295309245586395, 354.54094622357178 ],
					"source" : [ "obj-163", 0 ]
				}

			}
, 			{
				"patchline" : 				{
					"destination" : [ "obj-163", 0 ],
					"source" : [ "obj-164", 0 ]
				}

			}
, 			{
				"patchline" : 				{
					"destination" : [ "obj-70", 0 ],
					"source" : [ "obj-171", 0 ]
				}

			}
, 			{
				"patchline" : 				{
					"destination" : [ "obj-213", 0 ],
					"source" : [ "obj-172", 0 ]
				}

			}
, 			{
				"patchline" : 				{
					"destination" : [ "obj-12", 0 ],
					"source" : [ "obj-19", 0 ]
				}

			}
, 			{
				"patchline" : 				{
					"destination" : [ "obj-13", 0 ],
					"midpoints" : [ 130.65204268693924, 252.962751750785827, 294.295309245586395, 252.962751750785827 ],
					"source" : [ "obj-19", 1 ]
				}

			}
, 			{
				"patchline" : 				{
					"destination" : [ "obj-25", 3 ],
					"source" : [ "obj-213", 0 ]
				}

			}
, 			{
				"patchline" : 				{
					"destination" : [ "obj-128", 0 ],
					"source" : [ "obj-223", 1 ]
				}

			}
, 			{
				"patchline" : 				{
					"destination" : [ "obj-23", 0 ],
					"midpoints" : [ 283.76899391412735, 158.049052685499191, 103.65204268693924, 158.049052685499191 ],
					"source" : [ "obj-223", 0 ]
				}

			}
, 			{
				"patchline" : 				{
					"destination" : [ "obj-19", 0 ],
					"source" : [ "obj-23", 0 ]
				}

			}
, 			{
				"patchline" : 				{
					"color" : [ 0.2784313725, 0.5411764706, 0.8980392157, 1.0 ],
					"destination" : [ "obj-37", 0 ],
					"midpoints" : [ 294.295309245586395, 678.994974727182353, 256.793100539838179, 678.994974727182353, 256.793100539838179, 354.05382422357178, 294.295309245586395, 354.05382422357178 ],
					"source" : [ "obj-25", 0 ]
				}

			}
, 			{
				"patchline" : 				{
					"destination" : [ "obj-133", 0 ],
					"midpoints" : [ 334.737931907176971, 461.833364592437761, 53.359647214412689, 461.833364592437761 ],
					"source" : [ "obj-33", 1 ]
				}

			}
, 			{
				"patchline" : 				{
					"color" : [ 0.2156862745, 0.2431372549, 0.2784313725, 1.0 ],
					"destination" : [ "obj-36", 0 ],
					"midpoints" : [ 375.180554568767548, 445.360020238800075, 294.295309245586395, 445.360020238800075 ],
					"source" : [ "obj-33", 2 ]
				}

			}
, 			{
				"patchline" : 				{
					"color" : [ 0.2156862745, 0.2431372549, 0.2784313725, 1.0 ],
					"destination" : [ "obj-36", 0 ],
					"source" : [ "obj-33", 0 ]
				}

			}
, 			{
				"patchline" : 				{
					"destination" : [ "obj-25", 0 ],
					"source" : [ "obj-36", 0 ]
				}

			}
, 			{
				"patchline" : 				{
					"destination" : [ "obj-133", 0 ],
					"midpoints" : [ 394.96744567155838, 461.833364592437761, 53.359647214412689, 461.833364592437761 ],
					"source" : [ "obj-37", 1 ]
				}

			}
, 			{
				"patchline" : 				{
					"destination" : [ "obj-33", 0 ],
					"source" : [ "obj-37", 0 ]
				}

			}
, 			{
				"patchline" : 				{
					"destination" : [ "obj-13", 0 ],
					"midpoints" : [ 702.48242598772049, 253.179232089195239, 294.295309245586395, 253.179232089195239 ],
					"source" : [ "obj-41", 0 ]
				}

			}
, 			{
				"patchline" : 				{
					"destination" : [ "obj-41", 0 ],
					"source" : [ "obj-43", 0 ]
				}

			}
, 			{
				"patchline" : 				{
					"destination" : [ "obj-13", 0 ],
					"midpoints" : [ 829.967800557613373, 253.418302862319933, 294.295309245586395, 253.418302862319933 ],
					"source" : [ "obj-47", 0 ]
				}

			}
, 			{
				"patchline" : 				{
					"destination" : [ "obj-47", 0 ],
					"source" : [ "obj-49", 0 ]
				}

			}
, 			{
				"patchline" : 				{
					"destination" : [ "obj-25", 2 ],
					"source" : [ "obj-70", 0 ]
				}

			}
, 			{
				"patchline" : 				{
					"destination" : [ "obj-23", 0 ],
					"source" : [ "obj-71", 0 ]
				}

			}
, 			{
				"patchline" : 				{
					"destination" : [ "obj-130", 0 ],
					"source" : [ "obj-75", 0 ]
				}

			}
, 			{
				"patchline" : 				{
					"destination" : [ "obj-13", 0 ],
					"midpoints" : [ 942.248497426509857, 253.418302862319933, 294.295309245586395, 253.418302862319933 ],
					"source" : [ "obj-8", 0 ]
				}

			}
, 			{
				"patchline" : 				{
					"destination" : [ "obj-116", 0 ],
					"source" : [ "obj-81", 0 ]
				}

			}
, 			{
				"patchline" : 				{
					"destination" : [ "obj-115", 0 ],
					"source" : [ "obj-82", 0 ]
				}

			}
, 			{
				"patchline" : 				{
					"destination" : [ "obj-43", 0 ],
					"source" : [ "obj-86", 0 ]
				}

			}
, 			{
				"patchline" : 				{
					"destination" : [ "obj-49", 0 ],
					"source" : [ "obj-87", 0 ]
				}

			}
 ],
		"dependency_cache" : [ 			{
				"name" : "yk.listInterp.maxpat",
				"bootpath" : "~/Dev/Max/yk.abstractions/patchers/Utillities/listInterp",
				"patcherrelativepath" : "../../../../Dev/Max/yk.abstractions/patchers/Utillities/listInterp",
				"type" : "JSON",
				"implicit" : 1
			}
, 			{
				"name" : "yk.r.maxpat",
				"bootpath" : "~/Dev/Max/yk.abstractions/patchers/Utillities/r",
				"patcherrelativepath" : "../../../../Dev/Max/yk.abstractions/patchers/Utillities/r",
				"type" : "JSON",
				"implicit" : 1
			}
, 			{
				"name" : "yk.randomFloat.maxpat",
				"bootpath" : "~/Dev/Max/yk.abstractions/patchers/Utillities/randomFloat",
				"patcherrelativepath" : "../../../../Dev/Max/yk.abstractions/patchers/Utillities/randomFloat",
				"type" : "JSON",
				"implicit" : 1
			}
, 			{
				"name" : "yk.randomFunction.maxpat",
				"bootpath" : "~/Dev/Max/yk.abstractions/patchers/Utillities/randomFunction",
				"patcherrelativepath" : "../../../../Dev/Max/yk.abstractions/patchers/Utillities/randomFunction",
				"type" : "JSON",
				"implicit" : 1
			}
, 			{
				"name" : "yk.thru.maxpat",
				"bootpath" : "~/Dev/Max/yk.abstractions/patchers/Utillities/thru",
				"patcherrelativepath" : "../../../../Dev/Max/yk.abstractions/patchers/Utillities/thru",
				"type" : "JSON",
				"implicit" : 1
			}
, 			{
				"name" : "yk.thru2.maxpat",
				"bootpath" : "~/Dev/Max/yk.abstractions/patchers/Utillities/thru2",
				"patcherrelativepath" : "../../../../Dev/Max/yk.abstractions/patchers/Utillities/thru2",
				"type" : "JSON",
				"implicit" : 1
			}
, 			{
				"name" : "yk.thru3.maxpat",
				"bootpath" : "~/Dev/Max/yk.abstractions/patchers/Utillities/thru3",
				"patcherrelativepath" : "../../../../Dev/Max/yk.abstractions/patchers/Utillities/thru3",
				"type" : "JSON",
				"implicit" : 1
			}
 ],
		"autosave" : 0,
		"styles" : [ 			{
				"name" : "YKStyle_Object_Blue",
				"default" : 				{
					"accentcolor" : [ 0.27843137254902, 0.541176470588235, 0.898039215686275, 1.0 ]
				}
,
				"parentstyle" : "",
				"multi" : 0
			}
, 			{
				"name" : "YKStyle_Object_Green",
				"default" : 				{
					"accentcolor" : [ 0.152941176470588, 0.650980392156863, 0.254901960784314, 1.0 ]
				}
,
				"parentstyle" : "",
				"multi" : 0
			}
, 			{
				"name" : "YKStyle_Object_Red",
				"default" : 				{
					"accentcolor" : [ 0.831372549019608, 0.364705882352941, 0.364705882352941, 1.0 ]
				}
,
				"parentstyle" : "",
				"multi" : 0
			}
, 			{
				"name" : "YKStyle_Object_Yellow",
				"default" : 				{
					"accentcolor" : [ 0.996078431372549, 0.682352941176471, 0.196078431372549, 1.0 ]
				}
,
				"parentstyle" : "",
				"multi" : 0
			}
, 			{
				"name" : "YKStyle_Patcher_02_12pt",
				"default" : 				{
					"accentcolor" : [ 0.462745098039216, 0.517647058823529, 0.568627450980392, 1.0 ],
					"bgcolor" : [ 0.215686274509804, 0.243137254901961, 0.27843137254902, 1.0 ],
					"bgfillcolor" : 					{
						"angle" : 270.0,
						"autogradient" : 0.0,
						"color" : [ 0.270588235294118, 0.298039215686275, 0.341176470588235, 1.0 ],
						"color1" : [ 0.270588235294118, 0.298039215686275, 0.341176470588235, 1.0 ],
						"color2" : [ 0.2, 0.2, 0.2, 1.0 ],
						"proportion" : 0.5,
						"type" : "gradient"
					}
,
					"color" : [ 0.772549019607843, 0.819607843137255, 0.870588235294118, 1.0 ],
					"editing_bgcolor" : [ 0.109803921568627, 0.129411764705882, 0.156862745098039, 1.0 ],
					"elementcolor" : [ 0.270588235294118, 0.298039215686275, 0.341176470588235, 1.0 ],
					"fontname" : [ "Nunito Sans 10pt" ],
					"fontsize" : [ 12.0 ],
					"locked_bgcolor" : [ 0.086274509803922, 0.105882352941176, 0.133333333333333, 1.0 ],
					"patchlinecolor" : [ 0.674509803921569, 0.729411764705882, 0.780392156862745, 1.0 ],
					"selectioncolor" : [ 0.27843137254902, 0.541176470588235, 0.898039215686275, 1.0 ],
					"stripecolor" : [ 0.270588235294118, 0.298039215686275, 0.341176470588235, 1.0 ],
					"textcolor" : [ 0.772549019607843, 0.819607843137255, 0.870588235294118, 1.0 ]
				}
,
				"parentstyle" : "",
				"multi" : 0
			}
 ]
	}

}
