{
	"patcher" : 	{
		"fileversion" : 1,
		"appversion" : 		{
			"major" : 8,
			"minor" : 2,
			"revision" : 2,
			"architecture" : "x64",
			"modernui" : 1
		}
,
		"classnamespace" : "box",
		"rect" : [ 0.0, 79.0, 1077.0, 806.0 ],
		"bglocked" : 0,
		"openinpresentation" : 0,
		"default_fontsize" : 10.0,
		"default_fontface" : 0,
		"default_fontname" : "Arial",
		"gridonopen" : 1,
		"gridsize" : [ 15.0, 15.0 ],
		"gridsnaponopen" : 1,
		"objectsnaponopen" : 1,
		"statusbarvisible" : 2,
		"toolbarvisible" : 1,
		"lefttoolbarpinned" : 0,
		"toptoolbarpinned" : 0,
		"righttoolbarpinned" : 0,
		"bottomtoolbarpinned" : 0,
		"toolbars_unpinned_last_save" : 0,
		"tallnewobj" : 0,
		"boxanimatetime" : 200,
		"enablehscroll" : 1,
		"enablevscroll" : 1,
		"devicewidth" : 0.0,
		"description" : "",
		"digest" : "",
		"tags" : "",
		"style" : "",
		"subpatcher_template" : "",
		"assistshowspatchername" : 0,
		"boxes" : [ 			{
				"box" : 				{
					"fontname" : "Verdana",
					"fontsize" : 10.0,
					"id" : "obj-24",
					"maxclass" : "newobj",
					"numinlets" : 1,
					"numoutlets" : 1,
					"outlettype" : [ "bang" ],
					"patching_rect" : [ 43.0, 47.5, 57.0, 21.0 ],
					"text" : "loadbang"
				}

			}
, 			{
				"box" : 				{
					"fontname" : "Verdana",
					"fontsize" : 10.0,
					"id" : "obj-19",
					"linecount" : 2,
					"maxclass" : "message",
					"numinlets" : 2,
					"numoutlets" : 1,
					"outlettype" : [ "" ],
					"patching_rect" : [ 43.0, 71.0, 262.0, 33.0 ],
					"text" : ";\rtoPattrstorage read yk.pattr.presetManagerBPTest"
				}

			}
, 			{
				"box" : 				{
					"color" : [ 0.987977921962738, 0.321277379989624, 0.415835052728653, 1.0 ],
					"fontname" : "Verdana",
					"fontsize" : 10.0,
					"id" : "obj-17",
					"maxclass" : "newobj",
					"numinlets" : 0,
					"numoutlets" : 1,
					"outlettype" : [ "" ],
					"patching_rect" : [ 51.5, 502.5, 91.0, 21.0 ],
					"text" : "r toPattrstorage"
				}

			}
, 			{
				"box" : 				{
					"fontname" : "Verdana",
					"fontsize" : 12.0,
					"id" : "obj-7",
					"maxclass" : "comment",
					"numinlets" : 1,
					"numoutlets" : 0,
					"patching_rect" : [ 43.0, 23.0, 538.0, 21.0 ],
					"text" : "rename the pattrstorage below and place the set below in the top-level project patcher"
				}

			}
, 			{
				"box" : 				{
					"bgcolor" : [ 0.921353220939636, 0.921289503574371, 0.926393151283264, 1.0 ],
					"bgmode" : 2,
					"border" : 1,
					"clickthrough" : 0,
					"enablehscroll" : 0,
					"enablevscroll" : 0,
					"id" : "obj-1",
					"lockeddragscroll" : 0,
					"lockedsize" : 0,
					"maxclass" : "bpatcher",
					"name" : "yk.presetManagerBP.maxpat",
					"numinlets" : 1,
					"numoutlets" : 1,
					"offset" : [ -1.173554, 1.0 ],
					"outlettype" : [ "int" ],
					"patching_rect" : [ 37.0, 118.0, 289.0, 376.5 ],
					"varname" : "yk.presetManagerBP",
					"viewvisibility" : 1
				}

			}
, 			{
				"box" : 				{
					"fontname" : "Verdana",
					"fontsize" : 10.0,
					"id" : "obj-13",
					"maxclass" : "newobj",
					"numinlets" : 1,
					"numoutlets" : 4,
					"outlettype" : [ "", "", "", "" ],
					"patching_rect" : [ 37.0, 565.04547100000002, 140.0, 21.0 ],
					"text" : "autopattr @autorestore 0",
					"varname" : "u769003749"
				}

			}
, 			{
				"box" : 				{
					"fontname" : "Verdana",
					"fontsize" : 10.0,
					"id" : "obj-11",
					"maxclass" : "newobj",
					"numinlets" : 1,
					"numoutlets" : 1,
					"outlettype" : [ "" ],
					"patching_rect" : [ 37.0, 530.5, 453.0, 21.0 ],
					"saved_object_attributes" : 					{
						"client_rect" : [ 4, 44, 588, 385 ],
						"parameter_enable" : 0,
						"parameter_mappable" : 0,
						"storage_rect" : [ 766, 44, 1220, 302 ]
					}
,
					"text" : "pattrstorage yk.pattr.presetManagerBPTest @autorestore 0 @greedy 1 @backupmode 4",
					"varname" : "yk.pattr.presetManagerBPTest"
				}

			}
 ],
		"lines" : [ 			{
				"patchline" : 				{
					"destination" : [ "obj-11", 0 ],
					"source" : [ "obj-1", 0 ]
				}

			}
, 			{
				"patchline" : 				{
					"destination" : [ "obj-1", 0 ],
					"midpoints" : [ 46.5, 559.259583000000021, 26.11157, 559.259583000000021, 26.11157, 109.5, 46.5, 109.5 ],
					"source" : [ "obj-11", 0 ]
				}

			}
, 			{
				"patchline" : 				{
					"destination" : [ "obj-11", 0 ],
					"source" : [ "obj-17", 0 ]
				}

			}
, 			{
				"patchline" : 				{
					"destination" : [ "obj-19", 0 ],
					"source" : [ "obj-24", 0 ]
				}

			}
 ],
		"dependency_cache" : [ 			{
				"name" : "yk.dblClick.maxpat",
				"bootpath" : "~/Documents/Max 8/Packages/yk.abstractions/patchers/Utillities/dblClick",
				"patcherrelativepath" : "../../../patchers/Utillities/dblClick",
				"type" : "JSON",
				"implicit" : 1
			}
, 			{
				"name" : "yk.pattr.presetManagerBPTest.json",
				"bootpath" : "~/Documents/Max 8/Packages/yk.abstractions/patchers/Modules/Data/presetManager/test",
				"patcherrelativepath" : "../../../patchers/Modules/Data/presetManager/test",
				"type" : "JSON",
				"implicit" : 1
			}
, 			{
				"name" : "yk.presetManagerBP.maxpat",
				"bootpath" : "~/Documents/Max 8/Packages/yk.abstractions/patchers/Modules/Data/presetManager",
				"patcherrelativepath" : "../../../patchers/Modules/Data/presetManager",
				"type" : "JSON",
				"implicit" : 1
			}
 ],
		"autosave" : 0
	}

}
