{
	"patcher" : 	{
		"fileversion" : 1,
		"appversion" : 		{
			"major" : 8,
			"minor" : 6,
			"revision" : 4,
			"architecture" : "x64",
			"modernui" : 1
		}
,
		"classnamespace" : "box",
		"rect" : [ -493.0, -1353.0, 2049.0, 1319.0 ],
		"bglocked" : 0,
		"openinpresentation" : 0,
		"default_fontsize" : 12.0,
		"default_fontface" : 0,
		"default_fontname" : "Nunito Sans 10pt",
		"gridonopen" : 1,
		"gridsize" : [ 15.0, 15.0 ],
		"gridsnaponopen" : 1,
		"objectsnaponopen" : 1,
		"statusbarvisible" : 2,
		"toolbarvisible" : 1,
		"lefttoolbarpinned" : 0,
		"toptoolbarpinned" : 0,
		"righttoolbarpinned" : 0,
		"bottomtoolbarpinned" : 0,
		"toolbars_unpinned_last_save" : 0,
		"tallnewobj" : 0,
		"boxanimatetime" : 200,
		"enablehscroll" : 1,
		"enablevscroll" : 1,
		"devicewidth" : 0.0,
		"description" : "",
		"digest" : "",
		"tags" : "",
		"style" : "YKStyle_Patcher_02_12pt",
		"subpatcher_template" : "",
		"assistshowspatchername" : 0,
		"boxes" : [ 			{
				"box" : 				{
					"format" : 6,
					"id" : "obj-28",
					"maxclass" : "flonum",
					"numinlets" : 1,
					"numoutlets" : 2,
					"outlettype" : [ "", "bang" ],
					"parameter_enable" : 0,
					"patching_rect" : [ 546.551840442419007, 1175.215260624885559, 50.0, 25.0 ]
				}

			}
, 			{
				"box" : 				{
					"id" : "obj-20",
					"linecount" : 3,
					"maxclass" : "comment",
					"numinlets" : 1,
					"numoutlets" : 0,
					"patching_rect" : [ 229.755551087856304, 1174.925906300544739, 252.41377580165863, 56.0 ],
					"text" : "pitchTracker also reports new note pitch\n(difference is that this is continuous, without having to wait for another onset)"
				}

			}
, 			{
				"box" : 				{
					"id" : "obj-14",
					"maxclass" : "button",
					"numinlets" : 1,
					"numoutlets" : 1,
					"outlettype" : [ "bang" ],
					"parameter_enable" : 0,
					"patching_rect" : [ 484.385176467895519, 1220.296275913715363, 24.0, 24.0 ]
				}

			}
, 			{
				"box" : 				{
					"format" : 6,
					"id" : "obj-9",
					"maxclass" : "flonum",
					"numinlets" : 1,
					"numoutlets" : 2,
					"outlettype" : [ "", "bang" ],
					"parameter_enable" : 0,
					"patching_rect" : [ 484.385176467895519, 1174.925906300544739, 50.0, 25.0 ]
				}

			}
, 			{
				"box" : 				{
					"bgmode" : 0,
					"border" : 0,
					"clickthrough" : 0,
					"enablehscroll" : 0,
					"enablevscroll" : 0,
					"id" : "obj-1",
					"lockeddragscroll" : 0,
					"lockedsize" : 0,
					"maxclass" : "bpatcher",
					"name" : "yk.MIDIKeyboardBP.maxpat",
					"numinlets" : 2,
					"numoutlets" : 4,
					"offset" : [ -5.41025722026825, -4.41025722026825 ],
					"outlettype" : [ "", "", "", "int" ],
					"patching_rect" : [ 431.481474280357361, 162.037034332752228, 489.090891599655151, 87.72726958990097 ],
					"viewvisibility" : 1
				}

			}
, 			{
				"box" : 				{
					"args" : [ 1 ],
					"bgmode" : 0,
					"border" : 0,
					"clickthrough" : 0,
					"enablehscroll" : 0,
					"enablevscroll" : 0,
					"id" : "obj-18",
					"lockeddragscroll" : 0,
					"lockedsize" : 0,
					"maxclass" : "bpatcher",
					"name" : "yk.pitchTrackerBP.maxpat",
					"numinlets" : 2,
					"numoutlets" : 4,
					"offset" : [ -12.913922865829468, -8.954276149372101 ],
					"outlettype" : [ "", "", "", "" ],
					"patching_rect" : [ 62.962961912155151, 424.074066996574402, 191.851845562458038, 314.814804494380951 ],
					"varname" : "yk.pitchTrackerBP",
					"viewvisibility" : 1
				}

			}
, 			{
				"box" : 				{
					"bgmode" : 0,
					"border" : 0,
					"clickthrough" : 0,
					"enablehscroll" : 0,
					"enablevscroll" : 0,
					"id" : "obj-7",
					"lockeddragscroll" : 0,
					"lockedsize" : 0,
					"maxclass" : "bpatcher",
					"name" : "yk.presetManagerBP.maxpat",
					"numinlets" : 1,
					"numoutlets" : 1,
					"offset" : [ -6.203592836856842, -4.395209550857544 ],
					"outlettype" : [ "int" ],
					"patching_rect" : [ 847.65625, 424.074066996574402, 334.13173234462738, 490.419155538082123 ],
					"varname" : "yk.presetManagerBP",
					"viewvisibility" : 1
				}

			}
, 			{
				"box" : 				{
					"id" : "obj-11",
					"maxclass" : "newobj",
					"numinlets" : 1,
					"numoutlets" : 1,
					"outlettype" : [ "" ],
					"patching_rect" : [ 847.65625, 925.0, 415.0, 25.0 ],
					"saved_object_attributes" : 					{
						"client_rect" : [ 4, 44, 363, 360 ],
						"parameter_enable" : 0,
						"parameter_mappable" : 0,
						"storage_rect" : [ 583, 69, 1034, 197 ]
					}
,
					"text" : "pattrstorage yk.pattr.attackDetectorBPTest @changemode 1 @greedy 1",
					"varname" : "yk.pattr.attackDetectorBPTest"
				}

			}
, 			{
				"box" : 				{
					"id" : "obj-48",
					"maxclass" : "comment",
					"numinlets" : 1,
					"numoutlets" : 0,
					"patching_rect" : [ 1364.814792037010193, 1424.074050307273865, 150.0, 23.0 ]
				}

			}
, 			{
				"box" : 				{
					"id" : "obj-46",
					"maxclass" : "newobj",
					"numinlets" : 2,
					"numoutlets" : 1,
					"outlettype" : [ "int" ],
					"patching_rect" : [ 546.551840442419007, 1219.746510624885559, 29.5, 25.0 ],
					"text" : "i"
				}

			}
, 			{
				"box" : 				{
					"id" : "obj-45",
					"maxclass" : "newobj",
					"numinlets" : 3,
					"numoutlets" : 0,
					"patching_rect" : [ 546.551840442419007, 1308.809010624885559, 53.0, 25.0 ],
					"text" : "noteout"
				}

			}
, 			{
				"box" : 				{
					"id" : "obj-44",
					"maxclass" : "newobj",
					"numinlets" : 3,
					"numoutlets" : 2,
					"outlettype" : [ "float", "float" ],
					"patching_rect" : [ 546.551840442419007, 1259.590260624885559, 107.0, 25.0 ],
					"text" : "makenote 90 500"
				}

			}
, 			{
				"box" : 				{
					"id" : "obj-43",
					"maxclass" : "comment",
					"numinlets" : 1,
					"numoutlets" : 0,
					"patching_rect" : [ 605.145590442419007, 1071.309010624885559, 164.0, 23.0 ],
					"text" : "pitch must be reported first"
				}

			}
, 			{
				"box" : 				{
					"format" : 6,
					"id" : "obj-31",
					"maxclass" : "flonum",
					"numdecimalplaces" : 2,
					"numinlets" : 1,
					"numoutlets" : 2,
					"outlettype" : [ "", "bang" ],
					"parameter_enable" : 0,
					"patching_rect" : [ 463.088880527019512, 755.481468856334686, 114.0, 25.0 ]
				}

			}
, 			{
				"box" : 				{
					"args" : [ 1 ],
					"bgmode" : 0,
					"border" : 0,
					"clickthrough" : 0,
					"enablehscroll" : 0,
					"enablevscroll" : 0,
					"id" : "obj-27",
					"lockeddragscroll" : 0,
					"lockedsize" : 0,
					"maxclass" : "bpatcher",
					"name" : "audioInputBP.maxpat",
					"numinlets" : 1,
					"numoutlets" : 9,
					"offset" : [ -4.740743339061737, -3.259259939193726 ],
					"outlettype" : [ "signal", "signal", "signal", "signal", "signal", "signal", "signal", "signal", "" ],
					"patching_rect" : [ 62.962961912155151, 29.629629135131836, 315.555545210838318, 331.851840972900391 ],
					"varname" : "audioInputBP",
					"viewvisibility" : 1
				}

			}
, 			{
				"box" : 				{
					"id" : "obj-25",
					"maxclass" : "button",
					"numinlets" : 1,
					"numoutlets" : 1,
					"outlettype" : [ "bang" ],
					"parameter_enable" : 0,
					"patching_rect" : [ 546.551840442419007, 1026.777760624885559, 24.0, 24.0 ]
				}

			}
, 			{
				"box" : 				{
					"id" : "obj-19",
					"maxclass" : "comment",
					"numinlets" : 1,
					"numoutlets" : 0,
					"patching_rect" : [ 600.458090442419007, 1175.996510624885559, 291.0, 23.0 ],
					"text" : "new note pitch (reported up on a new note attack)"
				}

			}
, 			{
				"box" : 				{
					"id" : "obj-17",
					"maxclass" : "comment",
					"numinlets" : 1,
					"numoutlets" : 0,
					"patching_rect" : [ 112.962961077690125, 756.481468856334686, 225.0, 23.0 ],
					"text" : "raw detected pitch (midi note number)"
				}

			}
, 			{
				"box" : 				{
					"format" : 6,
					"id" : "obj-15",
					"maxclass" : "flonum",
					"numinlets" : 1,
					"numoutlets" : 2,
					"outlettype" : [ "", "bang" ],
					"parameter_enable" : 0,
					"patching_rect" : [ 62.962961912155151, 756.481468856334686, 50.0, 25.0 ]
				}

			}
, 			{
				"box" : 				{
					"id" : "obj-13",
					"maxclass" : "comment",
					"numinlets" : 1,
					"numoutlets" : 0,
					"patching_rect" : [ 351.051845359802257, 1026.777760624885559, 106.66666316986084, 23.0 ],
					"text" : "note on/off state"
				}

			}
, 			{
				"box" : 				{
					"id" : "obj-10",
					"maxclass" : "comment",
					"numinlets" : 1,
					"numoutlets" : 0,
					"patching_rect" : [ 574.676840442419007, 1026.777760624885559, 93.0, 23.0 ],
					"text" : "new note bang"
				}

			}
, 			{
				"box" : 				{
					"id" : "obj-8",
					"maxclass" : "toggle",
					"numinlets" : 1,
					"numoutlets" : 1,
					"outlettype" : [ "int" ],
					"parameter_enable" : 0,
					"patching_rect" : [ 463.088880527019512, 1026.777760624885559, 24.0, 24.0 ]
				}

			}
, 			{
				"box" : 				{
					"id" : "obj-6",
					"maxclass" : "newobj",
					"numinlets" : 2,
					"numoutlets" : 1,
					"outlettype" : [ "bang" ],
					"patching_rect" : [ 546.551840442419007, 1070.527760624885559, 51.0, 25.0 ],
					"text" : "del 100"
				}

			}
, 			{
				"box" : 				{
					"id" : "obj-24",
					"maxclass" : "newobj",
					"numinlets" : 2,
					"numoutlets" : 1,
					"outlettype" : [ "float" ],
					"patching_rect" : [ 546.551840442419007, 1131.465260624885559, 51.0, 25.0 ],
					"text" : "f"
				}

			}
, 			{
				"box" : 				{
					"args" : [ 1 ],
					"bgmode" : 0,
					"border" : 0,
					"clickthrough" : 0,
					"enablehscroll" : 0,
					"enablevscroll" : 0,
					"id" : "obj-5",
					"lockeddragscroll" : 0,
					"lockedsize" : 0,
					"maxclass" : "bpatcher",
					"name" : "yk.attackDetectorBP.maxpat",
					"numinlets" : 2,
					"numoutlets" : 3,
					"offset" : [ -12.777777850627899, -9.037037134170532 ],
					"outlettype" : [ "", "", "" ],
					"patching_rect" : [ 463.088880527019512, 798.99998664855957, 185.925919830799103, 203.703697025775909 ],
					"varname" : "yk.attackDetectorBP",
					"viewvisibility" : 1
				}

			}
, 			{
				"box" : 				{
					"args" : [ 1 ],
					"bgmode" : 0,
					"border" : 0,
					"clickthrough" : 0,
					"enablehscroll" : 0,
					"enablevscroll" : 0,
					"id" : "obj-3",
					"lockeddragscroll" : 0,
					"lockedsize" : 0,
					"maxclass" : "bpatcher",
					"name" : "yk.envelopeFollowerBP.maxpat",
					"numinlets" : 3,
					"numoutlets" : 6,
					"offset" : [ -10.185185015201569, -7.703703582286835 ],
					"outlettype" : [ "signal", "float", "float", "", "", "" ],
					"patching_rect" : [ 431.481474280357361, 424.074066996574402, 177.037031233310699, 313.333323061466217 ],
					"varname" : "yk.envelopeFollowerBP",
					"viewvisibility" : 1
				}

			}
, 			{
				"box" : 				{
					"bgmode" : 0,
					"border" : 0,
					"clickthrough" : 0,
					"enablehscroll" : 0,
					"enablevscroll" : 0,
					"id" : "obj-4",
					"lockeddragscroll" : 0,
					"lockedsize" : 0,
					"maxclass" : "bpatcher",
					"name" : "yk.VSTBP.maxpat",
					"numinlets" : 3,
					"numoutlets" : 2,
					"offset" : [ -5.222222149372101, -4.069730582286835 ],
					"outlettype" : [ "signal", "signal" ],
					"patching_rect" : [ 431.481474280357361, 270.370365858078003, 174.814809083938599, 91.111108124256134 ],
					"viewvisibility" : 1
				}

			}
 ],
		"lines" : [ 			{
				"patchline" : 				{
					"destination" : [ "obj-4", 0 ],
					"source" : [ "obj-1", 0 ]
				}

			}
, 			{
				"patchline" : 				{
					"destination" : [ "obj-7", 0 ],
					"midpoints" : [ 857.15625, 960.638364196559905, 830.893499207496689, 960.638364196559905, 830.893499207496689, 405.143887624122613, 857.15625, 405.143887624122613 ],
					"source" : [ "obj-11", 0 ]
				}

			}
, 			{
				"patchline" : 				{
					"color" : [ 0.463055, 0.463126, 0.463021, 1.0 ],
					"destination" : [ "obj-24", 1 ],
					"midpoints" : [ 72.462961912155151, 1111.665993113701006, 588.051840442419007, 1111.665993113701006 ],
					"source" : [ "obj-15", 0 ]
				}

			}
, 			{
				"patchline" : 				{
					"destination" : [ "obj-15", 0 ],
					"source" : [ "obj-18", 0 ]
				}

			}
, 			{
				"patchline" : 				{
					"destination" : [ "obj-9", 0 ],
					"midpoints" : [ 187.69752562046051, 1123.097953167343121, 493.885176467895519, 1123.097953167343121 ],
					"source" : [ "obj-18", 2 ]
				}

			}
, 			{
				"patchline" : 				{
					"destination" : [ "obj-28", 0 ],
					"source" : [ "obj-24", 0 ]
				}

			}
, 			{
				"patchline" : 				{
					"destination" : [ "obj-6", 0 ],
					"source" : [ "obj-25", 0 ]
				}

			}
, 			{
				"patchline" : 				{
					"destination" : [ "obj-18", 0 ],
					"midpoints" : [ 72.462961912155151, 398.27778035402298, 72.462961912155151, 398.27778035402298 ],
					"order" : 0,
					"source" : [ "obj-27", 0 ]
				}

			}
, 			{
				"patchline" : 				{
					"destination" : [ "obj-3", 0 ],
					"midpoints" : [ 72.462961912155151, 385.685188174247742, 440.981474280357361, 385.685188174247742 ],
					"order" : 1,
					"source" : [ "obj-27", 0 ]
				}

			}
, 			{
				"patchline" : 				{
					"destination" : [ "obj-46", 0 ],
					"source" : [ "obj-28", 0 ]
				}

			}
, 			{
				"patchline" : 				{
					"destination" : [ "obj-31", 0 ],
					"source" : [ "obj-3", 1 ]
				}

			}
, 			{
				"patchline" : 				{
					"destination" : [ "obj-5", 0 ],
					"source" : [ "obj-31", 0 ]
				}

			}
, 			{
				"patchline" : 				{
					"destination" : [ "obj-18", 0 ],
					"midpoints" : [ 596.796283364295959, 398.27778035402298, 72.462961912155151, 398.27778035402298 ],
					"order" : 1,
					"source" : [ "obj-4", 1 ]
				}

			}
, 			{
				"patchline" : 				{
					"destination" : [ "obj-18", 0 ],
					"midpoints" : [ 440.981474280357361, 398.27778035402298, 72.462961912155151, 398.27778035402298 ],
					"order" : 0,
					"source" : [ "obj-4", 0 ]
				}

			}
, 			{
				"patchline" : 				{
					"destination" : [ "obj-3", 1 ],
					"midpoints" : [ 596.796283364295959, 397.715305633125297, 519.999989897012711, 397.715305633125297 ],
					"order" : 0,
					"source" : [ "obj-4", 1 ]
				}

			}
, 			{
				"patchline" : 				{
					"destination" : [ "obj-3", 0 ],
					"midpoints" : [ 440.981474280357361, 394.203708946704865, 440.981474280357361, 394.203708946704865 ],
					"order" : 1,
					"source" : [ "obj-4", 0 ]
				}

			}
, 			{
				"patchline" : 				{
					"destination" : [ "obj-45", 1 ],
					"source" : [ "obj-44", 1 ]
				}

			}
, 			{
				"patchline" : 				{
					"destination" : [ "obj-45", 0 ],
					"source" : [ "obj-44", 0 ]
				}

			}
, 			{
				"patchline" : 				{
					"destination" : [ "obj-44", 0 ],
					"source" : [ "obj-46", 0 ]
				}

			}
, 			{
				"patchline" : 				{
					"destination" : [ "obj-25", 0 ],
					"source" : [ "obj-5", 1 ]
				}

			}
, 			{
				"patchline" : 				{
					"destination" : [ "obj-8", 0 ],
					"source" : [ "obj-5", 0 ]
				}

			}
, 			{
				"patchline" : 				{
					"destination" : [ "obj-24", 0 ],
					"source" : [ "obj-6", 0 ]
				}

			}
, 			{
				"patchline" : 				{
					"destination" : [ "obj-11", 0 ],
					"source" : [ "obj-7", 0 ]
				}

			}
, 			{
				"patchline" : 				{
					"destination" : [ "obj-14", 0 ],
					"source" : [ "obj-9", 0 ]
				}

			}
 ],
		"parameters" : 		{
			"obj-27::obj-339" : [ "live.gain~[4]", "live.gain~", 0 ],
			"obj-27::obj-370" : [ "live.gain~[5]", "live.gain~", 0 ],
			"obj-27::obj-401" : [ "live.gain~[6]", "live.gain~", 0 ],
			"obj-27::obj-432" : [ "live.gain~[7]", "live.gain~", 0 ],
			"obj-27::obj-463" : [ "live.gain~[11]", "live.gain~", 0 ],
			"obj-27::obj-494" : [ "live.gain~[9]", "live.gain~", 0 ],
			"obj-27::obj-526" : [ "live.gain~[10]", "live.gain~", 0 ],
			"obj-27::obj-72" : [ "live.gain~[2]", "live.gain~", 0 ],
			"obj-4::obj-132" : [ "live.gain~[8]", "live.gain~", 0 ],
			"obj-4::obj-16" : [ "vst~", "vst~", 0 ],
			"parameterbanks" : 			{
				"0" : 				{
					"index" : 0,
					"name" : "",
					"parameters" : [ "-", "-", "-", "-", "-", "-", "-", "-" ]
				}

			}
,
			"parameter_overrides" : 			{
				"obj-27::obj-463" : 				{
					"parameter_longname" : "live.gain~[11]"
				}

			}
,
			"inherited_shortname" : 1
		}
,
		"dependency_cache" : [ 			{
				"name" : "audioInputBP.maxpat",
				"bootpath" : "~/Dev/Max/yk.abstractions/patchers/IO/audioInput",
				"patcherrelativepath" : "../../../IO/audioInput",
				"type" : "JSON",
				"implicit" : 1
			}
, 			{
				"name" : "sigmund~.mxo",
				"type" : "iLaX"
			}
, 			{
				"name" : "yk.DCFilter.maxpat",
				"bootpath" : "~/Dev/Max/yk.abstractions/patchers/Utillities/DCFilter",
				"patcherrelativepath" : "../../../Utillities/DCFilter",
				"type" : "JSON",
				"implicit" : 1
			}
, 			{
				"name" : "yk.MIDIKeyboardBP.maxpat",
				"bootpath" : "~/Dev/Max/yk.abstractions/patchers/MIDI/MIDKeyboard",
				"patcherrelativepath" : "../../../MIDI/MIDKeyboard",
				"type" : "JSON",
				"implicit" : 1
			}
, 			{
				"name" : "yk.VSTBP.maxpat",
				"bootpath" : "~/Dev/Max/yk.abstractions/patchers/MIDI/VST",
				"patcherrelativepath" : "../../../MIDI/VST",
				"type" : "JSON",
				"implicit" : 1
			}
, 			{
				"name" : "yk.attackDetectorBP.maxpat",
				"bootpath" : "~/Dev/Max/yk.abstractions/patchers/Sensors/attackDetector",
				"patcherrelativepath" : "..",
				"type" : "JSON",
				"implicit" : 1
			}
, 			{
				"name" : "yk.dblClick.maxpat",
				"bootpath" : "~/Dev/Max/yk.abstractions/patchers/Utillities/dblClick",
				"patcherrelativepath" : "../../../Utillities/dblClick",
				"type" : "JSON",
				"implicit" : 1
			}
, 			{
				"name" : "yk.envelopeFollowerBP.maxpat",
				"bootpath" : "~/Dev/Max/yk.abstractions/patchers/Sensors/envelopeFollower",
				"patcherrelativepath" : "../../envelopeFollower",
				"type" : "JSON",
				"implicit" : 1
			}
, 			{
				"name" : "yk.gen.mix.gendsp",
				"bootpath" : "~/Dev/Max/yk.abstractions/patchers/Utillities/mix/lib",
				"patcherrelativepath" : "../../../Utillities/mix/lib",
				"type" : "gDSP",
				"implicit" : 1
			}
, 			{
				"name" : "yk.gen.ramp.gendsp",
				"bootpath" : "~/Dev/Max/yk.abstractions/code/ramp",
				"patcherrelativepath" : "../../../../code/ramp",
				"type" : "gDSP",
				"implicit" : 1
			}
, 			{
				"name" : "yk.mix.maxpat",
				"bootpath" : "~/Dev/Max/yk.abstractions/patchers/Utillities/mix",
				"patcherrelativepath" : "../../../Utillities/mix",
				"type" : "JSON",
				"implicit" : 1
			}
, 			{
				"name" : "yk.noiseGate.maxpat",
				"bootpath" : "~/Dev/Max/yk.abstractions/patchers/Utillities/noiseGate",
				"patcherrelativepath" : "../../../Utillities/noiseGate",
				"type" : "JSON",
				"implicit" : 1
			}
, 			{
				"name" : "yk.numSort.maxpat",
				"bootpath" : "~/Dev/Max/yk.abstractions/patchers/Utillities/numSort",
				"patcherrelativepath" : "../../../Utillities/numSort",
				"type" : "JSON",
				"implicit" : 1
			}
, 			{
				"name" : "yk.pass.maxpat",
				"bootpath" : "~/Dev/Max/yk.abstractions/patchers/Utillities/pass",
				"patcherrelativepath" : "../../../Utillities/pass",
				"type" : "JSON",
				"implicit" : 1
			}
, 			{
				"name" : "yk.pattr.attackDetectorBPTest.json",
				"bootpath" : "~/Dev/Max/yk.abstractions/patchers/Sensors/attackDetector/test",
				"patcherrelativepath" : ".",
				"type" : "JSON",
				"implicit" : 1
			}
, 			{
				"name" : "yk.pitchTrackerBP.maxpat",
				"bootpath" : "~/Dev/Max/yk.abstractions/patchers/Sensors/pitchTracker",
				"patcherrelativepath" : "../../pitchTracker",
				"type" : "JSON",
				"implicit" : 1
			}
, 			{
				"name" : "yk.poly.attackDetector.maxpat",
				"bootpath" : "~/Dev/Max/yk.abstractions/patchers/Sensors/attackDetector/lib",
				"patcherrelativepath" : "../lib",
				"type" : "JSON",
				"implicit" : 1
			}
, 			{
				"name" : "yk.poly.envelopeFollower.maxpat",
				"bootpath" : "~/Dev/Max/yk.abstractions/patchers/Sensors/envelopeFollower/lib",
				"patcherrelativepath" : "../../envelopeFollower/lib",
				"type" : "JSON",
				"implicit" : 1
			}
, 			{
				"name" : "yk.poly.pitchTracker.maxpat",
				"bootpath" : "~/Dev/Max/yk.abstractions/patchers/Sensors/pitchTracker/lib",
				"patcherrelativepath" : "../../pitchTracker/lib",
				"type" : "JSON",
				"implicit" : 1
			}
, 			{
				"name" : "yk.presetManagerBP.maxpat",
				"bootpath" : "~/Dev/Max/yk.abstractions/patchers/Data/presetManager",
				"patcherrelativepath" : "../../../Data/presetManager",
				"type" : "JSON",
				"implicit" : 1
			}
, 			{
				"name" : "yk.r.maxpat",
				"bootpath" : "~/Dev/Max/yk.abstractions/patchers/Utillities/r",
				"patcherrelativepath" : "../../../Utillities/r",
				"type" : "JSON",
				"implicit" : 1
			}
, 			{
				"name" : "yk.thru.maxpat",
				"bootpath" : "~/Dev/Max/yk.abstractions/patchers/Utillities/thru",
				"patcherrelativepath" : "../../../Utillities/thru",
				"type" : "JSON",
				"implicit" : 1
			}
, 			{
				"name" : "yk.thru3.maxpat",
				"bootpath" : "~/Dev/Max/yk.abstractions/patchers/Utillities/thru3",
				"patcherrelativepath" : "../../../Utillities/thru3",
				"type" : "JSON",
				"implicit" : 1
			}
 ],
		"autosave" : 0,
		"styles" : [ 			{
				"name" : "YKStyle_Patcher_02_12pt",
				"default" : 				{
					"accentcolor" : [ 0.462745098039216, 0.517647058823529, 0.568627450980392, 1.0 ],
					"bgcolor" : [ 0.215686274509804, 0.243137254901961, 0.27843137254902, 1.0 ],
					"bgfillcolor" : 					{
						"angle" : 270.0,
						"autogradient" : 0.0,
						"color" : [ 0.270588235294118, 0.298039215686275, 0.341176470588235, 1.0 ],
						"color1" : [ 0.270588235294118, 0.298039215686275, 0.341176470588235, 1.0 ],
						"color2" : [ 0.2, 0.2, 0.2, 1.0 ],
						"proportion" : 0.5,
						"type" : "gradient"
					}
,
					"color" : [ 0.772549019607843, 0.819607843137255, 0.870588235294118, 1.0 ],
					"editing_bgcolor" : [ 0.109803921568627, 0.129411764705882, 0.156862745098039, 1.0 ],
					"elementcolor" : [ 0.270588235294118, 0.298039215686275, 0.341176470588235, 1.0 ],
					"fontname" : [ "Nunito Sans 10pt" ],
					"fontsize" : [ 12.0 ],
					"locked_bgcolor" : [ 0.086274509803922, 0.105882352941176, 0.133333333333333, 1.0 ],
					"patchlinecolor" : [ 0.674509803921569, 0.729411764705882, 0.780392156862745, 1.0 ],
					"selectioncolor" : [ 0.27843137254902, 0.541176470588235, 0.898039215686275, 1.0 ],
					"stripecolor" : [ 0.270588235294118, 0.298039215686275, 0.341176470588235, 1.0 ],
					"textcolor" : [ 0.772549019607843, 0.819607843137255, 0.870588235294118, 1.0 ]
				}
,
				"parentstyle" : "",
				"multi" : 0
			}
 ]
	}

}
