{
	"patcher" : 	{
		"fileversion" : 1,
		"appversion" : 		{
			"major" : 6,
			"minor" : 1,
			"revision" : 10,
			"architecture" : "x86"
		}
,
		"rect" : [ 0.0, 44.0, 1056.0, 806.0 ],
		"bglocked" : 0,
		"openinpresentation" : 0,
		"default_fontsize" : 10.0,
		"default_fontface" : 0,
		"default_fontname" : "Arial",
		"gridonopen" : 0,
		"gridsize" : [ 15.0, 15.0 ],
		"gridsnaponopen" : 0,
		"statusbarvisible" : 2,
		"toolbarvisible" : 1,
		"boxanimatetime" : 200,
		"imprint" : 0,
		"enablehscroll" : 1,
		"enablevscroll" : 1,
		"devicewidth" : 0.0,
		"description" : "",
		"digest" : "",
		"tags" : "",
		"boxes" : [ 			{
				"box" : 				{
					"fontname" : "Arial",
					"fontsize" : 10.0,
					"id" : "obj-28",
					"maxclass" : "flonum",
					"numinlets" : 1,
					"numoutlets" : 2,
					"outlettype" : [ "float", "bang" ],
					"parameter_enable" : 0,
					"patching_rect" : [ 420.713165, 735.853333, 50.0, 18.0 ]
				}

			}
, 			{
				"box" : 				{
					"fontname" : "Arial",
					"fontsize" : 10.0,
					"frgb" : 0.0,
					"id" : "obj-20",
					"linecount" : 3,
					"maxclass" : "comment",
					"numinlets" : 1,
					"numoutlets" : 0,
					"patching_rect" : [ 169.0, 735.853333, 189.0, 40.0 ],
					"text" : "pitchTracker also reports new note pitch\n(difference is that this is continuous, without having to wait for another onset)"
				}

			}
, 			{
				"box" : 				{
					"id" : "obj-14",
					"maxclass" : "button",
					"numinlets" : 1,
					"numoutlets" : 1,
					"outlettype" : [ "bang" ],
					"patching_rect" : [ 358.0, 761.035156, 20.0, 20.0 ]
				}

			}
, 			{
				"box" : 				{
					"fontname" : "Arial",
					"fontsize" : 10.0,
					"id" : "obj-9",
					"maxclass" : "flonum",
					"numinlets" : 1,
					"numoutlets" : 2,
					"outlettype" : [ "float", "bang" ],
					"parameter_enable" : 0,
					"patching_rect" : [ 358.0, 735.853333, 50.0, 18.0 ]
				}

			}
, 			{
				"box" : 				{
					"border" : 1,
					"id" : "obj-1",
					"maxclass" : "bpatcher",
					"name" : "yk.MIDIKeyboardBP.maxpat",
					"numinlets" : 2,
					"numoutlets" : 4,
					"offset" : [ 1.0, 2.0 ],
					"outlettype" : [ "", "", "", "int" ],
					"patching_rect" : [ 324.0, 9.815788, 377.0, 65.0 ]
				}

			}
, 			{
				"box" : 				{
					"args" : [ 1 ],
					"border" : 1,
					"id" : "obj-18",
					"maxclass" : "bpatcher",
					"name" : "yk.pitchTrackerBP.maxpat",
					"numinlets" : 2,
					"numoutlets" : 4,
					"offset" : [ -9.95096, -6.732054 ],
					"outlettype" : [ "", "", "", "" ],
					"patching_rect" : [ 61.0, 156.181824, 145.0, 213.098083 ],
					"varname" : "yk.pitchTrackerBP"
				}

			}
, 			{
				"box" : 				{
					"border" : 1,
					"id" : "obj-7",
					"maxclass" : "bpatcher",
					"name" : "yk.presetManagerBP.maxpat",
					"numinlets" : 1,
					"numoutlets" : 1,
					"offset" : [ -8.0, -2.0 ],
					"outlettype" : [ "" ],
					"patching_rect" : [ 583.0, 156.181824, 275.0, 371.0 ],
					"varname" : "yk.presetManagerBP"
				}

			}
, 			{
				"box" : 				{
					"autorestore" : "yk.pattr.attackDetectorBPTest.json",
					"fontname" : "Arial",
					"fontsize" : 10.0,
					"id" : "obj-11",
					"maxclass" : "newobj",
					"numinlets" : 1,
					"numoutlets" : 1,
					"outlettype" : [ "" ],
					"patching_rect" : [ 583.0, 534.541321, 329.0, 18.0 ],
					"saved_object_attributes" : 					{
						"client_rect" : [ 4, 44, 588, 385 ],
						"parameter_enable" : 0,
						"storage_rect" : [ 766, 44, 1220, 302 ]
					}
,
					"text" : "pattrstorage yk.pattr.attackDetectorBPTest @changemode 1 @greedy 1",
					"varname" : "yk.pattr.attackDetectorBPTest"
				}

			}
, 			{
				"box" : 				{
					"fontname" : "Arial",
					"fontsize" : 10.0,
					"frgb" : 0.0,
					"id" : "obj-48",
					"maxclass" : "comment",
					"numinlets" : 1,
					"numoutlets" : 0,
					"patching_rect" : [ 857.272705, 842.727234, 150.0, 18.0 ]
				}

			}
, 			{
				"box" : 				{
					"fontname" : "Arial",
					"fontsize" : 10.0,
					"id" : "obj-46",
					"maxclass" : "newobj",
					"numinlets" : 2,
					"numoutlets" : 1,
					"outlettype" : [ "int" ],
					"patching_rect" : [ 420.027069, 760.181763, 32.5, 18.0 ],
					"text" : "i"
				}

			}
, 			{
				"box" : 				{
					"fontname" : "Arial",
					"fontsize" : 10.0,
					"id" : "obj-45",
					"maxclass" : "newobj",
					"numinlets" : 3,
					"numoutlets" : 0,
					"patching_rect" : [ 420.027069, 811.090881, 46.0, 18.0 ],
					"text" : "noteout"
				}

			}
, 			{
				"box" : 				{
					"fontname" : "Arial",
					"fontsize" : 10.0,
					"id" : "obj-44",
					"maxclass" : "newobj",
					"numinlets" : 3,
					"numoutlets" : 2,
					"outlettype" : [ "float", "float" ],
					"patching_rect" : [ 420.027069, 785.636353, 88.0, 18.0 ],
					"text" : "makenote 90 500"
				}

			}
, 			{
				"box" : 				{
					"fontname" : "Arial",
					"fontsize" : 10.0,
					"frgb" : 0.0,
					"id" : "obj-43",
					"maxclass" : "comment",
					"numinlets" : 1,
					"numoutlets" : 0,
					"patching_rect" : [ 463.713165, 671.918823, 129.0, 18.0 ],
					"text" : "pitch must be reported first"
				}

			}
, 			{
				"box" : 				{
					"fontname" : "Arial",
					"fontsize" : 48.0,
					"id" : "obj-31",
					"maxclass" : "flonum",
					"numdecimalplaces" : 2,
					"numinlets" : 1,
					"numoutlets" : 2,
					"outlettype" : [ "float", "bang" ],
					"parameter_enable" : 0,
					"patching_rect" : [ 350.600006, 397.181824, 114.0, 60.0 ]
				}

			}
, 			{
				"box" : 				{
					"args" : [ 1 ],
					"border" : 1,
					"id" : "obj-27",
					"maxclass" : "bpatcher",
					"name" : "audioInputBP.maxpat",
					"numinlets" : 1,
					"numoutlets" : 9,
					"offset" : [ -84.0, -24.0 ],
					"outlettype" : [ "signal", "signal", "signal", "signal", "signal", "signal", "signal", "signal", "" ],
					"patching_rect" : [ 61.0, 74.815788, 257.0, 65.0 ],
					"varname" : "audioInputBP"
				}

			}
, 			{
				"box" : 				{
					"id" : "obj-25",
					"maxclass" : "button",
					"numinlets" : 1,
					"numoutlets" : 1,
					"outlettype" : [ "bang" ],
					"patching_rect" : [ 420.713165, 641.918823, 20.0, 20.0 ]
				}

			}
, 			{
				"box" : 				{
					"fontname" : "Arial",
					"fontsize" : 10.0,
					"frgb" : 0.0,
					"id" : "obj-19",
					"maxclass" : "comment",
					"numinlets" : 1,
					"numoutlets" : 0,
					"patching_rect" : [ 473.027069, 735.853333, 231.0, 18.0 ],
					"text" : "new note pitch (reported up on a new note attack)"
				}

			}
, 			{
				"box" : 				{
					"fontname" : "Arial",
					"fontsize" : 10.0,
					"frgb" : 0.0,
					"id" : "obj-17",
					"maxclass" : "comment",
					"numinlets" : 1,
					"numoutlets" : 0,
					"patching_rect" : [ 111.0, 378.363647, 178.0, 18.0 ],
					"text" : "raw detected pitch (midi note number)"
				}

			}
, 			{
				"box" : 				{
					"fontname" : "Arial",
					"fontsize" : 10.0,
					"id" : "obj-15",
					"maxclass" : "flonum",
					"numinlets" : 1,
					"numoutlets" : 2,
					"outlettype" : [ "float", "bang" ],
					"parameter_enable" : 0,
					"patching_rect" : [ 61.0, 378.363647, 50.0, 18.0 ]
				}

			}
, 			{
				"box" : 				{
					"fontname" : "Arial",
					"fontsize" : 10.0,
					"frgb" : 0.0,
					"id" : "obj-13",
					"linecount" : 2,
					"maxclass" : "comment",
					"numinlets" : 1,
					"numoutlets" : 0,
					"patching_rect" : [ 363.44342, 610.488403, 63.113159, 29.0 ],
					"text" : "note on/off stae"
				}

			}
, 			{
				"box" : 				{
					"fontname" : "Arial",
					"fontsize" : 10.0,
					"frgb" : 0.0,
					"id" : "obj-10",
					"maxclass" : "comment",
					"numinlets" : 1,
					"numoutlets" : 0,
					"patching_rect" : [ 433.826324, 610.488403, 76.0, 18.0 ],
					"text" : "new note bang"
				}

			}
, 			{
				"box" : 				{
					"id" : "obj-8",
					"maxclass" : "toggle",
					"numinlets" : 1,
					"numoutlets" : 1,
					"outlettype" : [ "int" ],
					"parameter_enable" : 0,
					"patching_rect" : [ 350.600006, 641.918823, 20.0, 20.0 ]
				}

			}
, 			{
				"box" : 				{
					"fontname" : "Arial",
					"fontsize" : 10.0,
					"id" : "obj-6",
					"maxclass" : "newobj",
					"numinlets" : 2,
					"numoutlets" : 1,
					"outlettype" : [ "bang" ],
					"patching_rect" : [ 420.713165, 671.918823, 43.0, 18.0 ],
					"text" : "del 100"
				}

			}
, 			{
				"box" : 				{
					"fontname" : "Arial",
					"fontsize" : 10.0,
					"id" : "obj-24",
					"maxclass" : "newobj",
					"numinlets" : 2,
					"numoutlets" : 1,
					"outlettype" : [ "float" ],
					"patching_rect" : [ 420.713165, 709.215759, 33.0, 18.0 ],
					"text" : "f"
				}

			}
, 			{
				"box" : 				{
					"args" : [ 1 ],
					"border" : 1,
					"id" : "obj-5",
					"maxclass" : "bpatcher",
					"name" : "yk.attackDetectorBP.maxpat",
					"numinlets" : 2,
					"numoutlets" : 3,
					"offset" : [ -15.0, -12.0 ],
					"outlettype" : [ "", "", "" ],
					"patching_rect" : [ 350.600006, 466.181824, 159.226318, 139.30658 ],
					"varname" : "yk.attackDetectorBP"
				}

			}
, 			{
				"box" : 				{
					"args" : [ 1 ],
					"border" : 1,
					"id" : "obj-3",
					"maxclass" : "bpatcher",
					"name" : "yk.envelopeFollowerBP.maxpat",
					"numinlets" : 3,
					"numoutlets" : 6,
					"offset" : [ -5.0, -4.0 ],
					"outlettype" : [ "signal", "float", "float", "", "", "" ],
					"patching_rect" : [ 324.0, 156.181824, 152.000031, 234.098083 ],
					"varname" : "yk.envelopeFollowerBP"
				}

			}
, 			{
				"box" : 				{
					"border" : 1,
					"id" : "obj-4",
					"maxclass" : "bpatcher",
					"name" : "yk.VSTBP.maxpat",
					"numinlets" : 3,
					"numoutlets" : 2,
					"offset" : [ -3.0, -0.366027 ],
					"outlettype" : [ "signal", "signal" ],
					"patching_rect" : [ 324.0, 82.181816, 137.901917, 57.633972 ]
				}

			}
 ],
		"lines" : [ 			{
				"patchline" : 				{
					"destination" : [ "obj-4", 0 ],
					"disabled" : 0,
					"hidden" : 0,
					"source" : [ "obj-1", 0 ]
				}

			}
, 			{
				"patchline" : 				{
					"destination" : [ "obj-7", 0 ],
					"disabled" : 0,
					"hidden" : 0,
					"midpoints" : [ 592.5, 561.705872, 565.5, 561.705872, 565.5, 147.334702, 592.5, 147.334702 ],
					"source" : [ "obj-11", 0 ]
				}

			}
, 			{
				"patchline" : 				{
					"color" : [ 0.463055, 0.463126, 0.463021, 1.0 ],
					"destination" : [ "obj-24", 1 ],
					"disabled" : 0,
					"hidden" : 0,
					"midpoints" : [ 70.5, 704.198792, 444.213165, 704.198792 ],
					"source" : [ "obj-15", 0 ]
				}

			}
, 			{
				"patchline" : 				{
					"destination" : [ "obj-15", 0 ],
					"disabled" : 0,
					"hidden" : 0,
					"source" : [ "obj-18", 0 ]
				}

			}
, 			{
				"patchline" : 				{
					"destination" : [ "obj-9", 0 ],
					"disabled" : 0,
					"hidden" : 0,
					"midpoints" : [ 154.5, 728.06665, 367.5, 728.06665 ],
					"source" : [ "obj-18", 2 ]
				}

			}
, 			{
				"patchline" : 				{
					"destination" : [ "obj-28", 0 ],
					"disabled" : 0,
					"hidden" : 0,
					"source" : [ "obj-24", 0 ]
				}

			}
, 			{
				"patchline" : 				{
					"destination" : [ "obj-6", 0 ],
					"disabled" : 0,
					"hidden" : 0,
					"source" : [ "obj-25", 0 ]
				}

			}
, 			{
				"patchline" : 				{
					"destination" : [ "obj-18", 0 ],
					"disabled" : 0,
					"hidden" : 0,
					"source" : [ "obj-27", 0 ]
				}

			}
, 			{
				"patchline" : 				{
					"destination" : [ "obj-3", 0 ],
					"disabled" : 0,
					"hidden" : 0,
					"midpoints" : [ 70.5, 147.49881, 333.5, 147.49881 ],
					"source" : [ "obj-27", 0 ]
				}

			}
, 			{
				"patchline" : 				{
					"destination" : [ "obj-46", 0 ],
					"disabled" : 0,
					"hidden" : 0,
					"source" : [ "obj-28", 0 ]
				}

			}
, 			{
				"patchline" : 				{
					"destination" : [ "obj-31", 0 ],
					"disabled" : 0,
					"hidden" : 0,
					"source" : [ "obj-3", 1 ]
				}

			}
, 			{
				"patchline" : 				{
					"destination" : [ "obj-5", 0 ],
					"disabled" : 0,
					"hidden" : 0,
					"source" : [ "obj-31", 0 ]
				}

			}
, 			{
				"patchline" : 				{
					"destination" : [ "obj-18", 1 ],
					"disabled" : 0,
					"hidden" : 0,
					"midpoints" : [ 452.401917, 147.49881, 196.5, 147.49881 ],
					"source" : [ "obj-4", 1 ]
				}

			}
, 			{
				"patchline" : 				{
					"destination" : [ "obj-18", 0 ],
					"disabled" : 0,
					"hidden" : 0,
					"midpoints" : [ 333.5, 147.49881, 70.5, 147.49881 ],
					"source" : [ "obj-4", 0 ]
				}

			}
, 			{
				"patchline" : 				{
					"destination" : [ "obj-3", 1 ],
					"disabled" : 0,
					"hidden" : 0,
					"midpoints" : [ 452.401917, 147.49881, 400.0, 147.49881 ],
					"source" : [ "obj-4", 1 ]
				}

			}
, 			{
				"patchline" : 				{
					"destination" : [ "obj-3", 0 ],
					"disabled" : 0,
					"hidden" : 0,
					"source" : [ "obj-4", 0 ]
				}

			}
, 			{
				"patchline" : 				{
					"destination" : [ "obj-45", 1 ],
					"disabled" : 0,
					"hidden" : 0,
					"source" : [ "obj-44", 1 ]
				}

			}
, 			{
				"patchline" : 				{
					"destination" : [ "obj-45", 0 ],
					"disabled" : 0,
					"hidden" : 0,
					"source" : [ "obj-44", 0 ]
				}

			}
, 			{
				"patchline" : 				{
					"destination" : [ "obj-44", 0 ],
					"disabled" : 0,
					"hidden" : 0,
					"source" : [ "obj-46", 0 ]
				}

			}
, 			{
				"patchline" : 				{
					"destination" : [ "obj-25", 0 ],
					"disabled" : 0,
					"hidden" : 0,
					"source" : [ "obj-5", 1 ]
				}

			}
, 			{
				"patchline" : 				{
					"destination" : [ "obj-8", 0 ],
					"disabled" : 0,
					"hidden" : 0,
					"source" : [ "obj-5", 0 ]
				}

			}
, 			{
				"patchline" : 				{
					"destination" : [ "obj-24", 0 ],
					"disabled" : 0,
					"hidden" : 0,
					"source" : [ "obj-6", 0 ]
				}

			}
, 			{
				"patchline" : 				{
					"destination" : [ "obj-11", 0 ],
					"disabled" : 0,
					"hidden" : 0,
					"source" : [ "obj-7", 0 ]
				}

			}
, 			{
				"patchline" : 				{
					"destination" : [ "obj-14", 0 ],
					"disabled" : 0,
					"hidden" : 0,
					"source" : [ "obj-9", 0 ]
				}

			}
 ],
		"parameters" : 		{
			"obj-27::obj-494" : [ "live.gain~[9]", "live.gain~", 0 ],
			"obj-27::obj-526" : [ "live.gain~[10]", "live.gain~", 0 ],
			"obj-27::obj-72" : [ "live.gain~[2]", "live.gain~", 0 ],
			"obj-27::obj-401" : [ "live.gain~[6]", "live.gain~", 0 ],
			"obj-4::obj-132" : [ "live.gain~[8]", "live.gain~", 0 ],
			"obj-27::obj-463" : [ "live.gain~[11]", "live.gain~", 0 ],
			"obj-27::obj-370" : [ "live.gain~[5]", "live.gain~", 0 ],
			"obj-27::obj-432" : [ "live.gain~[7]", "live.gain~", 0 ],
			"obj-27::obj-339" : [ "live.gain~[4]", "live.gain~", 0 ]
		}
,
		"dependency_cache" : [ 			{
				"name" : "yk.VSTBP.maxpat",
				"bootpath" : "/Users/yota/Data/Music/Software/Max/Patches/MyPatches/yk.abstractions/Modules/MIDI/VST",
				"patcherrelativepath" : "../../../MIDI/VST",
				"type" : "JSON",
				"implicit" : 1
			}
, 			{
				"name" : "yk.envelopeFollowerBP.maxpat",
				"bootpath" : "/Users/yota/Data/Music/Software/Max/Patches/MyPatches/yk.abstractions/Modules/Sensors/envelopeFollower",
				"patcherrelativepath" : "../../envelopeFollower",
				"type" : "JSON",
				"implicit" : 1
			}
, 			{
				"name" : "yk.poly.envelopeFollower.maxpat",
				"bootpath" : "/Users/yota/Data/Music/Software/Max/Patches/MyPatches/yk.abstractions/Modules/Sensors/envelopeFollower/lib",
				"patcherrelativepath" : "../../envelopeFollower/lib",
				"type" : "JSON",
				"implicit" : 1
			}
, 			{
				"name" : "yk.attackDetectorBP.maxpat",
				"bootpath" : "/Users/yota/Data/Music/Software/Max/Patches/MyPatches/yk.abstractions/Modules/Sensors/attackDetector",
				"patcherrelativepath" : "..",
				"type" : "JSON",
				"implicit" : 1
			}
, 			{
				"name" : "yk.poly.attackDetector.maxpat",
				"bootpath" : "/Users/yota/Data/Music/Software/Max/Patches/MyPatches/yk.abstractions/Modules/Sensors/attackDetector/lib",
				"patcherrelativepath" : "../lib",
				"type" : "JSON",
				"implicit" : 1
			}
, 			{
				"name" : "yk.numSort.maxpat",
				"bootpath" : "/Users/yota/Data/Music/Software/Max/Patches/MyPatches/yk.abstractions/lib/utillities/numSort",
				"patcherrelativepath" : "../../../../lib/utillities/numSort",
				"type" : "JSON",
				"implicit" : 1
			}
, 			{
				"name" : "audioInputBP.maxpat",
				"bootpath" : "/Users/yota/Data/Music/Software/Max/Patches/MyPatches/yk.abstractions/Modules/IO/audioInput",
				"patcherrelativepath" : "../../../IO/audioInput",
				"type" : "JSON",
				"implicit" : 1
			}
, 			{
				"name" : "yk.r.maxpat",
				"bootpath" : "/Users/yota/Data/Music/Software/Max/Patches/MyPatches/yk.abstractions/lib/utillities/r",
				"patcherrelativepath" : "../../../../lib/utillities/r",
				"type" : "JSON",
				"implicit" : 1
			}
, 			{
				"name" : "yk.thru3.maxpat",
				"bootpath" : "/Users/yota/Data/Music/Software/Max/Patches/MyPatches/yk.abstractions/lib/utillities/thru3",
				"patcherrelativepath" : "../../../../lib/utillities/thru3",
				"type" : "JSON",
				"implicit" : 1
			}
, 			{
				"name" : "yk.noiseGate.maxpat",
				"bootpath" : "/Users/yota/Data/Music/Software/Max/Patches/MyPatches/yk.abstractions/lib/utillities/noiseGate",
				"patcherrelativepath" : "../../../../lib/utillities/noiseGate",
				"type" : "JSON",
				"implicit" : 1
			}
, 			{
				"name" : "yk.DCFilter.maxpat",
				"bootpath" : "/Users/yota/Data/Music/Software/Max/Patches/MyPatches/yk.abstractions/lib/utillities/DCFilter",
				"patcherrelativepath" : "../../../../lib/utillities/DCFilter",
				"type" : "JSON",
				"implicit" : 1
			}
, 			{
				"name" : "yk.mix.maxpat",
				"bootpath" : "/Users/yota/Data/Music/Software/Max/Patches/MyPatches/yk.abstractions/lib/utillities/mix",
				"patcherrelativepath" : "../../../../lib/utillities/mix",
				"type" : "JSON",
				"implicit" : 1
			}
, 			{
				"name" : "yk.gen.mix.gendsp",
				"bootpath" : "/Users/yota/Data/Music/Software/Max/Patches/MyPatches/yk.abstractions/lib/utillities/mix/lib",
				"patcherrelativepath" : "../../../../lib/utillities/mix/lib",
				"type" : "gDSP",
				"implicit" : 1
			}
, 			{
				"name" : "yk.gen.ramp.gendsp",
				"bootpath" : "/Users/yota/Data/Music/Software/Max/Patches/MyPatches/yk.abstractions/lib/gen/ramp",
				"patcherrelativepath" : "../../../../lib/gen/ramp",
				"type" : "gDSP",
				"implicit" : 1
			}
, 			{
				"name" : "yk.pattr.attackDetectorBPTest.json",
				"bootpath" : "/Users/yota/Data/Music/Software/Max/Patches/MyPatches/yk.abstractions/Modules/Sensors/attackDetector/test",
				"patcherrelativepath" : ".",
				"type" : "JSON",
				"implicit" : 1
			}
, 			{
				"name" : "yk.presetManagerBP.maxpat",
				"bootpath" : "/Users/yota/Data/Music/Software/Max/Patches/MyPatches/yk.abstractions/Modules/Data/presetManager",
				"patcherrelativepath" : "../../../Data/presetManager",
				"type" : "JSON",
				"implicit" : 1
			}
, 			{
				"name" : "yk.dblClick.maxpat",
				"bootpath" : "/Users/yota/Data/Music/Software/Max/Patches/MyPatches/yk.abstractions/lib/utillities/dblClick",
				"patcherrelativepath" : "../../../../lib/utillities/dblClick",
				"type" : "JSON",
				"implicit" : 1
			}
, 			{
				"name" : "yk.pitchTrackerBP.maxpat",
				"bootpath" : "/Users/yota/Data/Music/Software/Max/Patches/MyPatches/yk.abstractions/Modules/Sensors/pitchTracker",
				"patcherrelativepath" : "../../pitchTracker",
				"type" : "JSON",
				"implicit" : 1
			}
, 			{
				"name" : "yk.poly.pitchTracker.maxpat",
				"bootpath" : "/Users/yota/Data/Music/Software/Max/Patches/MyPatches/yk.abstractions/Modules/Sensors/pitchTracker/lib",
				"patcherrelativepath" : "../../pitchTracker/lib",
				"type" : "JSON",
				"implicit" : 1
			}
, 			{
				"name" : "yk.thru.maxpat",
				"bootpath" : "/Users/yota/Data/Music/Software/Max/Patches/MyPatches/yk.abstractions/lib/utillities/thru",
				"patcherrelativepath" : "../../../../lib/utillities/thru",
				"type" : "JSON",
				"implicit" : 1
			}
, 			{
				"name" : "yk.pass.maxpat",
				"bootpath" : "/Users/yota/Data/Music/Software/Max/Patches/MyPatches/yk.abstractions/lib/utillities/pass",
				"patcherrelativepath" : "../../../../lib/utillities/pass",
				"type" : "JSON",
				"implicit" : 1
			}
, 			{
				"name" : "yk.MIDIKeyboardBP.maxpat",
				"bootpath" : "/Users/yota/Data/Music/Software/Max/Patches/MyPatches/yk.abstractions/Modules/MIDI/MIDKeyboard",
				"patcherrelativepath" : "../../../MIDI/MIDKeyboard",
				"type" : "JSON",
				"implicit" : 1
			}
, 			{
				"name" : "sigmund~.mxo",
				"type" : "iLaX"
			}
 ]
	}

}
