{
	"patcher" : 	{
		"fileversion" : 1,
		"appversion" : 		{
			"major" : 6,
			"minor" : 1,
			"revision" : 10,
			"architecture" : "x86"
		}
,
		"rect" : [ 0.0, 44.0, 1440.0, 806.0 ],
		"bglocked" : 0,
		"openinpresentation" : 0,
		"default_fontsize" : 10.0,
		"default_fontface" : 0,
		"default_fontname" : "Arial",
		"gridonopen" : 0,
		"gridsize" : [ 15.0, 15.0 ],
		"gridsnaponopen" : 0,
		"statusbarvisible" : 2,
		"toolbarvisible" : 1,
		"boxanimatetime" : 200,
		"imprint" : 0,
		"enablehscroll" : 1,
		"enablevscroll" : 1,
		"devicewidth" : 0.0,
		"description" : "",
		"digest" : "",
		"tags" : "",
		"boxes" : [ 			{
				"box" : 				{
					"color" : [ 0.831373, 0.682353, 0.34902, 1.0 ],
					"fontname" : "Arial",
					"fontsize" : 10.0,
					"id" : "obj-5",
					"maxclass" : "newobj",
					"numinlets" : 2,
					"numoutlets" : 1,
					"outlettype" : [ "int" ],
					"patching_rect" : [ 298.814514, 368.018127, 75.0, 18.0 ],
					"text" : "yk.pass < 108."
				}

			}
, 			{
				"box" : 				{
					"color" : [ 0.831373, 0.682353, 0.34902, 1.0 ],
					"fontname" : "Arial",
					"fontsize" : 10.0,
					"id" : "obj-87",
					"maxclass" : "newobj",
					"numinlets" : 2,
					"numoutlets" : 1,
					"outlettype" : [ "int" ],
					"patcher" : 					{
						"fileversion" : 1,
						"appversion" : 						{
							"major" : 6,
							"minor" : 1,
							"revision" : 10,
							"architecture" : "x86"
						}
,
						"rect" : [ 0.0, 44.0, 1440.0, 806.0 ],
						"bglocked" : 0,
						"openinpresentation" : 0,
						"default_fontsize" : 10.0,
						"default_fontface" : 0,
						"default_fontname" : "Arial",
						"gridonopen" : 0,
						"gridsize" : [ 15.0, 15.0 ],
						"gridsnaponopen" : 0,
						"statusbarvisible" : 2,
						"toolbarvisible" : 1,
						"boxanimatetime" : 200,
						"imprint" : 0,
						"enablehscroll" : 1,
						"enablevscroll" : 1,
						"devicewidth" : 0.0,
						"description" : "",
						"digest" : "",
						"tags" : "",
						"boxes" : [ 							{
								"box" : 								{
									"fontname" : "Arial",
									"fontsize" : 10.0,
									"frgb" : 0.0,
									"id" : "obj-10",
									"maxclass" : "comment",
									"numinlets" : 1,
									"numoutlets" : 0,
									"patching_rect" : [ 76.999969, 29.0, 51.0, 18.0 ],
									"text" : "raw pitch"
								}

							}
, 							{
								"box" : 								{
									"fontname" : "Arial",
									"fontsize" : 10.0,
									"id" : "obj-7",
									"maxclass" : "newobj",
									"numinlets" : 1,
									"numoutlets" : 3,
									"outlettype" : [ "bang", "float", "int" ],
									"patching_rect" : [ 76.999969, 85.0, 46.0, 18.0 ],
									"text" : "t b f 1"
								}

							}
, 							{
								"box" : 								{
									"fontname" : "Arial",
									"fontsize" : 10.0,
									"frgb" : 0.0,
									"id" : "obj-6",
									"maxclass" : "comment",
									"numinlets" : 1,
									"numoutlets" : 0,
									"patching_rect" : [ 612.649414, 29.0, 134.0, 18.0 ],
									"text" : "pitch dev range (semitones)"
								}

							}
, 							{
								"box" : 								{
									"fontname" : "Arial",
									"fontsize" : 10.0,
									"frgb" : 0.0,
									"id" : "obj-3",
									"maxclass" : "comment",
									"numinlets" : 1,
									"numoutlets" : 0,
									"patching_rect" : [ 76.999969, 338.537354, 79.0, 18.0 ],
									"text" : "error flag (0 | 1)"
								}

							}
, 							{
								"box" : 								{
									"fontname" : "Arial",
									"fontsize" : 10.0,
									"id" : "obj-1",
									"maxclass" : "newobj",
									"numinlets" : 2,
									"numoutlets" : 1,
									"outlettype" : [ "int" ],
									"patching_rect" : [ 76.999969, 286.0, 46.0, 18.0 ],
									"text" : "i"
								}

							}
, 							{
								"box" : 								{
									"fontname" : "Arial",
									"fontsize" : 10.0,
									"id" : "obj-79",
									"maxclass" : "newobj",
									"numinlets" : 1,
									"numoutlets" : 3,
									"outlettype" : [ "float", "float", "float" ],
									"patching_rect" : [ 126.499969, 120.0, 46.0, 18.0 ],
									"text" : "t f f f"
								}

							}
, 							{
								"box" : 								{
									"fontname" : "Arial",
									"fontsize" : 10.0,
									"frgb" : 0.0,
									"id" : "obj-66",
									"maxclass" : "comment",
									"numinlets" : 1,
									"numoutlets" : 0,
									"patching_rect" : [ 407.985596, 247.836792, 186.0, 18.0 ],
									"text" : "if pitch dev > permitted range then error"
								}

							}
, 							{
								"box" : 								{
									"fontname" : "Arial",
									"fontsize" : 10.0,
									"id" : "obj-51",
									"maxclass" : "newobj",
									"numinlets" : 2,
									"numoutlets" : 1,
									"outlettype" : [ "" ],
									"patching_rect" : [ 312.649445, 201.319702, 92.0, 18.0 ],
									"text" : "expr abs($f1 - $f2)"
								}

							}
, 							{
								"box" : 								{
									"fontname" : "Arial",
									"fontsize" : 10.0,
									"id" : "obj-9",
									"maxclass" : "newobj",
									"numinlets" : 2,
									"numoutlets" : 1,
									"outlettype" : [ "" ],
									"patching_rect" : [ 312.649445, 247.836792, 88.0, 18.0 ],
									"text" : "if $f1 > $f2 then 0"
								}

							}
, 							{
								"box" : 								{
									"fontname" : "Arial",
									"fontsize" : 10.0,
									"id" : "obj-4",
									"maxclass" : "newobj",
									"numinlets" : 1,
									"numoutlets" : 1,
									"outlettype" : [ "" ],
									"patching_rect" : [ 126.499969, 177.520264, 176.0, 18.0 ],
									"text" : "if ($f1 == -1500. || $f1 >= 108.) then 0"
								}

							}
, 							{
								"box" : 								{
									"fontname" : "Arial",
									"fontsize" : 10.0,
									"frgb" : 0.0,
									"id" : "obj-52",
									"linecount" : 2,
									"maxclass" : "comment",
									"numinlets" : 1,
									"numoutlets" : 0,
									"patching_rect" : [ 407.985596, 201.319702, 207.0, 29.0 ],
									"text" : "deviation amount -- difference in value between the current and previous values"
								}

							}
, 							{
								"box" : 								{
									"fontname" : "Arial",
									"fontsize" : 10.0,
									"frgb" : 0.0,
									"id" : "obj-53",
									"maxclass" : "comment",
									"numinlets" : 1,
									"numoutlets" : 0,
									"patching_rect" : [ 424.652344, 179.267883, 172.0, 18.0 ],
									"text" : "output the value received previously"
								}

							}
, 							{
								"box" : 								{
									"fontname" : "Arial",
									"fontsize" : 10.0,
									"id" : "obj-26",
									"maxclass" : "newobj",
									"numinlets" : 1,
									"numoutlets" : 1,
									"outlettype" : [ "" ],
									"patching_rect" : [ 385.649414, 177.520264, 38.0, 18.0 ],
									"text" : "bucket"
								}

							}
, 							{
								"box" : 								{
									"comment" : "",
									"id" : "obj-84",
									"maxclass" : "inlet",
									"numinlets" : 0,
									"numoutlets" : 1,
									"outlettype" : [ "float" ],
									"patching_rect" : [ 76.999969, 47.0, 25.0, 25.0 ]
								}

							}
, 							{
								"box" : 								{
									"comment" : "",
									"id" : "obj-85",
									"maxclass" : "inlet",
									"numinlets" : 0,
									"numoutlets" : 1,
									"outlettype" : [ "" ],
									"patching_rect" : [ 612.649414, 47.0, 25.0, 25.0 ]
								}

							}
, 							{
								"box" : 								{
									"comment" : "",
									"id" : "obj-86",
									"maxclass" : "outlet",
									"numinlets" : 1,
									"numoutlets" : 0,
									"patching_rect" : [ 76.999969, 313.537354, 25.0, 25.0 ]
								}

							}
 ],
						"lines" : [ 							{
								"patchline" : 								{
									"destination" : [ "obj-86", 0 ],
									"disabled" : 0,
									"hidden" : 0,
									"source" : [ "obj-1", 0 ]
								}

							}
, 							{
								"patchline" : 								{
									"destination" : [ "obj-51", 1 ],
									"disabled" : 0,
									"hidden" : 0,
									"source" : [ "obj-26", 0 ]
								}

							}
, 							{
								"patchline" : 								{
									"destination" : [ "obj-1", 1 ],
									"disabled" : 0,
									"hidden" : 0,
									"midpoints" : [ 135.999969, 277.260132, 113.499969, 277.260132 ],
									"source" : [ "obj-4", 0 ]
								}

							}
, 							{
								"patchline" : 								{
									"destination" : [ "obj-9", 0 ],
									"disabled" : 0,
									"hidden" : 0,
									"source" : [ "obj-51", 0 ]
								}

							}
, 							{
								"patchline" : 								{
									"destination" : [ "obj-1", 1 ],
									"disabled" : 0,
									"hidden" : 0,
									"source" : [ "obj-7", 2 ]
								}

							}
, 							{
								"patchline" : 								{
									"destination" : [ "obj-1", 0 ],
									"disabled" : 0,
									"hidden" : 0,
									"source" : [ "obj-7", 0 ]
								}

							}
, 							{
								"patchline" : 								{
									"color" : [ 0.463055, 0.463126, 0.463021, 1.0 ],
									"destination" : [ "obj-79", 0 ],
									"disabled" : 0,
									"hidden" : 0,
									"midpoints" : [ 99.999969, 111.0, 135.999969, 111.0 ],
									"source" : [ "obj-7", 1 ]
								}

							}
, 							{
								"patchline" : 								{
									"destination" : [ "obj-26", 0 ],
									"disabled" : 0,
									"hidden" : 0,
									"midpoints" : [ 162.999969, 149.110413, 395.149414, 149.110413 ],
									"source" : [ "obj-79", 2 ]
								}

							}
, 							{
								"patchline" : 								{
									"destination" : [ "obj-4", 0 ],
									"disabled" : 0,
									"hidden" : 0,
									"source" : [ "obj-79", 0 ]
								}

							}
, 							{
								"patchline" : 								{
									"destination" : [ "obj-51", 0 ],
									"disabled" : 0,
									"hidden" : 0,
									"midpoints" : [ 149.499969, 161.010132, 322.149445, 161.010132 ],
									"source" : [ "obj-79", 1 ]
								}

							}
, 							{
								"patchline" : 								{
									"destination" : [ "obj-7", 0 ],
									"disabled" : 0,
									"hidden" : 0,
									"source" : [ "obj-84", 0 ]
								}

							}
, 							{
								"patchline" : 								{
									"destination" : [ "obj-9", 1 ],
									"disabled" : 0,
									"hidden" : 0,
									"midpoints" : [ 622.149414, 237.918396, 391.149445, 237.918396 ],
									"source" : [ "obj-85", 0 ]
								}

							}
, 							{
								"patchline" : 								{
									"destination" : [ "obj-1", 1 ],
									"disabled" : 0,
									"hidden" : 0,
									"midpoints" : [ 322.149445, 277.418396, 113.499969, 277.418396 ],
									"source" : [ "obj-9", 0 ]
								}

							}
 ]
					}
,
					"patching_rect" : [ 101.117645, 368.018127, 59.0, 18.0 ],
					"saved_object_attributes" : 					{
						"default_fontface" : 0,
						"default_fontname" : "Arial",
						"default_fontsize" : 10.0,
						"description" : "",
						"digest" : "",
						"fontface" : 0,
						"fontname" : "Arial",
						"fontsize" : 10.0,
						"globalpatchername" : "",
						"tags" : ""
					}
,
					"text" : "p errorPick"
				}

			}
, 			{
				"box" : 				{
					"fontname" : "Arial",
					"fontsize" : 10.0,
					"id" : "obj-78",
					"maxclass" : "newobj",
					"numinlets" : 1,
					"numoutlets" : 2,
					"outlettype" : [ "float", "float" ],
					"patching_rect" : [ 66.117645, 342.513641, 54.0, 18.0 ],
					"text" : "t f f"
				}

			}
, 			{
				"box" : 				{
					"fontname" : "Arial",
					"fontsize" : 10.0,
					"id" : "obj-8",
					"maxclass" : "message",
					"numinlets" : 2,
					"numoutlets" : 1,
					"outlettype" : [ "" ],
					"patching_rect" : [ 150.117645, 94.558365, 66.0, 16.0 ],
					"text" : "threshold $1"
				}

			}
, 			{
				"box" : 				{
					"color" : [ 0.831373, 0.682353, 0.34902, 1.0 ],
					"fontname" : "Arial",
					"fontsize" : 10.0,
					"id" : "obj-10",
					"maxclass" : "newobj",
					"numinlets" : 2,
					"numoutlets" : 2,
					"outlettype" : [ "signal", "int" ],
					"patching_rect" : [ 66.117645, 120.157455, 103.0, 18.0 ],
					"text" : "yk.noiseGate -60. 50"
				}

			}
, 			{
				"box" : 				{
					"fontname" : "Arial",
					"fontsize" : 10.0,
					"id" : "obj-15",
					"maxclass" : "newobj",
					"numinlets" : 2,
					"numoutlets" : 1,
					"outlettype" : [ "" ],
					"patching_rect" : [ 82.117645, 158.890015, 57.0, 18.0 ],
					"text" : "pack 0. 20"
				}

			}
, 			{
				"box" : 				{
					"fontname" : "Arial",
					"fontsize" : 10.0,
					"id" : "obj-22",
					"maxclass" : "newobj",
					"numinlets" : 2,
					"numoutlets" : 2,
					"outlettype" : [ "signal", "bang" ],
					"patching_rect" : [ 82.117645, 181.890015, 32.0, 18.0 ],
					"text" : "line~"
				}

			}
, 			{
				"box" : 				{
					"fontname" : "Arial",
					"fontsize" : 10.0,
					"id" : "obj-28",
					"maxclass" : "newobj",
					"numinlets" : 2,
					"numoutlets" : 1,
					"outlettype" : [ "signal" ],
					"patching_rect" : [ 66.117645, 205.890015, 35.0, 18.0 ],
					"text" : "*~"
				}

			}
, 			{
				"box" : 				{
					"color" : [ 0.082353, 0.25098, 0.431373, 1.0 ],
					"fontname" : "Arial",
					"fontsize" : 10.0,
					"id" : "obj-71",
					"maxclass" : "newobj",
					"numinlets" : 1,
					"numoutlets" : 0,
					"patching_rect" : [ 298.814514, 457.60257, 33.0, 18.0 ],
					"saved_object_attributes" : 					{
						"attr_comment" : ""
					}
,
					"text" : "out 3"
				}

			}
, 			{
				"box" : 				{
					"color" : [ 0.082353, 0.25098, 0.431373, 1.0 ],
					"fontname" : "Arial",
					"fontsize" : 10.0,
					"id" : "obj-70",
					"maxclass" : "newobj",
					"numinlets" : 1,
					"numoutlets" : 0,
					"patching_rect" : [ 192.927963, 457.60257, 33.0, 18.0 ],
					"saved_object_attributes" : 					{
						"attr_comment" : ""
					}
,
					"text" : "out 2"
				}

			}
, 			{
				"box" : 				{
					"color" : [ 0.082353, 0.25098, 0.431373, 1.0 ],
					"fontname" : "Arial",
					"fontsize" : 10.0,
					"id" : "obj-69",
					"maxclass" : "newobj",
					"numinlets" : 1,
					"numoutlets" : 0,
					"patching_rect" : [ 101.117645, 457.60257, 33.0, 18.0 ],
					"saved_object_attributes" : 					{
						"attr_comment" : ""
					}
,
					"text" : "out 1"
				}

			}
, 			{
				"box" : 				{
					"color" : [ 0.831373, 0.682353, 0.34902, 1.0 ],
					"fontname" : "Arial",
					"fontsize" : 10.0,
					"id" : "obj-67",
					"maxclass" : "newobj",
					"numinlets" : 1,
					"numoutlets" : 1,
					"outlettype" : [ "" ],
					"patching_rect" : [ 317.519012, 205.890015, 41.0, 18.0 ],
					"text" : "yk.thru"
				}

			}
, 			{
				"box" : 				{
					"fontname" : "Arial",
					"fontsize" : 10.0,
					"id" : "obj-64",
					"maxclass" : "newobj",
					"numinlets" : 2,
					"numoutlets" : 1,
					"outlettype" : [ "signal" ],
					"patching_rect" : [ 66.117645, 94.558365, 48.0, 18.0 ],
					"text" : "*~ 0.707"
				}

			}
, 			{
				"box" : 				{
					"fontname" : "Arial",
					"fontsize" : 10.0,
					"frgb" : 0.0,
					"id" : "obj-60",
					"maxclass" : "comment",
					"numinlets" : 1,
					"numoutlets" : 0,
					"patching_rect" : [ 120.49408, 304.606293, 103.0, 18.0 ],
					"text" : "continuous raw pitch"
				}

			}
, 			{
				"box" : 				{
					"fontname" : "Arial",
					"fontsize" : 10.0,
					"frgb" : 0.0,
					"id" : "obj-34",
					"linecount" : 2,
					"maxclass" : "comment",
					"numinlets" : 1,
					"numoutlets" : 0,
					"patching_rect" : [ 331.814514, 457.60257, 81.0, 29.0 ],
					"text" : "pitch upon a new note (MIDI)"
				}

			}
, 			{
				"box" : 				{
					"fontname" : "Arial",
					"fontsize" : 10.0,
					"frgb" : 0.0,
					"id" : "obj-48",
					"maxclass" : "comment",
					"numinlets" : 1,
					"numoutlets" : 0,
					"patching_rect" : [ 290.771912, 304.606293, 77.0, 18.0 ],
					"text" : "new note pitch"
				}

			}
, 			{
				"box" : 				{
					"fontname" : "Arial",
					"fontsize" : 10.0,
					"id" : "obj-46",
					"maxclass" : "newobj",
					"numinlets" : 1,
					"numoutlets" : 2,
					"outlettype" : [ "int", "int" ],
					"patching_rect" : [ 101.117645, 395.937347, 110.810318, 18.0 ],
					"text" : "t i i"
				}

			}
, 			{
				"box" : 				{
					"fontname" : "Arial",
					"fontsize" : 10.0,
					"frgb" : 0.0,
					"id" : "obj-45",
					"linecount" : 2,
					"maxclass" : "comment",
					"numinlets" : 1,
					"numoutlets" : 0,
					"patching_rect" : [ 192.927963, 475.60257, 90.0, 29.0 ],
					"text" : "bang when failed to track pitch"
				}

			}
, 			{
				"box" : 				{
					"fontname" : "Arial",
					"fontsize" : 10.0,
					"id" : "obj-37",
					"maxclass" : "newobj",
					"numinlets" : 2,
					"numoutlets" : 2,
					"outlettype" : [ "bang", "" ],
					"patching_rect" : [ 192.927963, 431.834808, 36.0, 18.0 ],
					"text" : "sel 0"
				}

			}
, 			{
				"box" : 				{
					"fontname" : "Arial",
					"fontsize" : 10.0,
					"id" : "obj-19",
					"maxclass" : "flonum",
					"numinlets" : 1,
					"numoutlets" : 2,
					"outlettype" : [ "float", "bang" ],
					"parameter_enable" : 0,
					"patching_rect" : [ 237.117645, 304.606293, 54.0, 18.0 ]
				}

			}
, 			{
				"box" : 				{
					"fontname" : "Arial",
					"fontsize" : 10.0,
					"frgb" : 0.0,
					"id" : "obj-39",
					"linecount" : 2,
					"maxclass" : "comment",
					"numinlets" : 1,
					"numoutlets" : 0,
					"patching_rect" : [ 101.117645, 475.60257, 82.0, 29.0 ],
					"text" : "continuous\nraw pitch (MIDI)"
				}

			}
, 			{
				"box" : 				{
					"fontname" : "Arial",
					"fontsize" : 10.0,
					"id" : "obj-54",
					"maxclass" : "flonum",
					"numinlets" : 1,
					"numoutlets" : 2,
					"outlettype" : [ "float", "bang" ],
					"parameter_enable" : 0,
					"patching_rect" : [ 66.117645, 304.606293, 54.0, 18.0 ]
				}

			}
, 			{
				"box" : 				{
					"fontname" : "Geneva",
					"fontsize" : 10.0,
					"id" : "obj-21",
					"maxclass" : "newobj",
					"numinlets" : 2,
					"numoutlets" : 1,
					"outlettype" : [ "" ],
					"patching_rect" : [ 101.117645, 431.834808, 72.0, 19.0 ],
					"text" : "gate"
				}

			}
, 			{
				"box" : 				{
					"fontname" : "Arial",
					"fontsize" : 10.0,
					"id" : "obj-62",
					"maxclass" : "newobj",
					"numinlets" : 1,
					"numoutlets" : 3,
					"outlettype" : [ "float", "float", "" ],
					"patching_rect" : [ 66.117645, 277.375793, 361.0, 18.0 ],
					"text" : "sigmund~ @npts 2048 @hop 512 @maxfreq 20000 @minpower 40 pitch notes"
				}

			}
, 			{
				"box" : 				{
					"fontname" : "Arial",
					"fontsize" : 10.0,
					"id" : "obj-42",
					"maxclass" : "newobj",
					"numinlets" : 2,
					"numoutlets" : 1,
					"outlettype" : [ "" ],
					"patching_rect" : [ 634.814514, 173.390594, 57.0, 18.0 ],
					"text" : "pack 0. 50"
				}

			}
, 			{
				"box" : 				{
					"fontname" : "Arial",
					"fontsize" : 10.0,
					"id" : "obj-43",
					"maxclass" : "newobj",
					"numinlets" : 2,
					"numoutlets" : 2,
					"outlettype" : [ "signal", "bang" ],
					"patching_rect" : [ 634.814514, 196.39061, 32.0, 18.0 ],
					"text" : "line~"
				}

			}
, 			{
				"box" : 				{
					"fontname" : "Arial",
					"fontsize" : 10.0,
					"id" : "obj-40",
					"maxclass" : "newobj",
					"numinlets" : 1,
					"numoutlets" : 1,
					"outlettype" : [ "" ],
					"patching_rect" : [ 706.551575, 308.963684, 87.0, 18.0 ],
					"text" : "loadmess mute 1"
				}

			}
, 			{
				"box" : 				{
					"fontname" : "Arial",
					"fontsize" : 10.0,
					"id" : "obj-7",
					"maxclass" : "newobj",
					"numinlets" : 8,
					"numoutlets" : 8,
					"outlettype" : [ "", "", "", "", "", "", "", "" ],
					"patching_rect" : [ 317.519012, 172.989655, 272.0, 18.0 ],
					"text" : "routepass hop npts vibrato stabletim minpower growth print"
				}

			}
, 			{
				"box" : 				{
					"color" : [ 0.082353, 0.25098, 0.431373, 1.0 ],
					"fontname" : "Arial",
					"fontsize" : 10.0,
					"id" : "obj-1",
					"maxclass" : "newobj",
					"numinlets" : 1,
					"numoutlets" : 1,
					"outlettype" : [ "" ],
					"patching_rect" : [ 523.064514, 29.964813, 27.0, 18.0 ],
					"text" : "in 2"
				}

			}
, 			{
				"box" : 				{
					"fontname" : "Arial",
					"fontsize" : 10.0,
					"frgb" : 0.0,
					"id" : "obj-29",
					"linecount" : 2,
					"maxclass" : "comment",
					"numinlets" : 1,
					"numoutlets" : 0,
					"patching_rect" : [ 757.540466, 233.365173, 122.0, 29.0 ],
					"text" : "mute off is immediate\nmute on is after the ramp"
				}

			}
, 			{
				"box" : 				{
					"fontname" : "Arial",
					"fontsize" : 10.0,
					"id" : "obj-27",
					"maxclass" : "newobj",
					"numinlets" : 2,
					"numoutlets" : 1,
					"outlettype" : [ "" ],
					"patching_rect" : [ 725.040466, 233.365173, 32.5, 18.0 ],
					"text" : "gate"
				}

			}
, 			{
				"box" : 				{
					"fontname" : "Arial",
					"fontsize" : 10.0,
					"id" : "obj-24",
					"maxclass" : "newobj",
					"numinlets" : 1,
					"numoutlets" : 1,
					"outlettype" : [ "" ],
					"patching_rect" : [ 690.574646, 285.120239, 72.0, 18.0 ],
					"text" : "prepend mute"
				}

			}
, 			{
				"box" : 				{
					"fontname" : "Arial",
					"fontsize" : 10.0,
					"id" : "obj-17",
					"maxclass" : "newobj",
					"numinlets" : 1,
					"numoutlets" : 1,
					"outlettype" : [ "int" ],
					"patching_rect" : [ 725.040466, 259.365173, 22.0, 18.0 ],
					"text" : "t 1"
				}

			}
, 			{
				"box" : 				{
					"fontname" : "Arial",
					"fontsize" : 10.0,
					"id" : "obj-18",
					"maxclass" : "newobj",
					"numinlets" : 1,
					"numoutlets" : 1,
					"outlettype" : [ "int" ],
					"patching_rect" : [ 690.574646, 259.365173, 22.0, 18.0 ],
					"text" : "t 0"
				}

			}
, 			{
				"box" : 				{
					"fontname" : "Arial",
					"fontsize" : 10.0,
					"id" : "obj-16",
					"maxclass" : "newobj",
					"numinlets" : 1,
					"numoutlets" : 2,
					"outlettype" : [ "int", "int" ],
					"patching_rect" : [ 690.574646, 335.913635, 50.0, 18.0 ],
					"text" : "thispoly~"
				}

			}
, 			{
				"box" : 				{
					"fontname" : "Arial",
					"fontsize" : 10.0,
					"id" : "obj-14",
					"maxclass" : "newobj",
					"numinlets" : 2,
					"numoutlets" : 1,
					"outlettype" : [ "signal" ],
					"patching_rect" : [ 66.117645, 242.864578, 32.5, 18.0 ],
					"text" : "*~"
				}

			}
, 			{
				"box" : 				{
					"fontname" : "Arial",
					"fontsize" : 10.0,
					"id" : "obj-13",
					"maxclass" : "newobj",
					"numinlets" : 1,
					"numoutlets" : 2,
					"outlettype" : [ "int", "int" ],
					"patching_rect" : [ 680.074646, 120.55838, 32.5, 18.0 ],
					"text" : "t 0 1"
				}

			}
, 			{
				"box" : 				{
					"fontname" : "Arial",
					"fontsize" : 10.0,
					"id" : "obj-12",
					"maxclass" : "newobj",
					"numinlets" : 1,
					"numoutlets" : 3,
					"outlettype" : [ "int", "bang", "int" ],
					"patching_rect" : [ 634.814514, 120.55838, 46.0, 18.0 ],
					"text" : "t 1 b 0"
				}

			}
, 			{
				"box" : 				{
					"fontname" : "Arial",
					"fontsize" : 10.0,
					"id" : "obj-11",
					"maxclass" : "newobj",
					"numinlets" : 3,
					"numoutlets" : 3,
					"outlettype" : [ "bang", "bang", "" ],
					"patching_rect" : [ 634.814514, 94.558365, 109.520264, 18.0 ],
					"text" : "sel 1 0"
				}

			}
, 			{
				"box" : 				{
					"fontname" : "Arial",
					"fontsize" : 10.0,
					"id" : "obj-2",
					"maxclass" : "newobj",
					"numinlets" : 5,
					"numoutlets" : 5,
					"outlettype" : [ "", "", "", "", "" ],
					"patching_rect" : [ 523.064514, 55.462189, 168.0, 18.0 ],
					"text" : "route thresh inGain pitchDev switch"
				}

			}
, 			{
				"box" : 				{
					"color" : [ 0.082353, 0.25098, 0.431373, 1.0 ],
					"fontname" : "Arial",
					"fontsize" : 10.0,
					"id" : "obj-3",
					"maxclass" : "newobj",
					"numinlets" : 1,
					"numoutlets" : 1,
					"outlettype" : [ "signal" ],
					"patching_rect" : [ 66.117645, 29.964813, 32.0, 18.0 ],
					"text" : "in~ 1"
				}

			}
 ],
		"lines" : [ 			{
				"patchline" : 				{
					"destination" : [ "obj-2", 0 ],
					"disabled" : 0,
					"hidden" : 0,
					"source" : [ "obj-1", 0 ]
				}

			}
, 			{
				"patchline" : 				{
					"destination" : [ "obj-28", 0 ],
					"disabled" : 0,
					"hidden" : 0,
					"source" : [ "obj-10", 0 ]
				}

			}
, 			{
				"patchline" : 				{
					"destination" : [ "obj-12", 0 ],
					"disabled" : 0,
					"hidden" : 0,
					"source" : [ "obj-11", 0 ]
				}

			}
, 			{
				"patchline" : 				{
					"destination" : [ "obj-13", 0 ],
					"disabled" : 0,
					"hidden" : 0,
					"source" : [ "obj-11", 1 ]
				}

			}
, 			{
				"patchline" : 				{
					"color" : [ 0.811765, 0.372549, 0.372549, 1.0 ],
					"destination" : [ "obj-18", 0 ],
					"disabled" : 0,
					"hidden" : 0,
					"midpoints" : [ 657.814514, 163.716202, 700.074646, 163.716202 ],
					"source" : [ "obj-12", 1 ]
				}

			}
, 			{
				"patchline" : 				{
					"color" : [ 0.372549, 0.458824, 0.811765, 1.0 ],
					"destination" : [ "obj-27", 0 ],
					"disabled" : 0,
					"hidden" : 0,
					"midpoints" : [ 671.314514, 157.245132, 734.540466, 157.245132 ],
					"source" : [ "obj-12", 2 ]
				}

			}
, 			{
				"patchline" : 				{
					"destination" : [ "obj-42", 0 ],
					"disabled" : 0,
					"hidden" : 0,
					"source" : [ "obj-12", 0 ]
				}

			}
, 			{
				"patchline" : 				{
					"color" : [ 0.372549, 0.458824, 0.811765, 1.0 ],
					"destination" : [ "obj-27", 0 ],
					"disabled" : 0,
					"hidden" : 0,
					"midpoints" : [ 703.074646, 157.245132, 734.540466, 157.245132 ],
					"source" : [ "obj-13", 1 ]
				}

			}
, 			{
				"patchline" : 				{
					"destination" : [ "obj-42", 0 ],
					"disabled" : 0,
					"hidden" : 0,
					"midpoints" : [ 689.574646, 146.452469, 644.314514, 146.452469 ],
					"source" : [ "obj-13", 0 ]
				}

			}
, 			{
				"patchline" : 				{
					"destination" : [ "obj-62", 0 ],
					"disabled" : 0,
					"hidden" : 0,
					"source" : [ "obj-14", 0 ]
				}

			}
, 			{
				"patchline" : 				{
					"destination" : [ "obj-22", 0 ],
					"disabled" : 0,
					"hidden" : 0,
					"source" : [ "obj-15", 0 ]
				}

			}
, 			{
				"patchline" : 				{
					"destination" : [ "obj-24", 0 ],
					"disabled" : 0,
					"hidden" : 0,
					"source" : [ "obj-17", 0 ]
				}

			}
, 			{
				"patchline" : 				{
					"destination" : [ "obj-24", 0 ],
					"disabled" : 0,
					"hidden" : 0,
					"source" : [ "obj-18", 0 ]
				}

			}
, 			{
				"patchline" : 				{
					"color" : [ 0.463055, 0.463126, 0.463021, 1.0 ],
					"destination" : [ "obj-5", 0 ],
					"disabled" : 0,
					"hidden" : 0,
					"midpoints" : [ 246.617645, 336.568665, 308.314514, 336.568665 ],
					"source" : [ "obj-19", 0 ]
				}

			}
, 			{
				"patchline" : 				{
					"destination" : [ "obj-11", 0 ],
					"disabled" : 0,
					"hidden" : 0,
					"source" : [ "obj-2", 3 ]
				}

			}
, 			{
				"patchline" : 				{
					"destination" : [ "obj-15", 0 ],
					"disabled" : 0,
					"hidden" : 0,
					"midpoints" : [ 569.814514, 150.757416, 91.617645, 150.757416 ],
					"source" : [ "obj-2", 1 ]
				}

			}
, 			{
				"patchline" : 				{
					"color" : [ 0.372549, 0.458824, 0.811765, 1.0 ],
					"destination" : [ "obj-7", 0 ],
					"disabled" : 0,
					"hidden" : 0,
					"midpoints" : [ 681.564514, 87.50943, 327.019012, 87.50943 ],
					"source" : [ "obj-2", 4 ]
				}

			}
, 			{
				"patchline" : 				{
					"destination" : [ "obj-8", 0 ],
					"disabled" : 0,
					"hidden" : 0,
					"midpoints" : [ 532.564514, 79.510277, 159.617645, 79.510277 ],
					"source" : [ "obj-2", 0 ]
				}

			}
, 			{
				"patchline" : 				{
					"destination" : [ "obj-87", 1 ],
					"disabled" : 0,
					"hidden" : 0,
					"midpoints" : [ 607.064514, 348.085602, 150.617645, 348.085602 ],
					"source" : [ "obj-2", 2 ]
				}

			}
, 			{
				"patchline" : 				{
					"destination" : [ "obj-69", 0 ],
					"disabled" : 0,
					"hidden" : 0,
					"source" : [ "obj-21", 0 ]
				}

			}
, 			{
				"patchline" : 				{
					"destination" : [ "obj-28", 1 ],
					"disabled" : 0,
					"hidden" : 0,
					"source" : [ "obj-22", 0 ]
				}

			}
, 			{
				"patchline" : 				{
					"destination" : [ "obj-16", 0 ],
					"disabled" : 0,
					"hidden" : 0,
					"source" : [ "obj-24", 0 ]
				}

			}
, 			{
				"patchline" : 				{
					"destination" : [ "obj-17", 0 ],
					"disabled" : 0,
					"hidden" : 0,
					"source" : [ "obj-27", 0 ]
				}

			}
, 			{
				"patchline" : 				{
					"destination" : [ "obj-14", 0 ],
					"disabled" : 0,
					"hidden" : 0,
					"source" : [ "obj-28", 0 ]
				}

			}
, 			{
				"patchline" : 				{
					"destination" : [ "obj-64", 0 ],
					"disabled" : 0,
					"hidden" : 0,
					"source" : [ "obj-3", 0 ]
				}

			}
, 			{
				"patchline" : 				{
					"destination" : [ "obj-70", 0 ],
					"disabled" : 0,
					"hidden" : 0,
					"source" : [ "obj-37", 0 ]
				}

			}
, 			{
				"patchline" : 				{
					"destination" : [ "obj-16", 0 ],
					"disabled" : 0,
					"hidden" : 0,
					"source" : [ "obj-40", 0 ]
				}

			}
, 			{
				"patchline" : 				{
					"destination" : [ "obj-43", 0 ],
					"disabled" : 0,
					"hidden" : 0,
					"source" : [ "obj-42", 0 ]
				}

			}
, 			{
				"patchline" : 				{
					"destination" : [ "obj-14", 1 ],
					"disabled" : 0,
					"hidden" : 0,
					"midpoints" : [ 644.314514, 233.254761, 89.117645, 233.254761 ],
					"source" : [ "obj-43", 0 ]
				}

			}
, 			{
				"patchline" : 				{
					"destination" : [ "obj-27", 1 ],
					"disabled" : 0,
					"hidden" : 0,
					"midpoints" : [ 657.314514, 223.377884, 748.040466, 223.377884 ],
					"source" : [ "obj-43", 1 ]
				}

			}
, 			{
				"patchline" : 				{
					"color" : [ 0.463055, 0.463126, 0.463021, 1.0 ],
					"destination" : [ "obj-21", 0 ],
					"disabled" : 0,
					"hidden" : 0,
					"source" : [ "obj-46", 0 ]
				}

			}
, 			{
				"patchline" : 				{
					"destination" : [ "obj-37", 0 ],
					"disabled" : 0,
					"hidden" : 0,
					"source" : [ "obj-46", 1 ]
				}

			}
, 			{
				"patchline" : 				{
					"destination" : [ "obj-71", 0 ],
					"disabled" : 0,
					"hidden" : 0,
					"source" : [ "obj-5", 0 ]
				}

			}
, 			{
				"patchline" : 				{
					"destination" : [ "obj-78", 0 ],
					"disabled" : 0,
					"hidden" : 0,
					"source" : [ "obj-54", 0 ]
				}

			}
, 			{
				"patchline" : 				{
					"destination" : [ "obj-19", 0 ],
					"disabled" : 0,
					"hidden" : 0,
					"source" : [ "obj-62", 1 ]
				}

			}
, 			{
				"patchline" : 				{
					"destination" : [ "obj-54", 0 ],
					"disabled" : 0,
					"hidden" : 0,
					"source" : [ "obj-62", 0 ]
				}

			}
, 			{
				"patchline" : 				{
					"destination" : [ "obj-10", 0 ],
					"disabled" : 0,
					"hidden" : 0,
					"source" : [ "obj-64", 0 ]
				}

			}
, 			{
				"patchline" : 				{
					"destination" : [ "obj-62", 0 ],
					"disabled" : 0,
					"hidden" : 0,
					"midpoints" : [ 327.019012, 268.141174, 75.617645, 268.141174 ],
					"source" : [ "obj-67", 0 ]
				}

			}
, 			{
				"patchline" : 				{
					"destination" : [ "obj-67", 0 ],
					"disabled" : 0,
					"hidden" : 0,
					"midpoints" : [ 543.87616, 197.939835, 327.019012, 197.939835 ],
					"source" : [ "obj-7", 6 ]
				}

			}
, 			{
				"patchline" : 				{
					"destination" : [ "obj-67", 0 ],
					"disabled" : 0,
					"hidden" : 0,
					"midpoints" : [ 507.733307, 197.939835, 327.019012, 197.939835 ],
					"source" : [ "obj-7", 5 ]
				}

			}
, 			{
				"patchline" : 				{
					"destination" : [ "obj-67", 0 ],
					"disabled" : 0,
					"hidden" : 0,
					"midpoints" : [ 471.590454, 197.939835, 327.019012, 197.939835 ],
					"source" : [ "obj-7", 4 ]
				}

			}
, 			{
				"patchline" : 				{
					"destination" : [ "obj-67", 0 ],
					"disabled" : 0,
					"hidden" : 0,
					"midpoints" : [ 435.447571, 197.939835, 327.019012, 197.939835 ],
					"source" : [ "obj-7", 3 ]
				}

			}
, 			{
				"patchline" : 				{
					"destination" : [ "obj-67", 0 ],
					"disabled" : 0,
					"hidden" : 0,
					"midpoints" : [ 399.304718, 197.939835, 327.019012, 197.939835 ],
					"source" : [ "obj-7", 2 ]
				}

			}
, 			{
				"patchline" : 				{
					"destination" : [ "obj-67", 0 ],
					"disabled" : 0,
					"hidden" : 0,
					"midpoints" : [ 363.161865, 197.939835, 327.019012, 197.939835 ],
					"source" : [ "obj-7", 1 ]
				}

			}
, 			{
				"patchline" : 				{
					"destination" : [ "obj-67", 0 ],
					"disabled" : 0,
					"hidden" : 0,
					"midpoints" : [ 327.019012, 197.939835, 327.019012, 197.939835 ],
					"source" : [ "obj-7", 0 ]
				}

			}
, 			{
				"patchline" : 				{
					"destination" : [ "obj-21", 1 ],
					"disabled" : 0,
					"hidden" : 0,
					"midpoints" : [ 75.617645, 422.527924, 163.617645, 422.527924 ],
					"source" : [ "obj-78", 0 ]
				}

			}
, 			{
				"patchline" : 				{
					"destination" : [ "obj-87", 0 ],
					"disabled" : 0,
					"hidden" : 0,
					"source" : [ "obj-78", 1 ]
				}

			}
, 			{
				"patchline" : 				{
					"destination" : [ "obj-10", 1 ],
					"disabled" : 0,
					"hidden" : 0,
					"source" : [ "obj-8", 0 ]
				}

			}
, 			{
				"patchline" : 				{
					"destination" : [ "obj-46", 0 ],
					"disabled" : 0,
					"hidden" : 0,
					"source" : [ "obj-87", 0 ]
				}

			}
 ]
	}

}
