{
	"patcher" : 	{
		"fileversion" : 1,
		"appversion" : 		{
			"major" : 6,
			"minor" : 0,
			"revision" : 4
		}
,
		"rect" : [ 25.0, 69.0, 299.0, 179.0 ],
		"bglocked" : 0,
		"openinpresentation" : 0,
		"default_fontsize" : 10.0,
		"default_fontface" : 0,
		"default_fontname" : "Arial",
		"gridonopen" : 0,
		"gridsize" : [ 15.0, 15.0 ],
		"gridsnaponopen" : 0,
		"statusbarvisible" : 2,
		"toolbarvisible" : 1,
		"boxanimatetime" : 200,
		"imprint" : 0,
		"enablehscroll" : 1,
		"enablevscroll" : 1,
		"devicewidth" : 0.0,
		"description" : "",
		"digest" : "",
		"tags" : "",
		"boxes" : [ 			{
				"box" : 				{
					"id" : "obj-407",
					"maxclass" : "toggle",
					"numinlets" : 1,
					"numoutlets" : 1,
					"outlettype" : [ "int" ],
					"parameter_enable" : 0,
					"patching_rect" : [ 223.908997, 31.0, 20.0, 20.0 ]
				}

			}
, 			{
				"box" : 				{
					"fontname" : "Arial",
					"fontsize" : 10.0,
					"id" : "obj-404",
					"maxclass" : "flonum",
					"numinlets" : 1,
					"numoutlets" : 2,
					"outlettype" : [ "float", "bang" ],
					"parameter_enable" : 0,
					"patching_rect" : [ 33.0, 119.158997, 50.0, 18.0 ]
				}

			}
, 			{
				"box" : 				{
					"color" : [ 0.372549, 0.458824, 0.811765, 1.0 ],
					"fontname" : "Arial",
					"fontsize" : 10.0,
					"id" : "obj-405",
					"maxclass" : "newobj",
					"numinlets" : 2,
					"numoutlets" : 1,
					"outlettype" : [ "" ],
					"patching_rect" : [ 118.909058, 119.158997, 76.0, 18.0 ],
					"text" : "yk.sr #0_test 0"
				}

			}
, 			{
				"box" : 				{
					"fontname" : "Arial",
					"fontsize" : 10.0,
					"id" : "obj-403",
					"maxclass" : "flonum",
					"numinlets" : 1,
					"numoutlets" : 2,
					"outlettype" : [ "float", "bang" ],
					"parameter_enable" : 0,
					"patching_rect" : [ 33.0, 70.432861, 50.0, 18.0 ]
				}

			}
, 			{
				"box" : 				{
					"color" : [ 0.372549, 0.458824, 0.811765, 1.0 ],
					"fontname" : "Arial",
					"fontsize" : 10.0,
					"id" : "obj-394",
					"maxclass" : "newobj",
					"numinlets" : 2,
					"numoutlets" : 1,
					"outlettype" : [ "" ],
					"patching_rect" : [ 118.909058, 70.432861, 76.0, 18.0 ],
					"text" : "yk.sr #0_test 0"
				}

			}
 ],
		"lines" : [ 			{
				"patchline" : 				{
					"destination" : [ "obj-403", 0 ],
					"disabled" : 0,
					"hidden" : 0,
					"source" : [ "obj-394", 0 ]
				}

			}
, 			{
				"patchline" : 				{
					"destination" : [ "obj-394", 0 ],
					"disabled" : 0,
					"hidden" : 0,
					"source" : [ "obj-403", 0 ]
				}

			}
, 			{
				"patchline" : 				{
					"destination" : [ "obj-405", 0 ],
					"disabled" : 0,
					"hidden" : 0,
					"source" : [ "obj-404", 0 ]
				}

			}
, 			{
				"patchline" : 				{
					"destination" : [ "obj-404", 0 ],
					"disabled" : 0,
					"hidden" : 0,
					"source" : [ "obj-405", 0 ]
				}

			}
, 			{
				"patchline" : 				{
					"destination" : [ "obj-394", 1 ],
					"disabled" : 0,
					"hidden" : 0,
					"midpoints" : [ 233.408997, 60.216431, 185.409058, 60.216431 ],
					"source" : [ "obj-407", 0 ]
				}

			}
, 			{
				"patchline" : 				{
					"destination" : [ "obj-405", 1 ],
					"disabled" : 0,
					"hidden" : 0,
					"midpoints" : [ 233.408997, 106.579468, 185.409058, 106.579468 ],
					"source" : [ "obj-407", 0 ]
				}

			}
 ],
		"dependency_cache" : [ 			{
				"name" : "yk.sr.maxpat",
				"bootpath" : "/Volumes/Data/Dropbox/Sync/Max/Patches/MyPatches/yk.abstractions/lib/utillities",
				"patcherrelativepath" : "",
				"type" : "JSON",
				"implicit" : 1
			}
 ]
	}

}
