{
	"patcher" : 	{
		"fileversion" : 1,
		"appversion" : 		{
			"major" : 8,
			"minor" : 6,
			"revision" : 4,
			"architecture" : "x64",
			"modernui" : 1
		}
,
		"classnamespace" : "box",
		"rect" : [ -493.0, -1353.0, 2136.0, 1319.0 ],
		"bglocked" : 0,
		"openinpresentation" : 1,
		"default_fontsize" : 12.0,
		"default_fontface" : 0,
		"default_fontname" : "Nunito Sans 10pt",
		"gridonopen" : 1,
		"gridsize" : [ 15.0, 15.0 ],
		"gridsnaponopen" : 1,
		"objectsnaponopen" : 1,
		"statusbarvisible" : 2,
		"toolbarvisible" : 1,
		"lefttoolbarpinned" : 0,
		"toptoolbarpinned" : 0,
		"righttoolbarpinned" : 0,
		"bottomtoolbarpinned" : 0,
		"toolbars_unpinned_last_save" : 0,
		"tallnewobj" : 0,
		"boxanimatetime" : 200,
		"enablehscroll" : 1,
		"enablevscroll" : 1,
		"devicewidth" : 0.0,
		"description" : "",
		"digest" : "",
		"tags" : "",
		"style" : "YKStyle_Patcher_02_12pt",
		"subpatcher_template" : "",
		"assistshowspatchername" : 0,
		"boxes" : [ 			{
				"box" : 				{
					"id" : "obj-144",
					"maxclass" : "textbutton",
					"numinlets" : 1,
					"numoutlets" : 3,
					"outlettype" : [ "", "", "int" ],
					"parameter_enable" : 0,
					"patching_rect" : [ 742.270203000000038, 57.657657623291016, 24.36798095703125, 24.36798095703125 ],
					"presentation" : 1,
					"presentation_rect" : [ 62.199309229850769, 117.525766611099243, 24.36798095703125, 24.36798095703125 ],
					"rounded" : 40.0,
					"text" : "i"
				}

			}
, 			{
				"box" : 				{
					"id" : "obj-2",
					"justification" : 1,
					"linecolor" : [ 0.270588235294118, 0.298039215686275, 0.341176470588235, 1.0 ],
					"maxclass" : "live.line",
					"numinlets" : 1,
					"numoutlets" : 0,
					"patching_rect" : [ 911.006958000000054, 200.611968999999988, 115.151509523391724, 8.585858166217804 ],
					"presentation" : 1,
					"presentation_rect" : [ 25.429551839828491, 105.154633283615112, 139.156641244888306, 10.309277772903442 ],
					"saved_attribute_attributes" : 					{
						"linecolor" : 						{
							"expression" : ""
						}

					}

				}

			}
, 			{
				"box" : 				{
					"border" : 1.0,
					"id" : "obj-47",
					"ignoreclick" : 1,
					"maxclass" : "textedit",
					"numinlets" : 1,
					"numoutlets" : 4,
					"outlettype" : [ "", "int", "", "" ],
					"parameter_enable" : 0,
					"patching_rect" : [ 677.867125999999985, 135.446532999999988, 23.5, 19.5 ],
					"presentation" : 1,
					"presentation_rect" : [ 141.237105488777161, 19.931270360946655, 23.5, 19.5 ],
					"readonly" : 1,
					"rounded" : 0.0,
					"textjustification" : 1
				}

			}
, 			{
				"box" : 				{
					"id" : "obj-7",
					"maxclass" : "comment",
					"numinlets" : 1,
					"numoutlets" : 0,
					"patching_rect" : [ 911.006958000000054, 175.611968999999988, 33.0, 23.0 ],
					"presentation" : 1,
					"presentation_rect" : [ 24.742266654968262, 49.828175902366638, 33.0, 23.0 ],
					"text" : "gain"
				}

			}
, 			{
				"box" : 				{
					"id" : "obj-17",
					"maxclass" : "comment",
					"numinlets" : 1,
					"numoutlets" : 0,
					"patching_rect" : [ 911.006958000000054, 152.852858999999995, 26.0, 23.0 ],
					"presentation" : 1,
					"presentation_rect" : [ 31.958761096000671, 80.068724036216736, 26.0, 23.0 ],
					"text" : "del"
				}

			}
, 			{
				"box" : 				{
					"bgcolor" : [ 0.215686274509804, 0.243137254901961, 0.27843137254902, 1.0 ],
					"id" : "obj-12",
					"maxclass" : "live.meter~",
					"numinlets" : 1,
					"numoutlets" : 2,
					"orientation" : 1,
					"outlettype" : [ "float", "int" ],
					"patching_rect" : [ 85.123962000000006, 170.637573000000003, 100.0, 5.0 ],
					"presentation" : 1,
					"presentation_rect" : [ 24.398624062538147, 151.546383261680603, 141.0, 5.0 ],
					"saved_attribute_attributes" : 					{
						"bgcolor" : 						{
							"expression" : ""
						}

					}
,
					"slidercolor" : [ 0.215686274509804, 0.243137254901961, 0.27843137254902, 1.0 ]
				}

			}
, 			{
				"box" : 				{
					"fontname" : "Arial",
					"fontsize" : 10.0,
					"id" : "obj-8",
					"maxclass" : "message",
					"numinlets" : 2,
					"numoutlets" : 1,
					"outlettype" : [ "" ],
					"patching_rect" : [ 330.366881999999976, 307.888091999999972, 53.0, 20.0 ],
					"text" : "inGain $1"
				}

			}
, 			{
				"box" : 				{
					"format" : 6,
					"id" : "obj-6",
					"maxclass" : "flonum",
					"maximum" : 3.0,
					"minimum" : 0.0,
					"numinlets" : 1,
					"numoutlets" : 2,
					"outlettype" : [ "", "bang" ],
					"parameter_enable" : 0,
					"patching_rect" : [ 330.366881999999976, 280.103607000000011, 50.0, 25.0 ],
					"presentation" : 1,
					"presentation_rect" : [ 59.793811082839966, 48.797248125076294, 57.044670343399048, 25.0 ],
					"varname" : "inGain"
				}

			}
, 			{
				"box" : 				{
					"color" : [ 0.082353, 0.431373, 0.411765, 1.0 ],
					"fontname" : "Arial",
					"fontsize" : 10.0,
					"id" : "obj-1",
					"maxclass" : "newobj",
					"numinlets" : 0,
					"numoutlets" : 1,
					"outlettype" : [ "" ],
					"patching_rect" : [ 330.366881999999976, 255.658646000000005, 129.0, 20.0 ],
					"text" : "yk.r #1_echoInGain inGain",
					"varname" : "yk.r[1]"
				}

			}
, 			{
				"box" : 				{
					"color" : [ 0.811765, 0.372549, 0.372549, 1.0 ],
					"fontname" : "Arial",
					"fontsize" : 10.0,
					"id" : "obj-36",
					"maxclass" : "newobj",
					"numinlets" : 0,
					"numoutlets" : 1,
					"outlettype" : [ "" ],
					"patching_rect" : [ 467.907378999999992, 255.658646000000005, 92.0, 20.0 ],
					"text" : "r #1_echoDelTime"
				}

			}
, 			{
				"box" : 				{
					"color" : [ 0.372549, 0.458824, 0.811765, 1.0 ],
					"fontname" : "Arial",
					"fontsize" : 10.0,
					"id" : "obj-31",
					"maxclass" : "newobj",
					"numinlets" : 1,
					"numoutlets" : 0,
					"patching_rect" : [ 585.032898000000046, 331.793548999999985, 76.0, 20.0 ],
					"text" : "s #0_dumpOut"
				}

			}
, 			{
				"box" : 				{
					"fontname" : "Arial",
					"fontsize" : 10.0,
					"id" : "obj-32",
					"maxclass" : "newobj",
					"numinlets" : 1,
					"numoutlets" : 2,
					"outlettype" : [ "", "" ],
					"patching_rect" : [ 585.032898000000046, 307.888091999999972, 96.361755000000002, 20.0 ],
					"text" : "t s s"
				}

			}
, 			{
				"box" : 				{
					"color" : [ 0.811765, 0.372549, 0.372549, 1.0 ],
					"fontname" : "Arial",
					"fontsize" : 10.0,
					"id" : "obj-3",
					"maxclass" : "newobj",
					"numinlets" : 0,
					"numoutlets" : 1,
					"outlettype" : [ "" ],
					"patching_rect" : [ 569.394957999999974, 255.658646000000005, 79.0, 20.0 ],
					"text" : "r #1_echoClear"
				}

			}
, 			{
				"box" : 				{
					"fontname" : "Arial",
					"fontsize" : 10.0,
					"id" : "obj-30",
					"maxclass" : "message",
					"numinlets" : 2,
					"numoutlets" : 1,
					"outlettype" : [ "" ],
					"patching_rect" : [ 467.907378999999992, 307.888091999999972, 60.0, 20.0 ],
					"text" : "delTime $1"
				}

			}
, 			{
				"box" : 				{
					"fontsize" : 12.0,
					"format" : 6,
					"id" : "obj-10",
					"maxclass" : "flonum",
					"maximum" : 12000.0,
					"minimum" : 0.0,
					"numinlets" : 1,
					"numoutlets" : 2,
					"outlettype" : [ "", "bang" ],
					"parameter_enable" : 0,
					"patching_rect" : [ 467.907378999999992, 280.103607000000011, 55.0, 25.0 ],
					"presentation" : 1,
					"presentation_rect" : [ 59.793811082839966, 79.037796258926392, 57.044670343399048, 25.0 ],
					"varname" : "delTime"
				}

			}
, 			{
				"box" : 				{
					"fontlink" : 1,
					"id" : "obj-28",
					"maxclass" : "textbutton",
					"numinlets" : 1,
					"numoutlets" : 3,
					"outlettype" : [ "", "", "int" ],
					"parameter_enable" : 0,
					"patching_rect" : [ 569.394957999999974, 280.103607000000011, 43.624000549316406, 24.36798095703125 ],
					"presentation" : 1,
					"presentation_rect" : [ 120.962192535400391, 79.381438851356506, 43.624000549316406, 24.36798095703125 ],
					"text" : "clear"
				}

			}
, 			{
				"box" : 				{
					"color" : [ 0.372549, 0.458824, 0.811765, 1.0 ],
					"fontname" : "Arial",
					"fontsize" : 10.0,
					"id" : "obj-51",
					"maxclass" : "newobj",
					"numinlets" : 1,
					"numoutlets" : 0,
					"patching_rect" : [ 853.996826000000056, 91.901893999999999, 76.0, 20.0 ],
					"text" : "s #0_dumpOut"
				}

			}
, 			{
				"box" : 				{
					"fontname" : "Arial",
					"fontsize" : 10.0,
					"id" : "obj-14",
					"maxclass" : "newobj",
					"numinlets" : 1,
					"numoutlets" : 2,
					"outlettype" : [ "init", "bang" ],
					"patching_rect" : [ 853.996826000000056, 67.996421999999995, 94.137694999999994, 20.0 ],
					"text" : "t init b"
				}

			}
, 			{
				"box" : 				{
					"color" : [ 0.811765, 0.372549, 0.372549, 1.0 ],
					"fontname" : "Arial",
					"fontsize" : 10.0,
					"id" : "obj-52",
					"maxclass" : "newobj",
					"numinlets" : 0,
					"numoutlets" : 1,
					"outlettype" : [ "" ],
					"patching_rect" : [ 261.129028000000005, 163.183838000000009, 74.0, 20.0 ],
					"text" : "r #0_dumpOut"
				}

			}
, 			{
				"box" : 				{
					"fontname" : "Arial",
					"fontsize" : 10.0,
					"id" : "obj-9",
					"maxclass" : "comment",
					"numinlets" : 1,
					"numoutlets" : 0,
					"patching_rect" : [ 235.629028000000005, 215.637573000000003, 49.0, 18.0 ],
					"text" : "dumpout"
				}

			}
, 			{
				"box" : 				{
					"comment" : "pattr storage dump out",
					"id" : "obj-11",
					"index" : 0,
					"maxclass" : "outlet",
					"numinlets" : 1,
					"numoutlets" : 0,
					"patching_rect" : [ 235.629028000000005, 190.637573000000003, 25.0, 25.0 ]
				}

			}
, 			{
				"box" : 				{
					"fontname" : "Arial",
					"fontsize" : 10.0,
					"id" : "obj-22",
					"maxclass" : "newobj",
					"numinlets" : 1,
					"numoutlets" : 4,
					"outlettype" : [ "", "", "", "" ],
					"patching_rect" : [ 347.14572099999998, 163.183838000000009, 122.0, 20.0 ],
					"restore" : 					{
						"delTime" : [ 0.0 ],
						"inGain" : [ 1.0 ],
						"switch" : [ 0 ]
					}
,
					"text" : "autopattr @autorestore 0",
					"varname" : "u931001803"
				}

			}
, 			{
				"box" : 				{
					"color" : [ 0.832422, 0.683837, 0.347506, 1.0 ],
					"fontname" : "Arial",
					"fontsize" : 10.0,
					"id" : "obj-5",
					"maxclass" : "newobj",
					"numinlets" : 1,
					"numoutlets" : 1,
					"outlettype" : [ "" ],
					"patcher" : 					{
						"fileversion" : 1,
						"appversion" : 						{
							"major" : 8,
							"minor" : 6,
							"revision" : 4,
							"architecture" : "x64",
							"modernui" : 1
						}
,
						"classnamespace" : "box",
						"rect" : [ 0.0, 44.0, 1440.0, 806.0 ],
						"bglocked" : 0,
						"openinpresentation" : 0,
						"default_fontsize" : 10.0,
						"default_fontface" : 0,
						"default_fontname" : "Arial",
						"gridonopen" : 1,
						"gridsize" : [ 15.0, 15.0 ],
						"gridsnaponopen" : 1,
						"objectsnaponopen" : 1,
						"statusbarvisible" : 2,
						"toolbarvisible" : 1,
						"lefttoolbarpinned" : 0,
						"toptoolbarpinned" : 0,
						"righttoolbarpinned" : 0,
						"bottomtoolbarpinned" : 0,
						"toolbars_unpinned_last_save" : 0,
						"tallnewobj" : 0,
						"boxanimatetime" : 200,
						"enablehscroll" : 1,
						"enablevscroll" : 1,
						"devicewidth" : 0.0,
						"description" : "",
						"digest" : "",
						"tags" : "",
						"style" : "",
						"subpatcher_template" : "",
						"assistshowspatchername" : 0,
						"boxes" : [ 							{
								"box" : 								{
									"color" : [ 0.372549, 0.458824, 0.811765, 1.0 ],
									"fontname" : "Arial",
									"fontsize" : 10.0,
									"id" : "obj-3",
									"maxclass" : "newobj",
									"numinlets" : 1,
									"numoutlets" : 0,
									"patching_rect" : [ 119.994872999999998, 77.175903000000005, 81.0, 18.0 ],
									"text" : "s #1_echoClear"
								}

							}
, 							{
								"box" : 								{
									"fontname" : "Arial",
									"fontsize" : 10.0,
									"id" : "obj-77",
									"maxclass" : "comment",
									"numinlets" : 1,
									"numoutlets" : 0,
									"patching_rect" : [ 210.332199000000003, 102.989745999999997, 75.0, 18.0 ],
									"text" : "to pattrstorage"
								}

							}
, 							{
								"box" : 								{
									"color" : [ 0.372549, 0.458824, 0.811765, 1.0 ],
									"fontname" : "Arial",
									"fontsize" : 10.0,
									"id" : "obj-66",
									"maxclass" : "newobj",
									"numinlets" : 1,
									"numoutlets" : 0,
									"patching_rect" : [ 29.657543, 77.175903000000005, 70.0, 18.0 ],
									"text" : "s #1_echoInit"
								}

							}
, 							{
								"box" : 								{
									"fontname" : "Arial",
									"fontsize" : 10.0,
									"id" : "obj-64",
									"maxclass" : "newobj",
									"numinlets" : 3,
									"numoutlets" : 3,
									"outlettype" : [ "", "", "" ],
									"patching_rect" : [ 29.657543, 49.960788999999998, 199.674652000000009, 18.0 ],
									"text" : "route init clear"
								}

							}
, 							{
								"box" : 								{
									"comment" : "",
									"id" : "obj-2",
									"index" : 1,
									"maxclass" : "outlet",
									"numinlets" : 1,
									"numoutlets" : 0,
									"patching_rect" : [ 210.332199000000003, 77.175903000000005, 25.0, 25.0 ]
								}

							}
, 							{
								"box" : 								{
									"comment" : "",
									"id" : "obj-1",
									"index" : 1,
									"maxclass" : "inlet",
									"numinlets" : 0,
									"numoutlets" : 1,
									"outlettype" : [ "" ],
									"patching_rect" : [ 29.657543, 15.360224000000001, 25.0, 25.0 ]
								}

							}
 ],
						"lines" : [ 							{
								"patchline" : 								{
									"destination" : [ "obj-64", 0 ],
									"source" : [ "obj-1", 0 ]
								}

							}
, 							{
								"patchline" : 								{
									"destination" : [ "obj-2", 0 ],
									"source" : [ "obj-64", 2 ]
								}

							}
, 							{
								"patchline" : 								{
									"destination" : [ "obj-3", 0 ],
									"source" : [ "obj-64", 1 ]
								}

							}
, 							{
								"patchline" : 								{
									"destination" : [ "obj-66", 0 ],
									"source" : [ "obj-64", 0 ]
								}

							}
 ]
					}
,
					"patching_rect" : [ 235.629028000000005, 98.289023999999998, 78.0, 20.0 ],
					"saved_object_attributes" : 					{
						"description" : "",
						"digest" : "",
						"fontsize" : 10.0,
						"globalpatchername" : "",
						"tags" : ""
					}
,
					"text" : "p messageSort"
				}

			}
, 			{
				"box" : 				{
					"fontname" : "Arial",
					"fontsize" : 10.0,
					"id" : "obj-4",
					"maxclass" : "newobj",
					"numinlets" : 1,
					"numoutlets" : 1,
					"outlettype" : [ "bang" ],
					"patching_rect" : [ 800.001709000000005, 122.980430999999996, 22.0, 20.0 ],
					"text" : "t b"
				}

			}
, 			{
				"box" : 				{
					"color" : [ 0.832422, 0.683837, 0.347506, 1.0 ],
					"fontname" : "Arial",
					"fontsize" : 10.0,
					"id" : "obj-111",
					"maxclass" : "newobj",
					"numinlets" : 1,
					"numoutlets" : 0,
					"patcher" : 					{
						"fileversion" : 1,
						"appversion" : 						{
							"major" : 8,
							"minor" : 6,
							"revision" : 4,
							"architecture" : "x64",
							"modernui" : 1
						}
,
						"classnamespace" : "box",
						"rect" : [ 491.0, -857.0, 512.0, 339.0 ],
						"bglocked" : 0,
						"openinpresentation" : 1,
						"default_fontsize" : 13.0,
						"default_fontface" : 0,
						"default_fontname" : "Nunito Sans 10pt",
						"gridonopen" : 1,
						"gridsize" : [ 15.0, 15.0 ],
						"gridsnaponopen" : 1,
						"objectsnaponopen" : 1,
						"statusbarvisible" : 2,
						"toolbarvisible" : 0,
						"lefttoolbarpinned" : 0,
						"toptoolbarpinned" : 0,
						"righttoolbarpinned" : 0,
						"bottomtoolbarpinned" : 0,
						"toolbars_unpinned_last_save" : 0,
						"tallnewobj" : 0,
						"boxanimatetime" : 200,
						"enablehscroll" : 1,
						"enablevscroll" : 1,
						"devicewidth" : 0.0,
						"description" : "",
						"digest" : "",
						"tags" : "",
						"style" : "YKStyle_Patcher_01_13pt",
						"subpatcher_template" : "",
						"assistshowspatchername" : 0,
						"boxes" : [ 							{
								"box" : 								{
									"id" : "obj-7",
									"linecount" : 6,
									"maxclass" : "comment",
									"numinlets" : 1,
									"numoutlets" : 0,
									"patching_rect" : [ 166.358001999999999, 135.405640000000005, 21.0, 113.0 ],
									"presentation" : 1,
									"presentation_linecount" : 6,
									"presentation_rect" : [ 243.0, 200.0, 20.0, 113.0 ],
									"text" : "x\nx\nx\no\nx\nx"
								}

							}
, 							{
								"box" : 								{
									"fontface" : 1,
									"id" : "obj-11",
									"maxclass" : "comment",
									"numinlets" : 1,
									"numoutlets" : 0,
									"patching_rect" : [ 166.358001999999999, 117.405631999999997, 38.0, 24.0 ],
									"presentation" : 1,
									"presentation_rect" : [ 243.0, 174.0, 35.0, 24.0 ],
									"text" : "yk.r:"
								}

							}
, 							{
								"box" : 								{
									"id" : "obj-8",
									"linecount" : 5,
									"maxclass" : "comment",
									"numinlets" : 1,
									"numoutlets" : 0,
									"patching_rect" : [ 15.858006, 38.405628, 480.0, 95.0 ],
									"presentation" : 1,
									"presentation_linecount" : 5,
									"presentation_rect" : [ 29.0, 62.0, 461.0, 95.0 ],
									"text" : "An input signal delay module, intended to be used to postpone the singal from the source (e.g., live instrument) to the destination (e.g., FX module) up to 10 sec.\nThe variable delay time algorithm avoids clicks and pitch changes when changing the delay time."
								}

							}
, 							{
								"box" : 								{
									"fontface" : 1,
									"id" : "obj-1",
									"linecount" : 2,
									"maxclass" : "comment",
									"numinlets" : 1,
									"numoutlets" : 0,
									"patching_rect" : [ 185.358001999999999, 102.405631999999997, 63.0, 42.0 ],
									"presentation" : 1,
									"presentation_rect" : [ 279.0, 174.0, 84.0, 24.0 ],
									"text" : "Description:"
								}

							}
, 							{
								"box" : 								{
									"id" : "obj-15",
									"linecount" : 6,
									"maxclass" : "comment",
									"numinlets" : 1,
									"numoutlets" : 0,
									"patching_rect" : [ 151.358001999999999, 120.405631999999997, 21.0, 113.0 ],
									"presentation" : 1,
									"presentation_linecount" : 6,
									"presentation_rect" : [ 199.0, 200.0, 20.0, 113.0 ],
									"text" : "x\nx\no\no\no\no"
								}

							}
, 							{
								"box" : 								{
									"fontface" : 1,
									"id" : "obj-2",
									"linecount" : 2,
									"maxclass" : "comment",
									"numinlets" : 1,
									"numoutlets" : 0,
									"patching_rect" : [ 104.858008999999996, 102.405631999999997, 38.0, 42.0 ],
									"presentation" : 1,
									"presentation_rect" : [ 144.0, 174.0, 42.0, 24.0 ],
									"text" : "Type:"
								}

							}
, 							{
								"box" : 								{
									"fontface" : 1,
									"id" : "obj-10",
									"linecount" : 2,
									"maxclass" : "comment",
									"numinlets" : 1,
									"numoutlets" : 0,
									"patching_rect" : [ 151.358001999999999, 102.405631999999997, 38.0, 42.0 ],
									"presentation" : 1,
									"presentation_rect" : [ 199.0, 174.0, 44.0, 24.0 ],
									"text" : "Pattr:"
								}

							}
, 							{
								"box" : 								{
									"fontface" : 1,
									"id" : "obj-3",
									"linecount" : 2,
									"maxclass" : "comment",
									"numinlets" : 1,
									"numoutlets" : 0,
									"patching_rect" : [ 15.858006, 102.405631999999997, 56.0, 42.0 ],
									"presentation" : 1,
									"presentation_rect" : [ 29.0, 174.0, 66.0, 24.0 ],
									"text" : "Symbols:"
								}

							}
, 							{
								"box" : 								{
									"id" : "obj-30",
									"linecount" : 6,
									"maxclass" : "comment",
									"numinlets" : 1,
									"numoutlets" : 0,
									"patching_rect" : [ 185.358001999999999, 120.405631999999997, 312.0, 113.0 ],
									"presentation" : 1,
									"presentation_linecount" : 6,
									"presentation_rect" : [ 279.0, 200.0, 207.0, 113.0 ],
									"text" : "initializes the parameters\nmessages to pattrstorage\nDSP (inside poly~) on (1) | off (2)\nlinear input gain (0. ~ 3.)\nclears the delay line\ndelay time (0. ~ 12000.)"
								}

							}
, 							{
								"box" : 								{
									"id" : "obj-29",
									"linecount" : 7,
									"maxclass" : "comment",
									"numinlets" : 1,
									"numoutlets" : 0,
									"patching_rect" : [ 104.858008999999996, 120.405631999999997, 48.0, 131.0 ],
									"presentation" : 1,
									"presentation_linecount" : 6,
									"presentation_rect" : [ 144.0, 200.0, 53.0, 113.0 ],
									"text" : "bang\nvarious\nint\nfloat\nbang\nfloat"
								}

							}
, 							{
								"box" : 								{
									"id" : "obj-16",
									"linecount" : 7,
									"maxclass" : "comment",
									"numinlets" : 1,
									"numoutlets" : 0,
									"patching_rect" : [ 15.858006, 120.405631999999997, 93.0, 131.0 ],
									"presentation" : 1,
									"presentation_linecount" : 6,
									"presentation_rect" : [ 29.0, 200.0, 113.0, 113.0 ],
									"text" : "echoInit\nechoPattrControl\nechoSwitch\nechoInGain\nechoClear\nechoDelTime"
								}

							}
, 							{
								"box" : 								{
									"id" : "obj-9",
									"linecount" : 2,
									"maxclass" : "comment",
									"numinlets" : 1,
									"numoutlets" : 0,
									"patching_rect" : [ 104.858008999999996, 18.405628, 131.0, 42.0 ],
									"presentation" : 1,
									"presentation_rect" : [ 317.0, 26.0, 169.0, 24.0 ],
									"text" : "created by Yota Kobayashi"
								}

							}
, 							{
								"box" : 								{
									"fontface" : 1,
									"fontsize" : 18.0,
									"id" : "obj-6",
									"maxclass" : "comment",
									"numinlets" : 1,
									"numoutlets" : 0,
									"patching_rect" : [ 15.858006, 18.405628, 99.0, 31.0 ],
									"presentation" : 1,
									"presentation_rect" : [ 29.0, 22.0, 50.0, 31.0 ],
									"text" : "echo"
								}

							}
, 							{
								"box" : 								{
									"fontname" : "Arial",
									"fontsize" : 9.0,
									"id" : "obj-19",
									"maxclass" : "message",
									"numinlets" : 2,
									"numoutlets" : 1,
									"outlettype" : [ "" ],
									"patching_rect" : [ 38.950291, 386.445740000000001, 149.0, 19.0 ],
									"text" : "window flags nofloat, window exec"
								}

							}
, 							{
								"box" : 								{
									"hidden" : 1,
									"id" : "obj-20",
									"linecount" : 2,
									"maxclass" : "comment",
									"numinlets" : 1,
									"numoutlets" : 0,
									"patching_rect" : [ 156.950195000000008, 285.710082999999997, 90.0, 42.0 ],
									"presentation" : 1,
									"presentation_rect" : [ 29.0, 351.0, 124.0, 24.0 ],
									"text" : "presentation mode"
								}

							}
, 							{
								"box" : 								{
									"hidden" : 1,
									"id" : "obj-14",
									"maxclass" : "toggle",
									"numinlets" : 1,
									"numoutlets" : 1,
									"outlettype" : [ "int" ],
									"parameter_enable" : 0,
									"patching_rect" : [ 156.950195000000008, 305.710082999999997, 20.0, 20.0 ],
									"presentation" : 1,
									"presentation_rect" : [ 29.0, 377.0, 124.0, 124.0 ]
								}

							}
, 							{
								"box" : 								{
									"fontname" : "Arial",
									"fontsize" : 9.0,
									"id" : "obj-21",
									"maxclass" : "newobj",
									"numinlets" : 2,
									"numoutlets" : 1,
									"outlettype" : [ "int" ],
									"patching_rect" : [ 156.950195000000008, 333.710082999999997, 31.0, 19.0 ],
									"text" : "== 0"
								}

							}
, 							{
								"box" : 								{
									"fontname" : "Arial",
									"fontsize" : 9.0,
									"id" : "obj-70",
									"maxclass" : "message",
									"numinlets" : 2,
									"numoutlets" : 1,
									"outlettype" : [ "" ],
									"patching_rect" : [ 156.950195000000008, 355.710144000000014, 73.0, 19.0 ],
									"text" : "presentation $1"
								}

							}
, 							{
								"box" : 								{
									"fontname" : "Arial",
									"fontsize" : 9.0,
									"id" : "obj-22",
									"maxclass" : "newobj",
									"numinlets" : 1,
									"numoutlets" : 2,
									"outlettype" : [ "", "" ],
									"patching_rect" : [ 15.858006, 408.366881999999976, 56.0, 19.0 ],
									"save" : [ "#N", "thispatcher", ";", "#Q", "end", ";" ],
									"text" : "thispatcher"
								}

							}
, 							{
								"box" : 								{
									"fontname" : "Arial",
									"fontsize" : 9.0,
									"id" : "obj-23",
									"maxclass" : "newobj",
									"numinlets" : 1,
									"numoutlets" : 1,
									"outlettype" : [ "bang" ],
									"patching_rect" : [ 15.858006, 331.419434000000024, 49.0, 19.0 ],
									"text" : "loadbang"
								}

							}
, 							{
								"box" : 								{
									"fontname" : "Arial",
									"fontsize" : 9.0,
									"id" : "obj-24",
									"maxclass" : "message",
									"numinlets" : 2,
									"numoutlets" : 1,
									"outlettype" : [ "" ],
									"patching_rect" : [ 15.858006, 355.710144000000014, 139.0, 19.0 ],
									"text" : "window flags float, window exec"
								}

							}
, 							{
								"box" : 								{
									"comment" : "",
									"id" : "obj-5",
									"index" : 1,
									"maxclass" : "inlet",
									"numinlets" : 0,
									"numoutlets" : 1,
									"outlettype" : [ "" ],
									"patching_rect" : [ 15.858006, 303.710082999999997, 25.0, 25.0 ]
								}

							}
 ],
						"lines" : [ 							{
								"patchline" : 								{
									"destination" : [ "obj-21", 0 ],
									"source" : [ "obj-14", 0 ]
								}

							}
, 							{
								"patchline" : 								{
									"destination" : [ "obj-22", 0 ],
									"source" : [ "obj-19", 0 ]
								}

							}
, 							{
								"patchline" : 								{
									"destination" : [ "obj-70", 0 ],
									"source" : [ "obj-21", 0 ]
								}

							}
, 							{
								"patchline" : 								{
									"destination" : [ "obj-24", 0 ],
									"source" : [ "obj-23", 0 ]
								}

							}
, 							{
								"patchline" : 								{
									"destination" : [ "obj-22", 0 ],
									"source" : [ "obj-24", 0 ]
								}

							}
, 							{
								"patchline" : 								{
									"destination" : [ "obj-22", 0 ],
									"midpoints" : [ 166.450195000000008, 378.110259999999982, 25.358006, 378.110259999999982 ],
									"source" : [ "obj-70", 0 ]
								}

							}
 ],
						"styles" : [ 							{
								"name" : "YKStyle_Patcher_01_13pt",
								"default" : 								{
									"accentcolor" : [ 0.462745098039216, 0.517647058823529, 0.568627450980392, 1.0 ],
									"bgcolor" : [ 0.215686274509804, 0.243137254901961, 0.27843137254902, 1.0 ],
									"bgfillcolor" : 									{
										"angle" : 270.0,
										"autogradient" : 0.0,
										"color" : [ 0.270588235294118, 0.298039215686275, 0.341176470588235, 1.0 ],
										"color1" : [ 0.270588235294118, 0.298039215686275, 0.341176470588235, 1.0 ],
										"color2" : [ 0.2, 0.2, 0.2, 1.0 ],
										"proportion" : 0.5,
										"type" : "gradient"
									}
,
									"color" : [ 0.772549019607843, 0.819607843137255, 0.870588235294118, 1.0 ],
									"editing_bgcolor" : [ 0.109803921568627, 0.129411764705882, 0.156862745098039, 1.0 ],
									"elementcolor" : [ 0.270588235294118, 0.298039215686275, 0.341176470588235, 1.0 ],
									"fontname" : [ "Nunito Sans 10pt" ],
									"fontsize" : [ 13.0 ],
									"locked_bgcolor" : [ 0.086274509803922, 0.105882352941176, 0.133333333333333, 1.0 ],
									"patchlinecolor" : [ 0.674509803921569, 0.729411764705882, 0.780392156862745, 1.0 ],
									"selectioncolor" : [ 0.27843137254902, 0.541176470588235, 0.898039215686275, 1.0 ],
									"stripecolor" : [ 0.270588235294118, 0.298039215686275, 0.341176470588235, 1.0 ],
									"textcolor" : [ 0.772549019607843, 0.819607843137255, 0.870588235294118, 1.0 ]
								}
,
								"parentstyle" : "",
								"multi" : 0
							}
 ]
					}
,
					"patching_rect" : [ 742.270203000000038, 131.217194000000006, 35.0, 20.0 ],
					"saved_object_attributes" : 					{
						"description" : "",
						"digest" : "",
						"fontname" : "Nunito Sans 10pt",
						"fontsize" : 13.0,
						"globalpatchername" : "",
						"style" : "YKStyle_Patcher_01_13pt",
						"tags" : ""
					}
,
					"text" : "p info"
				}

			}
, 			{
				"box" : 				{
					"color" : [ 0.811765, 0.372549, 0.372549, 1.0 ],
					"fontname" : "Arial",
					"fontsize" : 10.0,
					"id" : "obj-76",
					"maxclass" : "newobj",
					"numinlets" : 0,
					"numoutlets" : 1,
					"outlettype" : [ "" ],
					"patching_rect" : [ 235.629028000000005, 255.658646000000005, 85.0, 20.0 ],
					"text" : "r #1_echoSwitch"
				}

			}
, 			{
				"box" : 				{
					"color" : [ 0.811765, 0.372549, 0.372549, 1.0 ],
					"fontname" : "Arial",
					"fontsize" : 10.0,
					"id" : "obj-79",
					"maxclass" : "newobj",
					"numinlets" : 0,
					"numoutlets" : 1,
					"outlettype" : [ "" ],
					"patching_rect" : [ 136.02276599999999, 111.032950999999997, 61.0, 20.0 ],
					"text" : "r #0_toPoly"
				}

			}
, 			{
				"box" : 				{
					"color" : [ 0.372549, 0.458824, 0.811765, 1.0 ],
					"fontname" : "Arial",
					"fontsize" : 10.0,
					"id" : "obj-82",
					"maxclass" : "newobj",
					"numinlets" : 1,
					"numoutlets" : 0,
					"patching_rect" : [ 235.629028000000005, 415.380280000000027, 63.0, 20.0 ],
					"text" : "s #0_toPoly"
				}

			}
, 			{
				"box" : 				{
					"fontname" : "Arial",
					"fontsize" : 10.0,
					"id" : "obj-89",
					"maxclass" : "newobj",
					"numinlets" : 1,
					"numoutlets" : 2,
					"outlettype" : [ "", "bang" ],
					"patching_rect" : [ 235.629028000000005, 361.380219000000011, 32.5, 20.0 ],
					"text" : "t l b"
				}

			}
, 			{
				"box" : 				{
					"fontname" : "Arial",
					"fontsize" : 10.0,
					"id" : "obj-91",
					"maxclass" : "message",
					"numinlets" : 2,
					"numoutlets" : 1,
					"outlettype" : [ "" ],
					"patching_rect" : [ 249.129028000000005, 385.380219000000011, 44.0, 20.0 ],
					"text" : "target 0"
				}

			}
, 			{
				"box" : 				{
					"fontname" : "Arial",
					"fontsize" : 10.0,
					"id" : "obj-97",
					"maxclass" : "newobj",
					"numinlets" : 1,
					"numoutlets" : 2,
					"outlettype" : [ "", "" ],
					"patching_rect" : [ 671.917418999999995, 88.671227000000002, 64.0, 20.0 ],
					"text" : "patcherargs"
				}

			}
, 			{
				"box" : 				{
					"fontname" : "Arial",
					"fontsize" : 10.0,
					"id" : "obj-98",
					"maxclass" : "newobj",
					"numinlets" : 1,
					"numoutlets" : 1,
					"outlettype" : [ "bang" ],
					"patching_rect" : [ 671.506774999999948, 67.996421999999995, 53.0, 20.0 ],
					"text" : "loadbang"
				}

			}
, 			{
				"box" : 				{
					"fontname" : "Arial",
					"fontsize" : 10.0,
					"id" : "obj-99",
					"maxclass" : "message",
					"numinlets" : 2,
					"numoutlets" : 1,
					"outlettype" : [ "" ],
					"patching_rect" : [ 671.506774999999948, 109.507346999999996, 39.0, 20.0 ],
					"text" : "set $1"
				}

			}
, 			{
				"box" : 				{
					"id" : "obj-100",
					"maxclass" : "comment",
					"numinlets" : 1,
					"numoutlets" : 0,
					"patching_rect" : [ 652.867125999999985, 131.217194000000006, 23.0, 23.0 ],
					"text" : "ID"
				}

			}
, 			{
				"box" : 				{
					"fontname" : "Arial",
					"fontsize" : 10.0,
					"id" : "obj-102",
					"maxclass" : "message",
					"numinlets" : 2,
					"numoutlets" : 1,
					"outlettype" : [ "" ],
					"patching_rect" : [ 742.270203000000038, 89.373863, 35.0, 20.0 ],
					"text" : "open"
				}

			}
, 			{
				"box" : 				{
					"fontname" : "Arial",
					"fontsize" : 10.0,
					"id" : "obj-103",
					"maxclass" : "newobj",
					"numinlets" : 1,
					"numoutlets" : 1,
					"outlettype" : [ "" ],
					"patching_rect" : [ 742.270203000000038, 109.507346999999996, 47.0, 20.0 ],
					"text" : "pcontrol"
				}

			}
, 			{
				"box" : 				{
					"fontname" : "Arial",
					"fontsize" : 10.0,
					"id" : "obj-105",
					"linecount" : 4,
					"maxclass" : "message",
					"numinlets" : 2,
					"numoutlets" : 1,
					"outlettype" : [ "" ],
					"patching_rect" : [ 800.001709000000005, 145.611968999999988, 103.0, 53.0 ],
					"text" : ";\n#1_echoClear bang;\n#1_echoInGain 1.;\n#1_echoDelTime 0."
				}

			}
, 			{
				"box" : 				{
					"color" : [ 0.811765, 0.372549, 0.372549, 1.0 ],
					"fontname" : "Arial",
					"fontsize" : 10.0,
					"id" : "obj-218",
					"maxclass" : "newobj",
					"numinlets" : 0,
					"numoutlets" : 1,
					"outlettype" : [ "" ],
					"patching_rect" : [ 853.996826000000056, 20.597194999999999, 68.0, 20.0 ],
					"text" : "r #1_echoInit"
				}

			}
, 			{
				"box" : 				{
					"fontlink" : 1,
					"id" : "obj-174",
					"maxclass" : "textbutton",
					"numinlets" : 1,
					"numoutlets" : 3,
					"outlettype" : [ "", "", "int" ],
					"parameter_enable" : 0,
					"patching_rect" : [ 853.996826000000056, 43.396327999999997, 33.760000228881836, 24.36798095703125 ],
					"presentation" : 1,
					"presentation_rect" : [ 24.398624062538147, 117.525766611099243, 33.760000228881836, 24.36798095703125 ],
					"text" : "init",
					"texton" : "pause"
				}

			}
, 			{
				"box" : 				{
					"fontname" : "Arial",
					"fontsize" : 10.0,
					"id" : "obj-157",
					"maxclass" : "newobj",
					"numinlets" : 2,
					"numoutlets" : 1,
					"outlettype" : [ "bang" ],
					"patching_rect" : [ 800.001709000000005, 90.795554999999993, 50.0, 20.0 ],
					"text" : "del 2000"
				}

			}
, 			{
				"box" : 				{
					"fontname" : "Arial",
					"fontsize" : 10.0,
					"id" : "obj-107",
					"maxclass" : "newobj",
					"numinlets" : 1,
					"numoutlets" : 1,
					"outlettype" : [ "bang" ],
					"patching_rect" : [ 800.001709000000005, 67.996421999999995, 53.0, 20.0 ],
					"text" : "loadbang"
				}

			}
, 			{
				"box" : 				{
					"fontname" : "Arial",
					"fontsize" : 10.0,
					"id" : "obj-108",
					"maxclass" : "comment",
					"numinlets" : 1,
					"numoutlets" : 0,
					"patching_rect" : [ 235.629028000000005, 49.996426, 89.0, 18.0 ],
					"text" : "control messages"
				}

			}
, 			{
				"box" : 				{
					"comment" : "control messages input",
					"id" : "obj-109",
					"index" : 0,
					"maxclass" : "inlet",
					"numinlets" : 0,
					"numoutlets" : 1,
					"outlettype" : [ "" ],
					"patching_rect" : [ 235.629028000000005, 67.996421999999995, 25.0, 25.0 ]
				}

			}
, 			{
				"box" : 				{
					"color" : [ 0.811765, 0.372549, 0.372549, 1.0 ],
					"fontname" : "Arial",
					"fontsize" : 10.0,
					"id" : "obj-253",
					"maxclass" : "newobj",
					"numinlets" : 0,
					"numoutlets" : 1,
					"outlettype" : [ "" ],
					"patching_rect" : [ 321.56454500000001, 98.289023999999998, 108.0, 20.0 ],
					"text" : "r #1_echoPattrControl"
				}

			}
, 			{
				"box" : 				{
					"active" : 					{
						"switch" : 0
					}
,
					"fontname" : "Arial",
					"fontsize" : 10.0,
					"id" : "obj-112",
					"maxclass" : "newobj",
					"numinlets" : 1,
					"numoutlets" : 1,
					"outlettype" : [ "" ],
					"patching_rect" : [ 235.629028000000005, 135.196532999999988, 402.0, 20.0 ],
					"saved_object_attributes" : 					{
						"client_rect" : [ 4, 44, 363, 360 ],
						"parameter_enable" : 0,
						"parameter_mappable" : 0,
						"storage_rect" : [ 583, 69, 1034, 197 ]
					}
,
					"text" : "pattrstorage yk.pattr.echoBP @autorestore 0 @outputmode 1 @savemode 0 @greedy 1",
					"varname" : "yk.pattr.echoBP"
				}

			}
, 			{
				"box" : 				{
					"fontlink" : 1,
					"id" : "obj-113",
					"maxclass" : "textbutton",
					"mode" : 1,
					"numinlets" : 1,
					"numoutlets" : 3,
					"outlettype" : [ "", "", "int" ],
					"parameter_enable" : 0,
					"patching_rect" : [ 235.629028000000005, 280.103607000000011, 48.381999969482422, 27.095977783203125 ],
					"presentation" : 1,
					"presentation_rect" : [ 20.618555545806885, 16.151201844215393, 48.381999969482422, 27.095977783203125 ],
					"style" : "YKStyle_textbutton_ModuleSwitch",
					"text" : "echo",
					"texton" : "echo",
					"varname" : "switch"
				}

			}
, 			{
				"box" : 				{
					"fontname" : "Arial",
					"fontsize" : 10.0,
					"id" : "obj-114",
					"maxclass" : "message",
					"numinlets" : 2,
					"numoutlets" : 1,
					"outlettype" : [ "" ],
					"patching_rect" : [ 235.629028000000005, 307.888091999999972, 52.0, 20.0 ],
					"text" : "switch $1"
				}

			}
, 			{
				"box" : 				{
					"color" : [ 0.082353, 0.25098, 0.431373, 0.501961 ],
					"fontname" : "Arial Bold",
					"fontsize" : 10.0,
					"id" : "obj-117",
					"maxclass" : "newobj",
					"numinlets" : 2,
					"numoutlets" : 1,
					"outlettype" : [ "signal" ],
					"patching_rect" : [ 47.022765999999997, 135.196532999999988, 108.0, 20.0 ],
					"text" : "poly~ yk.poly.echo 1"
				}

			}
, 			{
				"box" : 				{
					"comment" : "(signal) 1ch out",
					"id" : "obj-120",
					"index" : 0,
					"maxclass" : "outlet",
					"numinlets" : 1,
					"numoutlets" : 0,
					"patching_rect" : [ 47.022765999999997, 170.637573000000003, 25.0, 25.0 ]
				}

			}
, 			{
				"box" : 				{
					"comment" : "(signal) input ch1",
					"id" : "obj-121",
					"index" : 0,
					"maxclass" : "inlet",
					"numinlets" : 0,
					"numoutlets" : 1,
					"outlettype" : [ "" ],
					"patching_rect" : [ 47.022765999999997, 66.289023999999998, 25.0, 25.0 ]
				}

			}
, 			{
				"box" : 				{
					"border" : 1,
					"id" : "obj-20",
					"maxclass" : "panel",
					"numinlets" : 1,
					"numoutlets" : 0,
					"patching_rect" : [ 911.006958000000054, 210.972329354185092, 115.151509523391724, 35.135135114192963 ],
					"presentation" : 1,
					"presentation_rect" : [ 9.965635180473328, 8.934707403182983, 170.103083252906799, 164.948444366455078 ],
					"rounded" : 0,
					"style" : "YKStyle_panel_bpatcherBG"
				}

			}
 ],
		"lines" : [ 			{
				"patchline" : 				{
					"destination" : [ "obj-6", 0 ],
					"source" : [ "obj-1", 0 ]
				}

			}
, 			{
				"patchline" : 				{
					"destination" : [ "obj-30", 0 ],
					"source" : [ "obj-10", 0 ]
				}

			}
, 			{
				"patchline" : 				{
					"destination" : [ "obj-103", 0 ],
					"source" : [ "obj-102", 0 ]
				}

			}
, 			{
				"patchline" : 				{
					"destination" : [ "obj-111", 0 ],
					"source" : [ "obj-103", 0 ]
				}

			}
, 			{
				"patchline" : 				{
					"destination" : [ "obj-157", 0 ],
					"source" : [ "obj-107", 0 ]
				}

			}
, 			{
				"patchline" : 				{
					"destination" : [ "obj-5", 0 ],
					"source" : [ "obj-109", 0 ]
				}

			}
, 			{
				"patchline" : 				{
					"destination" : [ "obj-11", 0 ],
					"source" : [ "obj-112", 0 ]
				}

			}
, 			{
				"patchline" : 				{
					"destination" : [ "obj-114", 0 ],
					"source" : [ "obj-113", 0 ]
				}

			}
, 			{
				"patchline" : 				{
					"destination" : [ "obj-89", 0 ],
					"midpoints" : [ 245.129028000000005, 332.369689999999991, 245.129028000000005, 332.369689999999991 ],
					"source" : [ "obj-114", 0 ]
				}

			}
, 			{
				"patchline" : 				{
					"destination" : [ "obj-12", 0 ],
					"midpoints" : [ 56.522765999999997, 161.41705300000001, 94.623962000000006, 161.41705300000001 ],
					"order" : 0,
					"source" : [ "obj-117", 0 ]
				}

			}
, 			{
				"patchline" : 				{
					"destination" : [ "obj-120", 0 ],
					"order" : 1,
					"source" : [ "obj-117", 0 ]
				}

			}
, 			{
				"patchline" : 				{
					"destination" : [ "obj-117", 0 ],
					"source" : [ "obj-121", 0 ]
				}

			}
, 			{
				"patchline" : 				{
					"destination" : [ "obj-4", 0 ],
					"midpoints" : [ 938.634521000000063, 117.507407999999998, 809.501709000000005, 117.507407999999998 ],
					"source" : [ "obj-14", 1 ]
				}

			}
, 			{
				"patchline" : 				{
					"destination" : [ "obj-51", 0 ],
					"source" : [ "obj-14", 0 ]
				}

			}
, 			{
				"patchline" : 				{
					"destination" : [ "obj-102", 0 ],
					"source" : [ "obj-144", 0 ]
				}

			}
, 			{
				"patchline" : 				{
					"destination" : [ "obj-4", 0 ],
					"source" : [ "obj-157", 0 ]
				}

			}
, 			{
				"patchline" : 				{
					"destination" : [ "obj-14", 0 ],
					"source" : [ "obj-174", 0 ]
				}

			}
, 			{
				"patchline" : 				{
					"destination" : [ "obj-174", 0 ],
					"source" : [ "obj-218", 0 ]
				}

			}
, 			{
				"patchline" : 				{
					"destination" : [ "obj-112", 0 ],
					"midpoints" : [ 331.06454500000001, 124.242783000000003, 245.129028000000005, 124.242783000000003 ],
					"source" : [ "obj-253", 0 ]
				}

			}
, 			{
				"patchline" : 				{
					"destination" : [ "obj-32", 0 ],
					"source" : [ "obj-28", 1 ]
				}

			}
, 			{
				"patchline" : 				{
					"destination" : [ "obj-28", 0 ],
					"source" : [ "obj-3", 0 ]
				}

			}
, 			{
				"patchline" : 				{
					"destination" : [ "obj-89", 0 ],
					"midpoints" : [ 477.407378999999992, 354.906494000000009, 245.129028000000005, 354.906494000000009 ],
					"source" : [ "obj-30", 0 ]
				}

			}
, 			{
				"patchline" : 				{
					"destination" : [ "obj-31", 0 ],
					"source" : [ "obj-32", 0 ]
				}

			}
, 			{
				"patchline" : 				{
					"destination" : [ "obj-89", 0 ],
					"midpoints" : [ 671.894653000000062, 355.004912999999988, 245.129028000000005, 355.004912999999988 ],
					"source" : [ "obj-32", 1 ]
				}

			}
, 			{
				"patchline" : 				{
					"destination" : [ "obj-10", 0 ],
					"source" : [ "obj-36", 0 ]
				}

			}
, 			{
				"patchline" : 				{
					"destination" : [ "obj-105", 0 ],
					"source" : [ "obj-4", 0 ]
				}

			}
, 			{
				"patchline" : 				{
					"destination" : [ "obj-112", 0 ],
					"source" : [ "obj-5", 0 ]
				}

			}
, 			{
				"patchline" : 				{
					"destination" : [ "obj-11", 0 ],
					"source" : [ "obj-52", 0 ]
				}

			}
, 			{
				"patchline" : 				{
					"destination" : [ "obj-8", 0 ],
					"source" : [ "obj-6", 0 ]
				}

			}
, 			{
				"patchline" : 				{
					"destination" : [ "obj-113", 0 ],
					"source" : [ "obj-76", 0 ]
				}

			}
, 			{
				"patchline" : 				{
					"destination" : [ "obj-117", 1 ],
					"source" : [ "obj-79", 0 ]
				}

			}
, 			{
				"patchline" : 				{
					"destination" : [ "obj-89", 0 ],
					"midpoints" : [ 339.866881999999976, 355.357300000000009, 245.129028000000005, 355.357300000000009 ],
					"source" : [ "obj-8", 0 ]
				}

			}
, 			{
				"patchline" : 				{
					"destination" : [ "obj-82", 0 ],
					"source" : [ "obj-89", 0 ]
				}

			}
, 			{
				"patchline" : 				{
					"destination" : [ "obj-91", 0 ],
					"source" : [ "obj-89", 1 ]
				}

			}
, 			{
				"patchline" : 				{
					"destination" : [ "obj-82", 0 ],
					"midpoints" : [ 258.629028000000005, 407.880219000000011, 245.129028000000005, 407.880219000000011 ],
					"source" : [ "obj-91", 0 ]
				}

			}
, 			{
				"patchline" : 				{
					"destination" : [ "obj-99", 0 ],
					"source" : [ "obj-97", 0 ]
				}

			}
, 			{
				"patchline" : 				{
					"destination" : [ "obj-97", 0 ],
					"source" : [ "obj-98", 0 ]
				}

			}
, 			{
				"patchline" : 				{
					"destination" : [ "obj-47", 0 ],
					"source" : [ "obj-99", 0 ]
				}

			}
 ],
		"dependency_cache" : [ 			{
				"name" : "yk.poly.echo.maxpat",
				"bootpath" : "~/Dev/Max/yk.abstractions/patchers/IO/echo/lib",
				"patcherrelativepath" : "./lib",
				"type" : "JSON",
				"implicit" : 1
			}
, 			{
				"name" : "yk.r.maxpat",
				"bootpath" : "~/Dev/Max/yk.abstractions/patchers/Utillities/r",
				"patcherrelativepath" : "../../Utillities/r",
				"type" : "JSON",
				"implicit" : 1
			}
, 			{
				"name" : "yk.thru3.maxpat",
				"bootpath" : "~/Dev/Max/yk.abstractions/patchers/Utillities/thru3",
				"patcherrelativepath" : "../../Utillities/thru3",
				"type" : "JSON",
				"implicit" : 1
			}
, 			{
				"name" : "yk.vdelay.maxpat",
				"bootpath" : "~/Dev/Max/yk.abstractions/patchers/Utillities/vdelay",
				"patcherrelativepath" : "../../Utillities/vdelay",
				"type" : "JSON",
				"implicit" : 1
			}
 ],
		"autosave" : 0,
		"styles" : [ 			{
				"name" : "YKStyle_Patcher_02_12pt",
				"default" : 				{
					"accentcolor" : [ 0.462745098039216, 0.517647058823529, 0.568627450980392, 1.0 ],
					"bgcolor" : [ 0.215686274509804, 0.243137254901961, 0.27843137254902, 1.0 ],
					"bgfillcolor" : 					{
						"angle" : 270.0,
						"autogradient" : 0.0,
						"color" : [ 0.270588235294118, 0.298039215686275, 0.341176470588235, 1.0 ],
						"color1" : [ 0.270588235294118, 0.298039215686275, 0.341176470588235, 1.0 ],
						"color2" : [ 0.2, 0.2, 0.2, 1.0 ],
						"proportion" : 0.5,
						"type" : "gradient"
					}
,
					"color" : [ 0.772549019607843, 0.819607843137255, 0.870588235294118, 1.0 ],
					"editing_bgcolor" : [ 0.109803921568627, 0.129411764705882, 0.156862745098039, 1.0 ],
					"elementcolor" : [ 0.270588235294118, 0.298039215686275, 0.341176470588235, 1.0 ],
					"fontname" : [ "Nunito Sans 10pt" ],
					"fontsize" : [ 12.0 ],
					"locked_bgcolor" : [ 0.086274509803922, 0.105882352941176, 0.133333333333333, 1.0 ],
					"patchlinecolor" : [ 0.674509803921569, 0.729411764705882, 0.780392156862745, 1.0 ],
					"selectioncolor" : [ 0.27843137254902, 0.541176470588235, 0.898039215686275, 1.0 ],
					"stripecolor" : [ 0.270588235294118, 0.298039215686275, 0.341176470588235, 1.0 ],
					"textcolor" : [ 0.772549019607843, 0.819607843137255, 0.870588235294118, 1.0 ]
				}
,
				"parentstyle" : "",
				"multi" : 0
			}
, 			{
				"name" : "YKStyle_panel_bpatcherBG",
				"default" : 				{
					"bgfillcolor" : 					{
						"angle" : 270.0,
						"autogradient" : 0.0,
						"color" : [ 0.133333333333333, 0.152941176470588, 0.180392156862745, 1.0 ],
						"color1" : [ 0.270588235294118, 0.298039215686275, 0.341176470588235, 1.0 ],
						"color2" : [ 0.2, 0.2, 0.2, 1.0 ],
						"proportion" : 0.5,
						"type" : "color"
					}
,
					"color" : [ 0.215686274509804, 0.243137254901961, 0.27843137254902, 1.0 ]
				}
,
				"parentstyle" : "",
				"multi" : 0
			}
, 			{
				"name" : "YKStyle_textbutton_ModuleSwitch",
				"default" : 				{
					"accentcolor" : [ 0.831372549019608, 0.364705882352941, 0.364705882352941, 1.0 ],
					"bgcolor" : [ 0.215686274509804, 0.243137254901961, 0.27843137254902, 0.0 ],
					"color" : [ 0.27843137254902, 0.541176470588235, 0.898039215686275, 1.0 ],
					"elementcolor" : [ 0.270588235294118, 0.298039215686275, 0.341176470588235, 0.0 ],
					"fontface" : [ 0 ],
					"fontname" : [ "Nunito Sans 10pt ExtraBold" ],
					"fontsize" : [ 14.0 ],
					"selectioncolor" : [ 0.831372549019608, 0.364705882352941, 0.364705882352941, 1.0 ]
				}
,
				"parentstyle" : "",
				"multi" : 0
			}
 ]
	}

}
